<?xml version="1.0" standalone="no"?>
<!DOCTYPE svg PUBLIC "-//W3C//DTD SVG 1.1//EN" "http://www.w3.org/Graphics/SVG/1.1/DTD/svg11.dtd" >
<svg xmlns="http://www.w3.org/2000/svg" xmlns:xlink="http://www.w3.org/1999/xlink" version="1.1">
<metadata>
Created by FontForge 20190801 at Mon Aug 27 13:39:28 2018
 By www-data
Copyright (c) 2018 by Swiss Typefaces. All rights reserved. |DCNT
</metadata>
<defs>
<font id="EuclidSquare-SemiBold" horiz-adv-x="0" >
  <font-face 
    font-family="Euclid Square SemiBold"
    font-weight="600"
    font-stretch="normal"
    units-per-em="1000"
    panose-1="2 11 7 4 0 0 0 0 0 0"
    ascent="732"
    descent="-268"
    x-height="500"
    cap-height="710"
    bbox="-371 -322 1371 993"
    underline-thickness="100"
    underline-position="-384"
    unicode-range="U+0020-FEFF"
  />
<missing-glyph horiz-adv-x="644" 
d="M72 0v710h500v-710h-500zM311 355l-220 327v-654zM332 355l221 -327v654zM538 691h-432l216 -321zM322 339l-216 -320h432z" />
    <glyph glyph-name="uni0407_uni0407" unicode="&#x407;&#x407;" horiz-adv-x="606" 
d="M79 0v710h145v-710h-145zM382 0v710h145v-710h-145zM27 772q-32 0 -54 22t-22 53q0 32 22 54t54 22q31 0 53 -22t22 -54q0 -31 -22 -53t-53 -22zM297 772q-32 0 -54 22t-22 53q0 32 22 54t54 22q31 0 53 -22t22 -54q0 -31 -22 -53t-53 -22zM566 772q-32 0 -54 22t-22 53
q0 32 22 54t54 22q31 0 53 -22t22 -54q0 -31 -22 -53t-53 -22z" />
    <glyph glyph-name="uni0457_uni0457" unicode="&#x457;&#x457;" horiz-adv-x="539" 
d="M203 0h-137v500h137v-500zM472 0h-137v500h137v-500zM43 577q-31 0 -53 22t-22 53q0 32 22 54t53 22t53.5 -22t22.5 -54q0 -31 -22.5 -53t-53.5 -22zM268 577q-31 0 -53 22t-22 53q0 32 22 54t53 22q32 0 54 -22t22 -54q0 -31 -22 -53t-54 -22zM496 577q-32 0 -54 22
t-22 53q0 32 22 54t54 22q31 0 53 -22t22 -54q0 -31 -22 -53t-53 -22z" />
    <glyph glyph-name="uni0457_uni0458" unicode="&#x457;&#x458;" horiz-adv-x="539" 
d="M203 0h-137v500h137v-500zM43 577q-31 0 -53 22t-22 53q0 32 22 54t53 22t53.5 -22t22.5 -54q0 -31 -22.5 -53t-53.5 -22zM268 577q-31 0 -53 22t-22 53q0 32 22 54t53 22q32 0 54 -22t22 -54q0 -31 -22 -53t-54 -22zM496 577q-32 0 -54 22t-22 53q0 32 22 54t54 22
q31 0 53 -22t22 -54q0 -31 -22 -53t-53 -22zM289 -199q-68 0 -114 22l31 112q29 -15 64 -15q65 0 65 84v496h137v-518q0 -88 -51.5 -134.5t-131.5 -46.5z" />
    <glyph glyph-name="_515" unicode="ff" horiz-adv-x="847" 
d="M137 0v380h-121v120h121v38q0 85 50.5 141.5t143.5 56.5q72 0 128 -29l-50 -112q-32 17 -61 17q-35 0 -54.5 -20.5t-19.5 -54.5v-37h130v-120h-130v-380h-137zM529 0v380h-76v120h76v38q0 85 50 141.5t144 56.5q71 0 127 -29l-50 -112q-32 17 -61 17q-34 0 -53.5 -20.5
t-19.5 -54.5v-37h167v-120h-167v-380h-137z" />
    <glyph glyph-name="f_i" unicode="fi" horiz-adv-x="723" 
d="M135 0v380h-119v120h119v38q0 85 50.5 141.5t143.5 56.5q72 0 128 -29l-50 -112q-32 17 -61 17q-34 0 -54 -20.5t-20 -54.5v-37h168v-120h-168v-380h-137zM588 562q-35 0 -61 25.5t-26 61.5t26 61.5t61 25.5q37 0 62.5 -25.5t25.5 -61.5t-25.5 -61.5t-62.5 -25.5zM520 0
v500h137v-500h-137z" />
    <glyph glyph-name="_519" unicode="ffi" horiz-adv-x="1116" 
d="M981 562q-35 0 -61 25.5t-26 61.5t26 61.5t61 25.5q37 0 62.5 -25.5t25.5 -61.5t-25.5 -61.5t-62.5 -25.5zM913 0v500h137v-500h-137zM137 0v380h-121v120h121v38q0 85 50.5 141.5t143.5 56.5q72 0 128 -29l-50 -112q-32 17 -61 17q-35 0 -54.5 -20.5t-19.5 -54.5v-37
h130v-120h-130v-380h-137zM529 0v380h-76v120h76v38q0 85 50 141.5t144 56.5q71 0 127 -29l-50 -112q-32 17 -61 17q-34 0 -53.5 -20.5t-19.5 -54.5v-37h167v-120h-167v-380h-137z" />
    <glyph glyph-name="f_l" unicode="fl" horiz-adv-x="723" 
d="M135 0v380h-119v120h119v38q0 85 50.5 141.5t143.5 56.5q72 0 128 -29l-50 -112q-32 17 -61 17q-34 0 -54 -20.5t-20 -54.5v-37h168v-120h-168v-380h-137zM520 0v730h137v-730h-137z" />
    <glyph glyph-name="_523" unicode="ffl" horiz-adv-x="1116" 
d="M913 0v730h137v-730h-137zM137 0v380h-121v120h121v38q0 85 50.5 141.5t143.5 56.5q72 0 128 -29l-50 -112q-32 17 -61 17q-35 0 -54.5 -20.5t-19.5 -54.5v-37h130v-120h-130v-380h-137zM529 0v380h-76v120h76v38q0 85 50 141.5t144 56.5q71 0 127 -29l-50 -112
q-32 17 -61 17q-34 0 -53.5 -20.5t-19.5 -54.5v-37h167v-120h-167v-380h-137z" />
    <glyph glyph-name="f_t" unicode="ft" horiz-adv-x="866" 
d="M135 0v380h-119v120h119v38q0 85 50.5 141.5t143.5 56.5q72 0 128 -29l-50 -112q-32 17 -61 17q-34 0 -54 -20.5t-20 -54.5v-37h128v-120h-128v-380h-137zM730 -6q-87 0 -140 46t-53 135v205h-88v120h88v150h137v-150h151v-120h-151v-178q0 -45 18.5 -64.5t57.5 -19.5
q35 0 69 17l40 -112q-51 -29 -129 -29z" />
    <glyph glyph-name="t_t" unicode="tt" horiz-adv-x="883" 
d="M329 -6q-88 0 -141 46t-53 135v205h-121v120h121v150h137v-150h128v-120h-128v-178q0 -45 18.5 -64.5t57.5 -19.5q37 0 69 17l41 -112q-54 -29 -129 -29zM748 -6q-88 0 -141 46t-53 135v205h-106v120h106v150h137v-150h151v-120h-151v-178q0 -45 18.5 -64.5t57.5 -19.5
q37 0 69 17l41 -112q-54 -29 -129 -29z" />
    <glyph glyph-name=".notdef" horiz-adv-x="644" 
d="M72 0v710h500v-710h-500zM311 355l-220 327v-654zM332 355l221 -327v654zM538 691h-432l216 -321zM322 339l-216 -320h432z" />
    <glyph glyph-name=".null" 
 />
    <glyph glyph-name="nonmarkingreturn" horiz-adv-x="333" 
 />
    <glyph glyph-name="space" unicode=" " horiz-adv-x="228" 
 />
    <glyph glyph-name="exclam" unicode="!" horiz-adv-x="291" 
d="M103 256l-27 188v266h138v-266l-27 -188h-84zM228 0h-167v167h167v-167z" />
    <glyph glyph-name="quotedbl" unicode="&#x22;" horiz-adv-x="434" 
d="M58 423v287h116v-287h-116zM260 423v287h116v-287h-116z" />
    <glyph glyph-name="numbersign" unicode="#" horiz-adv-x="726" 
d="M323 0l59 185h-143l-58 -185h-117l58 185h-90v105h123l40 131h-90v105h124l56 184h119l-58 -184h142l57 184h118l-58 -184h89v-105h-122l-41 -131h91v-105h-124l-58 -185h-117zM313 421l-41 -131h143l39 131h-141z" />
    <glyph glyph-name="dollar" unicode="$" horiz-adv-x="551" 
d="M256 -88v78q-70 4 -130.5 31.5t-93.5 70.5l89 98q49 -61 135 -70v175l-37 14q-76 26 -121 79.5t-45 130.5q0 85 56 139t147 62v78h54v-77q59 -5 109.5 -33t75.5 -67l-94 -88q-41 47 -91 56v-163l42 -16q81 -29 121 -80t40 -135q0 -89 -54.5 -142.5t-148.5 -61.5v-79h-54z
M376 194q0 50 -66 81v-153q66 14 66 72zM190 524q0 -28 15.5 -45t50.5 -32v142q-29 -6 -47.5 -22.5t-18.5 -42.5z" />
    <glyph glyph-name="percent" unicode="%" horiz-adv-x="980" 
d="M336 0h-142l450 710h142zM755 -8q-82 0 -139.5 58t-57.5 139q0 82 57.5 139.5t139.5 57.5q81 0 139 -57.5t58 -139.5q0 -81 -58 -139t-139 -58zM755 108q33 0 56 24t23 57t-23 57t-56 24t-56.5 -24t-23.5 -57t23.5 -57t56.5 -24zM225 324q-82 0 -139.5 58t-57.5 139
q0 82 57.5 139.5t139.5 57.5q81 0 139 -57.5t58 -139.5q0 -81 -58 -139t-139 -58zM225 440q33 0 56.5 24t23.5 57t-23.5 57t-56.5 24t-56.5 -24t-23.5 -57t23.5 -57t56.5 -24z" />
    <glyph glyph-name="ampersand" unicode="&#x26;" horiz-adv-x="761" 
d="M298 -11q-112 0 -174 60.5t-62 152.5q0 66 32 109.5t93 83.5q-75 75 -75 149q0 73 57.5 125.5t142.5 52.5q87 0 142.5 -53t55.5 -124q0 -59 -31 -98t-90 -73l116 -112l104 125l96 -81l-111 -130l183 -176h-180l-87 83q-98 -94 -212 -94zM297 110q62 0 126 58l-147 141
q-80 -52 -80 -111q0 -43 30.5 -65.5t70.5 -22.5zM243 543q0 -6 1 -11.5t3.5 -11t4 -9.5t6 -10t7 -8.5l9.5 -9.5l9 -9t11 -10t11 -10l2 1q37 18 52.5 36t15.5 48t-18.5 48.5t-46.5 18.5t-47.5 -17t-19.5 -46z" />
    <glyph glyph-name="quotesingle" unicode="'" horiz-adv-x="232" 
d="M58 423v287h116v-287h-116z" />
    <glyph glyph-name="parenleft" unicode="(" horiz-adv-x="283" 
d="M155 320q0 -228 100 -436l-88 -44q-128 233 -128 480t128 480l88 -44q-100 -208 -100 -436z" />
    <glyph glyph-name="parenright" unicode=")" horiz-adv-x="283" 
d="M128 320q0 228 -100 436l88 44q128 -233 128 -480t-128 -480l-88 44q100 208 100 436z" />
    <glyph glyph-name="asterisk" unicode="*" horiz-adv-x="492" 
d="M160 303l-77 55l86 117l-138 45l29 91l139 -45v144h95v-144l138 45l29 -90l-138 -46l86 -117l-76 -55l-86 116z" />
    <glyph glyph-name="plus" unicode="+" horiz-adv-x="492" 
d="M36 230v119h151v151h119v-151h150v-119h-150v-151h-119v151h-151z" />
    <glyph glyph-name="comma" unicode="," horiz-adv-x="282" 
d="M78 -167l48 167h-69v167h167v-167l-68 -167h-78z" />
    <glyph glyph-name="hyphen" unicode="-" horiz-adv-x="400" 
d="M57 214v132h286v-132h-286z" />
    <glyph glyph-name="period" unicode="." horiz-adv-x="279" 
d="M223 0h-167v167h167v-167z" />
    <glyph glyph-name="slash" unicode="/" horiz-adv-x="546" 
d="M18 -110l386 820h124l-386 -820h-124z" />
    <glyph glyph-name="zero" unicode="0" horiz-adv-x="631" 
d="M316 -11q-117 0 -191 79t-74 202v172q0 122 74 201t191 79q116 0 190 -79t74 -201v-172q0 -123 -74 -202t-190 -79zM316 124q58 0 92.5 39t34.5 107v172q0 68 -34.5 106.5t-92.5 38.5t-93 -38.5t-35 -106.5v-172q0 -68 35 -107t93 -39z" />
    <glyph glyph-name="one" unicode="1" horiz-adv-x="362" 
d="M146 0v575h-124v135h261v-710h-137z" />
    <glyph glyph-name="two" unicode="2" horiz-adv-x="571" 
d="M40 0v120l277 267q62 62 62 113q0 37 -25 62t-68 25q-41 0 -72 -28t-43 -72l-133 32q19 94 89 148.5t166 54.5q95 0 159 -57t64 -158q0 -69 -29 -119.5t-88 -107.5l-150 -145h274v-135h-483z" />
    <glyph glyph-name="three" unicode="3" horiz-adv-x="569" 
d="M277 -12q-88 0 -163 50.5t-96 130.5l133 51q15 -44 48.5 -70.5t80.5 -26.5q52 0 81 27t29 71q0 48 -33 76.5t-87 28.5h-92v112l134 139h-243v133h425v-108l-154 -160q90 -12 138.5 -72.5t48.5 -148.5q0 -105 -69 -169t-181 -64z" />
    <glyph glyph-name="four" unicode="4" horiz-adv-x="637" 
d="M371 0v162h-353v111l368 437h122v-422h93v-126h-93v-162h-137zM186 288h185v219z" />
    <glyph glyph-name="five" unicode="5" horiz-adv-x="584" 
d="M297 -11q-89 0 -164 50.5t-96 130.5l132 51q13 -43 47 -70t81 -27q52 0 81.5 31t29.5 79q0 45 -31 77.5t-78 32.5q-33 0 -59.5 -15t-38.5 -40h-130v421h426v-133h-289v-141q47 32 112 32q104 0 164.5 -67.5t60.5 -177.5q0 -106 -68.5 -170t-179.5 -64z" />
    <glyph glyph-name="six" unicode="6" horiz-adv-x="569" 
d="M282 -11q-111 0 -179 69.5t-68 175.5q0 50 18 87.5t64 101.5l212 287h169l-183 -249q84 -4 149.5 -66t65.5 -161q0 -106 -68 -175.5t-180 -69.5zM282 121q48 0 79 32t31 79q0 46 -31.5 79t-78.5 33t-78 -32.5t-31 -79.5t31 -79t78 -32z" />
    <glyph glyph-name="seven" unicode="7" horiz-adv-x="543" 
d="M200 0h-155l321 577h-332v133h495v-118z" />
    <glyph glyph-name="eight" unicode="8" horiz-adv-x="588" 
d="M294 -11q-108 0 -180 65t-72 164q0 116 91 170q-61 55 -61 142q0 83 61.5 137.5t160.5 54.5t160.5 -54.5t61.5 -137.5q0 -86 -61 -141q91 -56 91 -171q0 -99 -72 -164t-180 -65zM294 116q50 0 80.5 30.5t30.5 74.5t-30.5 74.5t-80.5 30.5q-51 0 -81 -30.5t-30 -74.5
t30 -74.5t81 -30.5zM294 436q38 0 63.5 23.5t25.5 58.5t-25.5 58.5t-63.5 23.5t-63.5 -23.5t-25.5 -58.5t25.5 -58.5t63.5 -23.5z" />
    <glyph glyph-name="nine" unicode="9" horiz-adv-x="569" 
d="M70 0l183 250q-83 2 -148.5 65t-65.5 162q0 106 68.5 175.5t179.5 69.5t179.5 -69.5t68.5 -175.5q0 -49 -18 -86.5t-65 -102.5l-212 -288h-170zM287 367q47 0 78.5 33t31.5 79q0 47 -31 79t-79 32t-79 -31.5t-31 -79.5q0 -46 31.5 -79t78.5 -33z" />
    <glyph glyph-name="colon" unicode=":" horiz-adv-x="282" 
d="M223 324h-167v167h167v-167zM223 0h-167v167h167v-167z" />
    <glyph glyph-name="semicolon" unicode=";" horiz-adv-x="282" 
d="M223 324h-167v167h167v-167zM78 -167l48 167h-69v167h167v-167l-68 -167h-78z" />
    <glyph glyph-name="less" unicode="&#x3c;" horiz-adv-x="464" 
d="M415 -11l-375 234v133l375 234v-140l-259 -161l259 -160v-140z" />
    <glyph glyph-name="equal" unicode="=" horiz-adv-x="541" 
d="M60 125v118h421v-118h-421zM60 335v119h421v-119h-421z" />
    <glyph glyph-name="greater" unicode="&#x3e;" horiz-adv-x="464" 
d="M424 223l-375 -234v140l259 160l-259 161v140l375 -234v-133z" />
    <glyph glyph-name="question" unicode="?" horiz-adv-x="542" 
d="M182 257v19q0 42 21.5 73t64.5 61q7 5 25.5 17.5t26 18t18.5 16.5t15 23t4 26q0 34 -25.5 55t-62.5 21q-85 0 -136 -77l-109 73q32 58 98.5 98.5t149.5 40.5q95 0 158.5 -60.5t63.5 -142.5q0 -57 -21 -98t-69 -77q-7 -5 -20.5 -14.5t-19 -13.5t-15 -11.5t-13.5 -12
t-9 -10.5t-6.5 -11t-1.5 -11v-3h-137zM332 0h-167v167h167v-167z" />
    <glyph glyph-name="at" unicode="@" horiz-adv-x="803" 
d="M386 -11q-160 0 -253.5 99t-93.5 249q0 167 114.5 276t273.5 109q149 0 246 -86.5t97 -229.5q0 -123 -52 -186t-132 -63q-35 0 -63.5 14.5t-42.5 36.5q-46 -49 -124 -49q-71 0 -113.5 49.5t-42.5 122.5q0 91 58 155t142 64q73 0 105 -58l10 48h99l-47 -220
q-16 -79 36 -79q86 0 86 167q0 111 -76 173.5t-187 62.5q-125 0 -214 -83.5t-89 -223.5q0 -122 70 -196t193 -74q100 0 180 42l31 -76q-96 -44 -211 -44zM377 251q54 0 85 46l24 110q-8 20 -29 36t-51 16q-37 0 -64.5 -26t-35.5 -67q-10 -48 10.5 -81.5t60.5 -33.5z" />
    <glyph glyph-name="A" unicode="A" horiz-adv-x="743" 
d="M1 0l306 710h129l307 -710h-152l-69 162h-303l-68 -162h-150zM371 519l-98 -230h195z" />
    <glyph glyph-name="B" unicode="B" horiz-adv-x="634" 
d="M79 0v710h260q89 0 150 -60.5t61 -145.5q0 -77 -56 -127q105 -52 105 -168q0 -89 -63 -149t-157 -60h-300zM224 133h145q41 0 65 22.5t24 58.5t-24 59t-65 23h-145v-163zM224 419h101q38 0 61 22.5t23 56.5q0 33 -23.5 56.5t-60.5 23.5h-101v-159z" />
    <glyph glyph-name="C" unicode="C" horiz-adv-x="753" 
d="M404 -12q-152 0 -259.5 107.5t-107.5 259.5t107.5 259.5t259.5 107.5q106 0 194 -51.5t134 -137.5l-126 -70q-70 119 -202 119q-92 0 -156.5 -66.5t-64.5 -160.5t64.5 -160.5t156.5 -66.5q132 0 202 119l126 -70q-46 -87 -133 -138t-195 -51z" />
    <glyph glyph-name="D" unicode="D" horiz-adv-x="716" 
d="M79 0v710h234q153 0 259 -103t106 -252t-106 -252t-259 -103h-234zM224 133h89q97 0 158 64t61 158t-61 158t-158 64h-89v-444z" />
    <glyph glyph-name="E" unicode="E" horiz-adv-x="568" 
d="M79 0v710h442v-138h-297v-146h237v-138h-237v-150h297v-138h-442z" />
    <glyph glyph-name="F" unicode="F" horiz-adv-x="542" 
d="M79 0v710h432v-138h-287v-147h225v-138h-225v-287h-145z" />
    <glyph glyph-name="G" unicode="G" horiz-adv-x="763" 
d="M423 -12q-165 0 -275 105.5t-110 261.5q0 154 105.5 260.5t267.5 106.5q176 0 286 -116l-101 -100q-74 76 -185 76q-100 0 -163.5 -66t-63.5 -161q0 -98 65 -162.5t173 -64.5q100 0 149 38v123h-153v136h294v-333q-47 -50 -124.5 -77t-164.5 -27z" />
    <glyph glyph-name="H" unicode="H" horiz-adv-x="756" 
d="M79 0v710h145v-283h308v283h145v-710h-145v289h-308v-289h-145z" />
    <glyph glyph-name="I" unicode="I" horiz-adv-x="303" 
d="M79 0v710h145v-710h-145z" />
    <glyph glyph-name="J" unicode="J" horiz-adv-x="471" 
d="M179 -12q-111 0 -178 69l82 106q40 -40 90 -40q35 0 57 20t22 60v507h145v-516q0 -102 -63 -154t-155 -52z" />
    <glyph glyph-name="K" unicode="K" horiz-adv-x="694" 
d="M531 0l-308 322v-322h-144v710h144v-301l256 301h179l-292 -341l353 -369h-188z" />
    <glyph glyph-name="L" unicode="L" horiz-adv-x="551" 
d="M79 0v710h145v-572h304v-138h-449z" />
    <glyph glyph-name="M" unicode="M" horiz-adv-x="884" 
d="M79 0v710h132l230 -374l231 374h132v-710h-145v433l-169 -275h-96l-170 276v-434h-145z" />
    <glyph glyph-name="N" unicode="N" horiz-adv-x="792" 
d="M713 0h-125l-364 463v-463h-145v710h125l364 -463v463h145v-710z" />
    <glyph glyph-name="O" unicode="O" horiz-adv-x="808" 
d="M404 128q92 0 156.5 66.5t64.5 160.5t-64.5 160.5t-156.5 66.5t-156.5 -66.5t-64.5 -160.5t64.5 -160.5t156.5 -66.5zM404 -12q-152 0 -259.5 107.5t-107.5 259.5t107.5 259.5t259.5 107.5t259.5 -107.5t107.5 -259.5t-107.5 -259.5t-259.5 -107.5z" />
    <glyph glyph-name="P" unicode="P" horiz-adv-x="591" 
d="M564 471q0 -102 -71 -170.5t-178 -68.5h-91v-232h-145v710h236q107 0 178 -68.5t71 -170.5zM423 471q0 45 -30 74t-80 29h-89v-206h89q50 0 80 29t30 74z" />
    <glyph glyph-name="Q" unicode="Q" horiz-adv-x="818" 
d="M404 -12q-152 0 -259.5 107.5t-107.5 259.5t107.5 259.5t259.5 107.5t259.5 -107.5t107.5 -259.5q0 -106 -58 -198l77 -64l-83 -101l-83 69q-98 -73 -220 -73zM404 128q59 0 106 28l-104 87l83 100l111 -93q25 49 25 105q0 94 -64.5 160.5t-156.5 66.5t-156.5 -66.5
t-64.5 -160.5t64.5 -160.5t156.5 -66.5z" />
    <glyph glyph-name="R" unicode="R" horiz-adv-x="656" 
d="M79 0v710h272q97 0 157.5 -60t60.5 -150q0 -140 -146 -185l255 -315h-175l-244 299h-35v-299h-145zM224 423h110q42 0 66.5 20.5t24.5 56.5t-24.5 56.5t-66.5 20.5h-110v-154z" />
    <glyph glyph-name="S" unicode="S" horiz-adv-x="570" 
d="M286 -12q-84 0 -153 33.5t-107 93.5l112 93q26 -39 67 -61.5t86 -22.5q43 0 69.5 19t26.5 50q0 30 -23.5 52t-76.5 40l-60 21q-175 61 -175 203q0 98 67 155.5t173 57.5q134 0 225 -98l-97 -99q-49 61 -126 61q-39 0 -67 -16.5t-28 -46.5q0 -31 24 -49t85 -40l57 -21
q170 -64 169 -211q0 -95 -69 -154.5t-179 -59.5z" />
    <glyph glyph-name="T" unicode="T" horiz-adv-x="568" 
d="M210 0v572h-189v138h526v-138h-191v-572h-146z" />
    <glyph glyph-name="U" unicode="U" horiz-adv-x="720" 
d="M360 -12q-129 0 -209 80t-80 212v430h145v-432q0 -70 39 -110t105 -40t105 40t39 110v432h145v-430q0 -131 -81 -211.5t-208 -80.5z" />
    <glyph glyph-name="V" unicode="V" horiz-adv-x="721" 
d="M296 0l-293 710h157l201 -493l198 493h160l-294 -710h-129z" />
    <glyph glyph-name="W" unicode="W" horiz-adv-x="1020" 
d="M230 0l-221 710h153l137 -472l147 472h127l146 -472l138 472h154l-221 -710h-130l-150 488l-150 -488h-130z" />
    <glyph glyph-name="X" unicode="X" horiz-adv-x="697" 
d="M164 0h-170l267 359l-252 351h168l171 -239l172 239h168l-253 -351l268 -359h-170l-185 246z" />
    <glyph glyph-name="Y" unicode="Y" horiz-adv-x="690" 
d="M272 0v299l-262 411h168l166 -269l167 269h169l-263 -412v-298h-145z" />
    <glyph glyph-name="Z" unicode="Z" horiz-adv-x="618" 
d="M38 0v99l339 473h-333v138h529v-99l-341 -473h348v-138h-542z" />
    <glyph glyph-name="bracketleft" unicode="[" horiz-adv-x="325" 
d="M76 -160v960h221v-100h-105v-760h105v-100h-221z" />
    <glyph glyph-name="backslash" unicode="\" horiz-adv-x="546" 
d="M142 710l386 -820h-124l-386 820h124z" />
    <glyph glyph-name="bracketright" unicode="]" horiz-adv-x="325" 
d="M249 800v-960h-221v100h105v760h-105v100h221z" />
    <glyph glyph-name="asciicircum" unicode="^" horiz-adv-x="347" 
d="M121 500h-80l107 210h52l106 -210h-79l-54 103z" />
    <glyph glyph-name="underscore" unicode="_" horiz-adv-x="515" 
d="M41 -105v105h433v-105h-433z" />
    <glyph glyph-name="grave" unicode="`" 
d="M120 560h-102l-139 170h159z" />
    <glyph glyph-name="a" unicode="a" horiz-adv-x="612" 
d="M281 -11q-108 0 -177.5 76.5t-69.5 184.5t69.5 184.5t177.5 76.5q79 0 128 -47v36h137v-500h-137v37q-48 -48 -128 -48zM301 114q68 0 108 55v163q-40 54 -108 54q-55 0 -90 -39.5t-35 -96.5t35 -96.5t90 -39.5z" />
    <glyph glyph-name="b" unicode="b" horiz-adv-x="613" 
d="M331 -11q-80 0 -128 48v-37h-137v730h137v-266q49 47 128 47q108 0 177.5 -76.5t69.5 -184.5t-69.5 -184.5t-177.5 -76.5zM311 114q56 0 91 39.5t35 96.5t-35 96.5t-91 39.5q-68 0 -108 -54v-163q40 -55 108 -55z" />
    <glyph glyph-name="c" unicode="c" horiz-adv-x="558" 
d="M299 -11q-112 0 -188.5 74.5t-76.5 186.5t76.5 186.5t188.5 74.5q77 0 140.5 -39.5t96.5 -104.5l-119 -64q-16 36 -46.5 58t-71.5 22q-54 0 -90.5 -38t-36.5 -95t36.5 -95t90.5 -38q41 0 71.5 22t46.5 58l119 -64q-33 -65 -96.5 -104.5t-140.5 -39.5z" />
    <glyph glyph-name="d" unicode="d" horiz-adv-x="612" 
d="M281 -11q-108 0 -177.5 76.5t-69.5 184.5t69.5 184.5t177.5 76.5q79 0 128 -47v266h137v-730h-137v37q-48 -48 -128 -48zM301 114q68 0 108 55v163q-40 54 -108 54q-55 0 -90 -39.5t-35 -96.5t35 -96.5t90 -39.5z" />
    <glyph glyph-name="e" unicode="e" horiz-adv-x="578" 
d="M299 -11q-114 0 -189.5 72t-75.5 189q0 112 75 186.5t188 74.5q104 0 175 -64.5t71 -181.5q0 -33 -2 -47h-374q6 -49 43.5 -76.5t89.5 -27.5q88 0 129 63l102 -76q-77 -112 -232 -112zM172 311h234q-9 43 -40.5 65t-72.5 22q-42 0 -77 -22t-44 -65z" />
    <glyph glyph-name="f" unicode="f" horiz-adv-x="454" 
d="M135 0v380h-119v120h119v38q0 85 50.5 141.5t143.5 56.5q72 0 128 -29l-50 -112q-32 17 -61 17q-34 0 -54 -20.5t-20 -54.5v-37h168v-120h-168v-380h-137z" />
    <glyph glyph-name="g" unicode="g" horiz-adv-x="616" 
d="M288 -204q-139 0 -221 70l75 102q62 -52 144 -52q50 0 88.5 28.5t38.5 82.5v31q-48 -48 -129 -48q-108 0 -179 72t-71 178t71.5 178.5t178.5 72.5q80 0 129 -47v36h137v-472q0 -63 -22.5 -110t-61.5 -72.5t-83.5 -37.5t-94.5 -12zM305 134q68 0 108 56v142
q-40 54 -108 54q-57 0 -93 -35t-36 -91q0 -55 36.5 -90.5t92.5 -35.5z" />
    <glyph glyph-name="h" unicode="h" horiz-adv-x="599" 
d="M203 0h-137v730h137v-272q48 53 136 53q93 0 146.5 -60.5t53.5 -160.5v-290h-137v267q0 56 -23.5 87.5t-69.5 31.5q-70 0 -106 -57v-329z" />
    <glyph glyph-name="i" unicode="i" horiz-adv-x="269" 
d="M134 562q-35 0 -61 25.5t-26 61.5t26 61.5t61 25.5q37 0 62.5 -25.5t25.5 -61.5t-25.5 -61.5t-62.5 -25.5zM66 0v500h137v-500h-137z" />
    <glyph glyph-name="j" unicode="j" horiz-adv-x="277" 
d="M27 -199q-31 0 -64.5 7t-48.5 15l31 112q31 -15 64 -15q65 0 65 84v496h137v-518q0 -88 -51.5 -134.5t-132.5 -46.5zM142 562q-35 0 -61 25.5t-26 61.5t26 61.5t61 25.5q37 0 62.5 -25.5t25.5 -61.5t-25.5 -61.5t-62.5 -25.5z" />
    <glyph glyph-name="k" unicode="k" horiz-adv-x="556" 
d="M407 0l-204 230v-230h-137v730h137v-414l162 184h165l-198 -225l244 -275h-169z" />
    <glyph glyph-name="l" unicode="l" horiz-adv-x="269" 
d="M66 0v730h137v-730h-137z" />
    <glyph glyph-name="m" unicode="m" horiz-adv-x="893" 
d="M696 0v264q0 121 -86 121q-65 0 -96 -59q4 -17 4 -38v-288h-137v264q0 121 -86 121q-29 0 -54 -14.5t-38 -38.5v-332h-137v500h137v-39q44 50 122 50q85 0 141 -66q57 66 163 66q101 0 152.5 -62t51.5 -161v-288h-137z" />
    <glyph glyph-name="n" unicode="n" horiz-adv-x="599" 
d="M66 0v500h137v-42q48 53 136 53q93 0 146.5 -60.5t53.5 -160.5v-290h-137v267q0 56 -23.5 87.5t-69.5 31.5q-70 0 -106 -57v-329h-137z" />
    <glyph glyph-name="o" unicode="o" horiz-adv-x="592" 
d="M296 -11q-109 0 -186 75.5t-77 185.5q0 109 77 185t186 76t186 -76t77 -185q0 -110 -77 -185.5t-186 -75.5zM296 117q53 0 88.5 37.5t35.5 95.5t-35.5 95.5t-88.5 37.5q-54 0 -89.5 -37.5t-35.5 -95.5t35.5 -95.5t89.5 -37.5z" />
    <glyph glyph-name="p" unicode="p" horiz-adv-x="613" 
d="M66 -194v694h137v-36q49 47 128 47q108 0 177.5 -76.5t69.5 -184.5t-69.5 -184.5t-177.5 -76.5q-80 0 -128 48v-231h-137zM311 114q56 0 91 39.5t35 96.5t-35 96.5t-91 39.5q-68 0 -108 -54v-163q40 -55 108 -55z" />
    <glyph glyph-name="q" unicode="q" horiz-adv-x="612" 
d="M409 -194v231q-48 -48 -128 -48q-108 0 -177.5 76.5t-69.5 184.5t69.5 184.5t177.5 76.5q79 0 128 -47v36h137v-694h-137zM301 114q68 0 108 55v163q-40 54 -108 54q-55 0 -90 -39.5t-35 -96.5t35 -96.5t90 -39.5z" />
    <glyph glyph-name="r" unicode="r" horiz-adv-x="387" 
d="M66 0v500h137v-60q13 28 45.5 47t70.5 19q33 0 58 -9l-21 -129q-14 6 -42 6q-77 0 -111 -56v-318h-137z" />
    <glyph glyph-name="s" unicode="s" horiz-adv-x="459" 
d="M234 -11q-142 0 -206 96l94 80q36 -58 112 -58q23 0 39 9t16 27q0 16 -13.5 26.5t-53.5 21.5l-37 9q-69 18 -104.5 60t-33.5 100q2 68 54.5 109.5t133.5 41.5q115 0 173 -84l-90 -73q-35 44 -85 44q-20 0 -35 -9t-15 -25q0 -30 49 -43l47 -14q145 -39 145 -155
q0 -71 -54 -117t-136 -46z" />
    <glyph glyph-name="t" unicode="t" horiz-adv-x="464" 
d="M329 -6q-88 0 -141 46t-53 135v205h-121v120h121v150h137v-150h151v-120h-151v-178q0 -45 18.5 -64.5t57.5 -19.5q37 0 69 17l41 -112q-54 -29 -129 -29z" />
    <glyph glyph-name="u" unicode="u" horiz-adv-x="588" 
d="M522 500v-500h-137v40q-49 -51 -123 -51q-95 0 -148.5 60.5t-53.5 160.5v290h137v-267q0 -119 94 -119q57 0 94 57v329h137z" />
    <glyph glyph-name="v" unicode="v" horiz-adv-x="570" 
d="M222 0l-221 500h151l132 -320l132 320h153l-222 -500h-125z" />
    <glyph glyph-name="w" unicode="w" horiz-adv-x="800" 
d="M494 0l-94 284l-93 -284h-136l-166 500h146l95 -320l101 320h105l102 -320l94 320h147l-165 -500h-136z" />
    <glyph glyph-name="x" unicode="x" horiz-adv-x="567" 
d="M400 0l-116 147l-116 -147h-165l194 245l-189 255h162l113 -153l113 153h163l-189 -255l194 -245h-164z" />
    <glyph glyph-name="y" unicode="y" horiz-adv-x="570" 
d="M263 -194h-149l98 222l-210 472h150l134 -324l133 324h151z" />
    <glyph glyph-name="z" unicode="z" horiz-adv-x="498" 
d="M41 0v107l234 269h-231v124h408v-108l-234 -268h242v-124h-419z" />
    <glyph glyph-name="braceleft" unicode="{" horiz-adv-x="340" 
d="M313 -160h-82q-66 0 -103 38t-37 104v229q0 59 -54 59h-9v100h9q54 0 54 57v231q0 66 37 104t103 38h82v-100h-48q-32 0 -44.5 -14t-12.5 -47v-218q0 -83 -61 -101q61 -18 61 -103v-216q0 -33 12.5 -47t44.5 -14h48v-100z" />
    <glyph glyph-name="bar" unicode="|" horiz-adv-x="267" 
d="M75 -110v820h116v-820h-116z" />
    <glyph glyph-name="braceright" unicode="}" horiz-adv-x="340" 
d="M109 -160h-82v100h48q32 0 44.5 14t12.5 47v216q0 85 61 103q-61 18 -61 101v218q0 33 -12.5 47t-44.5 14h-48v100h82q66 0 103 -38t37 -104v-231q0 -57 54 -57h9v-100h-9q-54 0 -54 -59v-229q0 -66 -37 -104t-103 -38z" />
    <glyph glyph-name="asciitilde" unicode="~" horiz-adv-x="346" 
d="M59 230l55 119h46l38 -46l21 46h72l-55 -119h-46l-39 46l-21 -46h-71z" />
    <glyph glyph-name="uni00A0" unicode="&#xa0;" horiz-adv-x="228" 
 />
    <glyph glyph-name="exclamdown" unicode="&#xa1;" horiz-adv-x="276" 
d="M180 261l27 -187v-268h-138v268l26 187h85zM221 333h-167v167h167v-167z" />
    <glyph glyph-name="cent" unicode="&#xa2;" horiz-adv-x="571" 
d="M272 -88v79q-101 10 -168 82.5t-67 176.5t67 176.5t168 82.5v79h54v-78q69 -6 126 -44.5t87 -98.5l-119 -64q-29 66 -94 78v-262q65 12 94 78l119 -64q-30 -60 -87 -98.5t-126 -44.5v-78h-54zM175 250q0 -49 26.5 -83.5t70.5 -46.5v259q-43 -10 -70 -44.5t-27 -84.5z" />
    <glyph glyph-name="sterling" unicode="&#xa3;" horiz-adv-x="582" 
d="M46 330v56h71q-24 74 -24 122q0 97 63.5 155.5t165.5 58.5q77 0 133 -35.5t87 -95.5l-108 -75q-39 71 -109 71q-43 0 -69 -22t-26 -67q0 -39 28 -112h171v-56h-152q17 -48 17 -100q0 -48 -27 -95h279v-135h-500v135h89q23 44 23 91q0 35 -21 104h-91z" />
    <glyph glyph-name="yen" unicode="&#xa5;" horiz-adv-x="722" 
d="M77 298v57h178l-230 355h167l168 -274l169 274h167l-230 -355h178v-57h-215v-75h215v-57h-215v-166h-137v166h-215v57h215v75h-215z" />
    <glyph glyph-name="brokenbar" unicode="&#xa6;" horiz-adv-x="267" 
d="M75 -110v347h116v-347h-116zM75 363v347h116v-347h-116z" />
    <glyph glyph-name="section" unicode="&#xa7;" horiz-adv-x="454" 
d="M236 -219q-72 0 -124.5 41t-58.5 126h116q10 -67 67 -67q22 0 38.5 14.5t15.5 41.5q0 30 -16.5 55.5t-63.5 52.5l-56 34q-105 63 -105 164q0 95 81 165q-81 64 -81 157q0 72 46.5 114.5t117.5 42.5t122 -41t57 -126h-116q-10 67 -59 67q-23 0 -37.5 -14t-14.5 -42
q0 -29 15 -48.5t63 -49.5l57 -34q106 -64 106 -164q0 -95 -82 -166q42 -33 62 -79t20 -87q0 -72 -49 -114.5t-121 -42.5zM164 258q0 -34 15.5 -53.5t48.5 -39.5l4 -3q59 46 59 93q0 33 -16 52.5t-49 40.5l-3 2q-59 -41 -59 -92z" />
    <glyph glyph-name="dieresis" unicode="&#xa8;" 
d="M-117 569q-32 0 -54 22t-22 52q0 32 22 54.5t54 22.5q31 0 53 -22.5t22 -54.5q0 -30 -22 -52t-53 -22zM118 569q-32 0 -54 22t-22 52q0 32 22 54.5t54 22.5q31 0 53 -22.5t22 -54.5q0 -30 -22 -52t-53 -22z" />
    <glyph glyph-name="copyright" unicode="&#xa9;" horiz-adv-x="807" 
d="M403 72q117 0 200 83t83 200t-83 200t-200 83q-116 0 -199 -83t-83 -200t83 -200t199 -83zM403 -12q-151 0 -258.5 108t-107.5 259t107.5 259t258.5 108t259 -108t108 -259t-108 -259t-259 -108zM405 163q-80 0 -136.5 56t-56.5 136q0 79 56.5 135.5t136.5 56.5
q57 0 103.5 -27.5t70.5 -74.5l-75 -40q-33 61 -99 61q-45 0 -76.5 -33t-31.5 -78t31.5 -78t76.5 -33q66 0 99 60l75 -39q-24 -47 -70.5 -74.5t-103.5 -27.5z" />
    <glyph glyph-name="ordfeminine" unicode="&#xaa;" horiz-adv-x="403" 
d="M180 403q-64 0 -105 46.5t-41 110.5t41 110.5t105 46.5q38 0 67 -23v16h97v-300h-97v17q-28 -24 -67 -24zM196 491q31 0 51 25v88q-20 25 -51 25q-27 0 -44 -20t-17 -49t17 -49t44 -20z" />
    <glyph glyph-name="guillemotleft" unicode="&#xab;" horiz-adv-x="514" 
d="M378 250l95 -178l-87 -56l-152 234l152 234l87 -56zM175 250l95 -178l-87 -56l-152 234l152 234l87 -56z" />
    <glyph glyph-name="uni00AD" unicode="&#xad;" horiz-adv-x="400" 
d="M57 214v132h286v-132h-286z" />
    <glyph glyph-name="registered" unicode="&#xae;" horiz-adv-x="807" 
d="M403 -12q-151 0 -258.5 108t-107.5 259t107.5 259t258.5 108t259 -108t108 -259t-108 -259t-259 -108zM403 72q117 0 200 83t83 200t-83 200t-200 83q-116 0 -199 -83t-83 -200t83 -200t199 -83zM279 169v371h147q53 0 84 -31.5t31 -80.5q0 -70 -73 -95l132 -164h-100
l-124 153h-13v-153h-84zM363 393h53q18 0 30 9.5t12 25.5q0 17 -11.5 26t-30.5 9h-53v-70z" />
    <glyph glyph-name="macron" unicode="&#xaf;" 
d="M-171 613v97h342v-97h-342z" />
    <glyph glyph-name="degree" unicode="&#xb0;" horiz-adv-x="374" 
d="M188 498q26 0 44 18t18 44t-18 44t-44 18q-27 0 -45 -18t-18 -44t18 -44t45 -18zM188 406q-64 0 -109 45t-45 109t45 109t109 45q63 0 108 -45t45 -109t-45 -109t-108 -45z" />
    <glyph glyph-name="twosuperior" unicode="&#xb2;" horiz-adv-x="355" 
d="M28 410v86l169 164q29 27 29 53q0 17 -11.5 28.5t-31.5 11.5q-45 0 -65 -55l-94 24q15 60 58 93.5t103 33.5t99 -33.5t39 -97.5q0 -43 -17.5 -74t-51.5 -63l-79 -76h152v-95h-299z" />
    <glyph glyph-name="threesuperior" unicode="&#xb3;" horiz-adv-x="353" 
d="M174 402q-54 0 -100 31t-59 81l93 37q18 -52 69 -52q24 0 39 13t15 36t-17.5 37.5t-45.5 14.5h-58v81l70 66h-141v95h264v-83l-85 -81q53 -9 81.5 -44.5t28.5 -87.5q0 -65 -42.5 -104.5t-111.5 -39.5z" />
    <glyph glyph-name="acute" unicode="&#xb4;" 
d="M-121 560l82 170h159l-139 -170h-102z" />
    <glyph glyph-name="paragraph" unicode="&#xb6;" horiz-adv-x="664" 
d="M251 -184v444q-93 0 -159 66t-66 159t66 159t159 66h323v-894h-116v774h-90v-774h-117z" />
    <glyph glyph-name="periodcentered" unicode="&#xb7;" horiz-adv-x="281" 
d="M223 188h-167v167h167v-167z" />
    <glyph glyph-name="cedilla" unicode="&#xb8;" 
d="M-117 -188l14 61q31 -16 68 -16q51 0 51 28q0 25 -34 25q-24 0 -43 -12l-35 20l51 85h62l-29 -48q14 11 45 11q34 0 57.5 -21t23.5 -54q0 -43 -39.5 -69t-94.5 -26q-59 0 -97 16z" />
    <glyph glyph-name="onesuperior" unicode="&#xb9;" horiz-adv-x="241" 
d="M98 410v337h-83v95h179v-432h-96z" />
    <glyph glyph-name="ordmasculine" unicode="&#xba;" horiz-adv-x="381" 
d="M190 403q-64 0 -110.5 45.5t-46.5 111.5t46.5 111.5t110.5 45.5q65 0 111.5 -45.5t46.5 -111.5t-46.5 -111.5t-111.5 -45.5zM190 494q26 0 43.5 18.5t17.5 47.5t-17.5 47.5t-43.5 18.5q-25 0 -42.5 -18.5t-17.5 -47.5t17.5 -47.5t42.5 -18.5z" />
    <glyph glyph-name="guillemotright" unicode="&#xbb;" horiz-adv-x="514" 
d="M244 72l95 178l-95 178l87 56l152 -234l-152 -234zM41 72l95 178l-95 178l87 56l152 -234l-152 -234z" />
    <glyph glyph-name="onequarter" unicode="&#xbc;" horiz-adv-x="823" 
d="M98 278v337h-83v95h179v-432h-96zM179 0h-118l500 710h118zM651 1v90h-208v79l218 263h88v-253h55v-89h-55v-90h-98zM561 180h90v108z" />
    <glyph glyph-name="onehalf" unicode="&#xbd;" horiz-adv-x="812" 
d="M98 278v337h-83v95h179v-432h-96zM179 0h-118l500 710h118zM485 1v86l169 164q29 27 29 53q0 17 -11.5 28.5t-31.5 11.5q-45 0 -65 -55l-94 24q15 60 58 93.5t103 33.5t99 -33.5t39 -97.5q0 -43 -17.5 -74t-51.5 -63l-79 -76h152v-95h-299z" />
    <glyph glyph-name="threequarters" unicode="&#xbe;" horiz-adv-x="898" 
d="M174 270q-54 0 -100 31t-59 81l93 37q18 -52 69 -52q24 0 39 13t15 36t-17.5 37.5t-45.5 14.5h-58v81l70 66h-141v95h264v-83l-85 -81q53 -9 81.5 -44.5t28.5 -87.5q0 -65 -42.5 -104.5t-111.5 -39.5zM254 0h-118l500 710h118zM726 1v90h-208v79l218 263h88v-253h55v-89
h-55v-90h-98zM636 180h90v108z" />
    <glyph glyph-name="questiondown" unicode="&#xbf;" horiz-adv-x="535" 
d="M266 -204q-95 0 -158.5 60.5t-63.5 142.5q0 57 21 98t69 77q7 5 20.5 14.5t19 13.5t15 11.5t13.5 12t9 10.5t6.5 11t1.5 11v3h137v-19q0 -42 -21.5 -73t-64.5 -61q-6 -4 -26 -17.5t-26 -18.5t-17.5 -16.5t-15.5 -23t-4 -25.5q0 -34 25.5 -55t62.5 -21q85 0 136 77
l109 -73q-32 -58 -98.5 -98.5t-149.5 -40.5zM370 333h-167v167h167v-167z" />
    <glyph glyph-name="Agrave" unicode="&#xc0;" horiz-adv-x="743" 
d="M1 0l306 710h129l307 -710h-152l-69 162h-303l-68 -162h-150zM371 519l-98 -230h195zM421 768h-102l-123 137h153z" />
    <glyph glyph-name="Aacute" unicode="&#xc1;" horiz-adv-x="743" 
d="M1 0l306 710h129l307 -710h-152l-69 162h-303l-68 -162h-150zM371 519l-98 -230h195zM323 768l72 137h153l-123 -137h-102z" />
    <glyph glyph-name="Acircumflex" unicode="&#xc2;" horiz-adv-x="743" 
d="M1 0l306 710h129l307 -710h-152l-69 162h-303l-68 -162h-150zM371 519l-98 -230h195zM191 768l117 137h128l117 -137h-125l-56 56l-56 -56h-125z" />
    <glyph glyph-name="Atilde" unicode="&#xc3;" horiz-adv-x="743" 
d="M1 0l306 710h129l307 -710h-152l-69 162h-303l-68 -162h-150zM371 519l-98 -230h195zM183 778l4 26q8 52 41.5 82t76.5 30q34 0 77 -23t55 -23q19 0 28.5 11t15.5 36h79l-4 -26q-8 -52 -41.5 -82t-76.5 -30q-34 0 -77 23t-55 23q-19 0 -28.5 -11t-15.5 -36h-79z" />
    <glyph glyph-name="Adieresis" unicode="&#xc4;" horiz-adv-x="743" 
d="M1 0l306 710h129l307 -710h-152l-69 162h-303l-68 -162h-150zM371 519l-98 -230h195zM255 772q-32 0 -54 22t-22 53q0 32 22 54t54 22q31 0 53 -22t22 -54q0 -31 -22 -53t-53 -22zM490 772q-32 0 -54 22t-22 53q0 32 22 54t54 22q31 0 53 -22t22 -54q0 -31 -22 -53
t-53 -22z" />
    <glyph glyph-name="Aring" unicode="&#xc5;" horiz-adv-x="743" 
d="M1 0l306 710h129l307 -710h-152l-69 162h-303l-68 -162h-150zM371 519l-98 -230h195zM373 753q-50 0 -86 35.5t-36 84.5t36 84.5t86 35.5t86 -35.5t36 -84.5t-36 -84.5t-86 -35.5zM373 815q25 0 42 17t17 41t-17 41t-42 17t-42 -17t-17 -41t17 -41t42 -17z" />
    <glyph glyph-name="AE" unicode="&#xc6;" horiz-adv-x="941" 
d="M452 0v162h-231l-90 -162h-158l401 710h520v-138h-297v-146h237v-138h-237v-150h297v-138h-442zM450 572l-158 -283h160v283h-2z" />
    <glyph glyph-name="Ccedilla" unicode="&#xc7;" horiz-adv-x="753" 
d="M404 -12q-152 0 -259.5 107.5t-107.5 259.5t107.5 259.5t259.5 107.5q106 0 194 -51.5t134 -137.5l-126 -70q-70 119 -202 119q-92 0 -156.5 -66.5t-64.5 -160.5t64.5 -160.5t156.5 -66.5q132 0 202 119l126 -70q-46 -87 -133 -138t-195 -51zM288 -188l14 61
q31 -16 68 -16q51 0 51 28q0 25 -34 25q-24 0 -43 -12l-35 20l51 85h62l-29 -48q14 11 45 11q34 0 57.5 -21t23.5 -54q0 -43 -39.5 -69t-94.5 -26q-59 0 -97 16z" />
    <glyph glyph-name="Egrave" unicode="&#xc8;" horiz-adv-x="568" 
d="M79 0v710h442v-138h-297v-146h237v-138h-237v-150h297v-138h-442zM348 768h-102l-123 137h153z" />
    <glyph glyph-name="Eacute" unicode="&#xc9;" horiz-adv-x="568" 
d="M79 0v710h442v-138h-297v-146h237v-138h-237v-150h297v-138h-442zM250 768l72 137h153l-123 -137h-102z" />
    <glyph glyph-name="Ecircumflex" unicode="&#xca;" horiz-adv-x="568" 
d="M79 0v710h442v-138h-297v-146h237v-138h-237v-150h297v-138h-442zM118 768l117 137h128l117 -137h-125l-56 56l-56 -56h-125z" />
    <glyph glyph-name="Edieresis" unicode="&#xcb;" horiz-adv-x="568" 
d="M79 0v710h442v-138h-297v-146h237v-138h-237v-150h297v-138h-442zM182 772q-32 0 -54 22t-22 53q0 32 22 54t54 22q31 0 53 -22t22 -54q0 -31 -22 -53t-53 -22zM417 772q-32 0 -54 22t-22 53q0 32 22 54t54 22q31 0 53 -22t22 -54q0 -31 -22 -53t-53 -22z" />
    <glyph glyph-name="Igrave" unicode="&#xcc;" horiz-adv-x="303" 
d="M79 0v710h145v-710h-145zM201 768h-102l-123 137h153z" />
    <glyph glyph-name="Iacute" unicode="&#xcd;" horiz-adv-x="303" 
d="M79 0v710h145v-710h-145zM103 768l72 137h153l-123 -137h-102z" />
    <glyph glyph-name="Icircumflex" unicode="&#xce;" horiz-adv-x="303" 
d="M79 0v710h145v-710h-145zM-29 768l117 137h128l117 -137h-125l-56 56l-56 -56h-125z" />
    <glyph glyph-name="Idieresis" unicode="&#xcf;" horiz-adv-x="303" 
d="M79 0v710h145v-710h-145zM35 772q-32 0 -54 22t-22 53q0 32 22 54t54 22q31 0 53 -22t22 -54q0 -31 -22 -53t-53 -22zM270 772q-32 0 -54 22t-22 53q0 32 22 54t54 22q31 0 53 -22t22 -54q0 -31 -22 -53t-53 -22z" />
    <glyph glyph-name="Eth" unicode="&#xd0;" horiz-adv-x="731" 
d="M94 0v710h234q153 0 259 -103t106 -252t-106 -252t-259 -103h-234zM239 133h89q97 0 158 64t61 158t-61 158t-158 64h-89v-444zM22 295v126h345v-126h-345z" />
    <glyph glyph-name="Ntilde" unicode="&#xd1;" horiz-adv-x="792" 
d="M713 0h-125l-364 463v-463h-145v710h125l364 -463v463h145v-710zM206 778l4 26q8 52 41.5 82t76.5 30q34 0 77 -23t55 -23q19 0 28.5 11t15.5 36h79l-4 -26q-8 -52 -41.5 -82t-76.5 -30q-34 0 -77 23t-55 23q-19 0 -28.5 -11t-15.5 -36h-79z" />
    <glyph glyph-name="Ograve" unicode="&#xd2;" horiz-adv-x="808" 
d="M404 128q92 0 156.5 66.5t64.5 160.5t-64.5 160.5t-156.5 66.5t-156.5 -66.5t-64.5 -160.5t64.5 -160.5t156.5 -66.5zM404 -12q-152 0 -259.5 107.5t-107.5 259.5t107.5 259.5t259.5 107.5t259.5 -107.5t107.5 -259.5t-107.5 -259.5t-259.5 -107.5zM453 768h-102
l-123 137h153z" />
    <glyph glyph-name="Oacute" unicode="&#xd3;" horiz-adv-x="808" 
d="M404 128q92 0 156.5 66.5t64.5 160.5t-64.5 160.5t-156.5 66.5t-156.5 -66.5t-64.5 -160.5t64.5 -160.5t156.5 -66.5zM404 -12q-152 0 -259.5 107.5t-107.5 259.5t107.5 259.5t259.5 107.5t259.5 -107.5t107.5 -259.5t-107.5 -259.5t-259.5 -107.5zM355 768l72 137h153
l-123 -137h-102z" />
    <glyph glyph-name="Ocircumflex" unicode="&#xd4;" horiz-adv-x="808" 
d="M404 128q92 0 156.5 66.5t64.5 160.5t-64.5 160.5t-156.5 66.5t-156.5 -66.5t-64.5 -160.5t64.5 -160.5t156.5 -66.5zM404 -12q-152 0 -259.5 107.5t-107.5 259.5t107.5 259.5t259.5 107.5t259.5 -107.5t107.5 -259.5t-107.5 -259.5t-259.5 -107.5zM223 768l117 137h128
l117 -137h-125l-56 56l-56 -56h-125z" />
    <glyph glyph-name="Otilde" unicode="&#xd5;" horiz-adv-x="808" 
d="M404 128q92 0 156.5 66.5t64.5 160.5t-64.5 160.5t-156.5 66.5t-156.5 -66.5t-64.5 -160.5t64.5 -160.5t156.5 -66.5zM404 -12q-152 0 -259.5 107.5t-107.5 259.5t107.5 259.5t259.5 107.5t259.5 -107.5t107.5 -259.5t-107.5 -259.5t-259.5 -107.5zM215 778l4 26
q8 52 41.5 82t76.5 30q34 0 77 -23t55 -23q19 0 28.5 11t15.5 36h79l-4 -26q-8 -52 -41.5 -82t-76.5 -30q-34 0 -77 23t-55 23q-19 0 -28.5 -11t-15.5 -36h-79z" />
    <glyph glyph-name="Odieresis" unicode="&#xd6;" horiz-adv-x="808" 
d="M404 128q92 0 156.5 66.5t64.5 160.5t-64.5 160.5t-156.5 66.5t-156.5 -66.5t-64.5 -160.5t64.5 -160.5t156.5 -66.5zM404 -12q-152 0 -259.5 107.5t-107.5 259.5t107.5 259.5t259.5 107.5t259.5 -107.5t107.5 -259.5t-107.5 -259.5t-259.5 -107.5zM287 772q-32 0 -54 22
t-22 53q0 32 22 54t54 22q31 0 53 -22t22 -54q0 -31 -22 -53t-53 -22zM522 772q-32 0 -54 22t-22 53q0 32 22 54t54 22q31 0 53 -22t22 -54q0 -31 -22 -53t-53 -22z" />
    <glyph glyph-name="multiply" unicode="&#xd7;" horiz-adv-x="506" 
d="M126 78l-84 84l127 127l-127 127l84 84l127 -126l128 126l83 -84l-126 -127l126 -127l-83 -84l-128 126z" />
    <glyph glyph-name="Oslash" unicode="&#xd8;" horiz-adv-x="814" 
d="M407 128q92 0 156.5 66.5t64.5 160.5t-64.5 160.5t-156.5 66.5t-156.5 -66.5t-64.5 -160.5t64.5 -160.5t156.5 -66.5zM407 -12q-152 0 -259.5 107.5t-107.5 259.5t107.5 259.5t259.5 107.5t259.5 -107.5t107.5 -259.5t-107.5 -259.5t-259.5 -107.5zM773 647l-650 -665
l-81 81l649 665z" />
    <glyph glyph-name="Ugrave" unicode="&#xd9;" horiz-adv-x="720" 
d="M360 -12q-129 0 -209 80t-80 212v430h145v-432q0 -70 39 -110t105 -40t105 40t39 110v432h145v-430q0 -131 -81 -211.5t-208 -80.5zM409 768h-102l-123 137h153z" />
    <glyph glyph-name="Uacute" unicode="&#xda;" horiz-adv-x="720" 
d="M360 -12q-129 0 -209 80t-80 212v430h145v-432q0 -70 39 -110t105 -40t105 40t39 110v432h145v-430q0 -131 -81 -211.5t-208 -80.5zM311 768l72 137h153l-123 -137h-102z" />
    <glyph glyph-name="Ucircumflex" unicode="&#xdb;" horiz-adv-x="720" 
d="M360 -12q-129 0 -209 80t-80 212v430h145v-432q0 -70 39 -110t105 -40t105 40t39 110v432h145v-430q0 -131 -81 -211.5t-208 -80.5zM179 768l117 137h128l117 -137h-125l-56 56l-56 -56h-125z" />
    <glyph glyph-name="Udieresis" unicode="&#xdc;" horiz-adv-x="720" 
d="M360 -12q-129 0 -209 80t-80 212v430h145v-432q0 -70 39 -110t105 -40t105 40t39 110v432h145v-430q0 -131 -81 -211.5t-208 -80.5zM243 772q-32 0 -54 22t-22 53q0 32 22 54t54 22q31 0 53 -22t22 -54q0 -31 -22 -53t-53 -22zM478 772q-32 0 -54 22t-22 53q0 32 22 54
t54 22q31 0 53 -22t22 -54q0 -31 -22 -53t-53 -22z" />
    <glyph glyph-name="Yacute" unicode="&#xdd;" horiz-adv-x="690" 
d="M272 0v299l-262 411h168l166 -269l167 269h169l-263 -412v-298h-145zM296 768l72 137h153l-123 -137h-102z" />
    <glyph glyph-name="Thorn" unicode="&#xde;" horiz-adv-x="597" 
d="M564 355q0 -102 -71 -170.5t-178 -68.5h-91v-116h-145v710h145v-116h91q107 0 178 -68.5t71 -170.5zM423 355q0 45 -30 74t-80 29h-89v-206h89q50 0 80 29t30 74z" />
    <glyph glyph-name="germandbls" unicode="&#xdf;" horiz-adv-x="586" 
d="M66 0v510q0 102 67.5 164t163.5 62q94 0 159.5 -57t65.5 -145q0 -87 -74 -150q49 -28 76.5 -73t27.5 -92q0 -96 -68.5 -157.5t-169.5 -61.5h-38v124h31q47 0 77.5 27t30.5 69t-30.5 69t-77.5 27h-30v124h16q42 0 67 24t25 62t-24.5 62t-64.5 24t-67 -28.5t-27 -72.5v-511
h-136z" />
    <glyph glyph-name="agrave" unicode="&#xe0;" horiz-adv-x="612" 
d="M281 -11q-108 0 -177.5 76.5t-69.5 184.5t69.5 184.5t177.5 76.5q79 0 128 -47v36h137v-500h-137v37q-48 -48 -128 -48zM301 114q68 0 108 55v163q-40 54 -108 54q-55 0 -90 -39.5t-35 -96.5t35 -96.5t90 -39.5zM389 560h-102l-139 170h159z" />
    <glyph glyph-name="aacute" unicode="&#xe1;" horiz-adv-x="612" 
d="M281 -11q-108 0 -177.5 76.5t-69.5 184.5t69.5 184.5t177.5 76.5q79 0 128 -47v36h137v-500h-137v37q-48 -48 -128 -48zM301 114q68 0 108 55v163q-40 54 -108 54q-55 0 -90 -39.5t-35 -96.5t35 -96.5t90 -39.5zM280 560l82 170h159l-139 -170h-102z" />
    <glyph glyph-name="acircumflex" unicode="&#xe2;" horiz-adv-x="612" 
d="M281 -11q-108 0 -177.5 76.5t-69.5 184.5t69.5 184.5t177.5 76.5q79 0 128 -47v36h137v-500h-137v37q-48 -48 -128 -48zM301 114q68 0 108 55v163q-40 54 -108 54q-55 0 -90 -39.5t-35 -96.5t35 -96.5t90 -39.5zM148 578l127 152h118l127 -152h-121l-65 67l-65 -67h-121z
" />
    <glyph glyph-name="atilde" unicode="&#xe3;" horiz-adv-x="612" 
d="M281 -11q-108 0 -177.5 76.5t-69.5 184.5t69.5 184.5t177.5 76.5q79 0 128 -47v36h137v-500h-137v37q-48 -48 -128 -48zM301 114q68 0 108 55v163q-40 54 -108 54q-55 0 -90 -39.5t-35 -96.5t35 -96.5t90 -39.5zM145 571l4 26q8 52 41.5 82t76.5 30q34 0 77 -23t55 -23
q19 0 28.5 11t15.5 36h79l-4 -26q-8 -52 -41.5 -82t-76.5 -30q-34 0 -77 23t-55 23q-19 0 -28.5 -11t-15.5 -36h-79z" />
    <glyph glyph-name="adieresis" unicode="&#xe4;" horiz-adv-x="612" 
d="M281 -11q-108 0 -177.5 76.5t-69.5 184.5t69.5 184.5t177.5 76.5q79 0 128 -47v36h137v-500h-137v37q-48 -48 -128 -48zM301 114q68 0 108 55v163q-40 54 -108 54q-55 0 -90 -39.5t-35 -96.5t35 -96.5t90 -39.5zM217 569q-32 0 -54 22t-22 52q0 32 22 54.5t54 22.5
q31 0 53 -22.5t22 -54.5q0 -30 -22 -52t-53 -22zM452 569q-32 0 -54 22t-22 52q0 32 22 54.5t54 22.5q31 0 53 -22.5t22 -54.5q0 -30 -22 -52t-53 -22z" />
    <glyph glyph-name="aring" unicode="&#xe5;" horiz-adv-x="612" 
d="M281 -11q-108 0 -177.5 76.5t-69.5 184.5t69.5 184.5t177.5 76.5q79 0 128 -47v36h137v-500h-137v37q-48 -48 -128 -48zM301 114q68 0 108 55v163q-40 54 -108 54q-55 0 -90 -39.5t-35 -96.5t35 -96.5t90 -39.5zM334 542q-50 0 -86 35.5t-36 85.5q0 49 36 84.5t86 35.5
t86 -35.5t36 -84.5q0 -50 -36 -85.5t-86 -35.5zM334 605q25 0 42 17t17 41t-17 41t-42 17q-24 0 -41.5 -17t-17.5 -41t17.5 -41t41.5 -17z" />
    <glyph glyph-name="ae" unicode="&#xe6;" horiz-adv-x="892" 
d="M230 -8q-90 0 -145 42t-55 122q0 71 55 112.5t140 41.5q67 0 122 -29v16q-6 45 -39 66.5t-81 21.5q-62 0 -121 -38l-33 126q78 38 162 38q121 0 191 -80q74 80 193 80q98 0 168.5 -65t70.5 -181q0 -26 -3 -47h-373q6 -49 43 -76.5t90 -27.5q90 0 128 63l103 -76
q-36 -52 -94.5 -82t-126.5 -30q-118 0 -194 78q-79 -75 -201 -75zM240 107q77 0 107 42v37q-46 28 -105 28q-79 0 -79 -54q0 -28 23 -40.5t54 -12.5zM607 398q-42 0 -77 -22t-44 -65h235q-9 43 -41 65t-73 22z" />
    <glyph glyph-name="ccedilla" unicode="&#xe7;" horiz-adv-x="558" 
d="M299 -11q-112 0 -188.5 74.5t-76.5 186.5t76.5 186.5t188.5 74.5q77 0 140.5 -39.5t96.5 -104.5l-119 -64q-16 36 -46.5 58t-71.5 22q-54 0 -90.5 -38t-36.5 -95t36.5 -95t90.5 -38q41 0 71.5 22t46.5 58l119 -64q-33 -65 -96.5 -104.5t-140.5 -39.5zM183 -188l14 61
q31 -16 68 -16q51 0 51 28q0 25 -34 25q-24 0 -43 -12l-35 20l51 85h62l-29 -48q14 11 45 11q34 0 57.5 -21t23.5 -54q0 -43 -39.5 -69t-94.5 -26q-59 0 -97 16z" />
    <glyph glyph-name="egrave" unicode="&#xe8;" horiz-adv-x="578" 
d="M299 -11q-114 0 -189.5 72t-75.5 189q0 112 75 186.5t188 74.5q104 0 175 -64.5t71 -181.5q0 -33 -2 -47h-374q6 -49 43.5 -76.5t89.5 -27.5q88 0 129 63l102 -76q-77 -112 -232 -112zM172 311h234q-9 43 -40.5 65t-72.5 22q-42 0 -77 -22t-44 -65zM355 560h-102
l-139 170h159z" />
    <glyph glyph-name="eacute" unicode="&#xe9;" horiz-adv-x="578" 
d="M299 -11q-114 0 -189.5 72t-75.5 189q0 112 75 186.5t188 74.5q104 0 175 -64.5t71 -181.5q0 -33 -2 -47h-374q6 -49 43.5 -76.5t89.5 -27.5q88 0 129 63l102 -76q-77 -112 -232 -112zM172 311h234q-9 43 -40.5 65t-72.5 22q-42 0 -77 -22t-44 -65zM246 560l82 170h159
l-139 -170h-102z" />
    <glyph glyph-name="ecircumflex" unicode="&#xea;" horiz-adv-x="578" 
d="M299 -11q-114 0 -189.5 72t-75.5 189q0 112 75 186.5t188 74.5q104 0 175 -64.5t71 -181.5q0 -33 -2 -47h-374q6 -49 43.5 -76.5t89.5 -27.5q88 0 129 63l102 -76q-77 -112 -232 -112zM172 311h234q-9 43 -40.5 65t-72.5 22q-42 0 -77 -22t-44 -65zM115 578l127 152h118
l127 -152h-121l-65 67l-65 -67h-121z" />
    <glyph glyph-name="edieresis" unicode="&#xeb;" horiz-adv-x="578" 
d="M299 -11q-114 0 -189.5 72t-75.5 189q0 112 75 186.5t188 74.5q104 0 175 -64.5t71 -181.5q0 -33 -2 -47h-374q6 -49 43.5 -76.5t89.5 -27.5q88 0 129 63l102 -76q-77 -112 -232 -112zM172 311h234q-9 43 -40.5 65t-72.5 22q-42 0 -77 -22t-44 -65zM184 569q-32 0 -54 22
t-22 52q0 32 22 54.5t54 22.5q31 0 53 -22.5t22 -54.5q0 -30 -22 -52t-53 -22zM419 569q-32 0 -54 22t-22 52q0 32 22 54.5t54 22.5q31 0 53 -22.5t22 -54.5q0 -30 -22 -52t-53 -22z" />
    <glyph glyph-name="igrave" unicode="&#xec;" horiz-adv-x="269" 
d="M66 0v500h137v-500h-137zM189 560h-102l-139 170h159z" />
    <glyph glyph-name="iacute" unicode="&#xed;" horiz-adv-x="269" 
d="M66 0v500h137v-500h-137zM81 560l82 170h159l-139 -170h-102z" />
    <glyph glyph-name="icircumflex" unicode="&#xee;" horiz-adv-x="269" 
d="M66 0v500h137v-500h-137zM-51 578l127 152h118l127 -152h-121l-65 67l-65 -67h-121z" />
    <glyph glyph-name="idieresis" unicode="&#xef;" horiz-adv-x="269" 
d="M66 0v500h137v-500h-137zM40 577q-32 0 -54 22t-22 53q0 32 22 54t54 22q31 0 53 -22t22 -54q0 -31 -22 -53t-53 -22zM229 577q-31 0 -53 22t-22 53q0 32 22 54t53 22q32 0 54 -22t22 -54q0 -31 -22 -53t-54 -22z" />
    <glyph glyph-name="eth" unicode="&#xf0;" horiz-adv-x="594" 
d="M461 563h-56l106 -161q49 -74 49 -152q0 -108 -76.5 -184.5t-186.5 -76.5t-186.5 76.5t-76.5 184.5q0 78 40.5 138.5t97 89t113.5 28.5h5l-37 57h-136v90h77l-50 77h152l50 -77h115v-90zM297 117q54 0 89.5 37.5t35.5 95.5t-35.5 95.5t-89.5 37.5t-89.5 -37.5
t-35.5 -95.5t35.5 -95.5t89.5 -37.5z" />
    <glyph glyph-name="ntilde" unicode="&#xf1;" horiz-adv-x="599" 
d="M66 0v500h137v-42q48 53 136 53q93 0 146.5 -60.5t53.5 -160.5v-290h-137v267q0 56 -23.5 87.5t-69.5 31.5q-70 0 -106 -57v-329h-137zM113 571l4 26q8 52 41.5 82t76.5 30q34 0 77 -23t55 -23q19 0 28.5 11t15.5 36h79l-4 -26q-8 -52 -41.5 -82t-76.5 -30q-34 0 -77 23
t-55 23q-19 0 -28.5 -11t-15.5 -36h-79z" />
    <glyph glyph-name="ograve" unicode="&#xf2;" horiz-adv-x="592" 
d="M296 -11q-109 0 -186 75.5t-77 185.5q0 109 77 185t186 76t186 -76t77 -185q0 -110 -77 -185.5t-186 -75.5zM296 117q53 0 88.5 37.5t35.5 95.5t-35.5 95.5t-88.5 37.5q-54 0 -89.5 -37.5t-35.5 -95.5t35.5 -95.5t89.5 -37.5zM350 560h-102l-139 170h159z" />
    <glyph glyph-name="oacute" unicode="&#xf3;" horiz-adv-x="592" 
d="M296 -11q-109 0 -186 75.5t-77 185.5q0 109 77 185t186 76t186 -76t77 -185q0 -110 -77 -185.5t-186 -75.5zM296 117q53 0 88.5 37.5t35.5 95.5t-35.5 95.5t-88.5 37.5q-54 0 -89.5 -37.5t-35.5 -95.5t35.5 -95.5t89.5 -37.5zM242 560l82 170h159l-139 -170h-102z" />
    <glyph glyph-name="ocircumflex" unicode="&#xf4;" horiz-adv-x="592" 
d="M296 -11q-109 0 -186 75.5t-77 185.5q0 109 77 185t186 76t186 -76t77 -185q0 -110 -77 -185.5t-186 -75.5zM296 117q53 0 88.5 37.5t35.5 95.5t-35.5 95.5t-88.5 37.5q-54 0 -89.5 -37.5t-35.5 -95.5t35.5 -95.5t89.5 -37.5zM110 578l127 152h118l127 -152h-121l-65 67
l-65 -67h-121z" />
    <glyph glyph-name="otilde" unicode="&#xf5;" horiz-adv-x="592" 
d="M296 -11q-109 0 -186 75.5t-77 185.5q0 109 77 185t186 76t186 -76t77 -185q0 -110 -77 -185.5t-186 -75.5zM296 117q53 0 88.5 37.5t35.5 95.5t-35.5 95.5t-88.5 37.5q-54 0 -89.5 -37.5t-35.5 -95.5t35.5 -95.5t89.5 -37.5zM107 571l4 26q8 52 41.5 82t76.5 30
q34 0 77 -23t55 -23q19 0 28.5 11t15.5 36h79l-4 -26q-8 -52 -41.5 -82t-76.5 -30q-34 0 -77 23t-55 23q-19 0 -28.5 -11t-15.5 -36h-79z" />
    <glyph glyph-name="odieresis" unicode="&#xf6;" horiz-adv-x="592" 
d="M296 -11q-109 0 -186 75.5t-77 185.5q0 109 77 185t186 76t186 -76t77 -185q0 -110 -77 -185.5t-186 -75.5zM296 117q53 0 88.5 37.5t35.5 95.5t-35.5 95.5t-88.5 37.5q-54 0 -89.5 -37.5t-35.5 -95.5t35.5 -95.5t89.5 -37.5zM179 569q-32 0 -54 22t-22 52q0 32 22 54.5
t54 22.5q31 0 53 -22.5t22 -54.5q0 -30 -22 -52t-53 -22zM414 569q-32 0 -54 22t-22 52q0 32 22 54.5t54 22.5q31 0 53 -22.5t22 -54.5q0 -30 -22 -52t-53 -22z" />
    <glyph glyph-name="oslash" unicode="&#xf8;" horiz-adv-x="598" 
d="M300 -11q-109 0 -186 75.5t-77 185.5q0 109 77 185t186 76t186 -76t77 -185q0 -110 -77 -185.5t-186 -75.5zM300 117q53 0 88.5 37.5t35.5 95.5t-35.5 95.5t-88.5 37.5q-54 0 -89.5 -37.5t-35.5 -95.5t35.5 -95.5t89.5 -37.5zM559 464l-474 -475l-46 47l474 475z" />
    <glyph glyph-name="ugrave" unicode="&#xf9;" horiz-adv-x="588" 
d="M522 500v-500h-137v40q-49 -51 -123 -51q-95 0 -148.5 60.5t-53.5 160.5v290h137v-267q0 -119 94 -119q57 0 94 57v329h137zM345 560h-102l-139 170h159z" />
    <glyph glyph-name="uacute" unicode="&#xfa;" horiz-adv-x="588" 
d="M522 500v-500h-137v40q-49 -51 -123 -51q-95 0 -148.5 60.5t-53.5 160.5v290h137v-267q0 -119 94 -119q57 0 94 57v329h137zM237 560l82 170h159l-139 -170h-102z" />
    <glyph glyph-name="ucircumflex" unicode="&#xfb;" horiz-adv-x="588" 
d="M522 500v-500h-137v40q-49 -51 -123 -51q-95 0 -148.5 60.5t-53.5 160.5v290h137v-267q0 -119 94 -119q57 0 94 57v329h137zM105 578l127 152h118l127 -152h-121l-65 67l-65 -67h-121z" />
    <glyph glyph-name="udieresis" unicode="&#xfc;" horiz-adv-x="588" 
d="M522 500v-500h-137v40q-49 -51 -123 -51q-95 0 -148.5 60.5t-53.5 160.5v290h137v-267q0 -119 94 -119q57 0 94 57v329h137zM174 569q-32 0 -54 22t-22 52q0 32 22 54.5t54 22.5q31 0 53 -22.5t22 -54.5q0 -30 -22 -52t-53 -22zM409 569q-32 0 -54 22t-22 52
q0 32 22 54.5t54 22.5q31 0 53 -22.5t22 -54.5q0 -30 -22 -52t-53 -22z" />
    <glyph glyph-name="yacute" unicode="&#xfd;" horiz-adv-x="570" 
d="M263 -194h-149l98 222l-210 472h150l134 -324l133 324h151zM233 560l82 170h159l-139 -170h-102z" />
    <glyph glyph-name="thorn" unicode="&#xfe;" horiz-adv-x="613" 
d="M66 -194v924h137v-266q49 47 128 47q108 0 177.5 -76.5t69.5 -184.5t-69.5 -184.5t-177.5 -76.5q-80 0 -128 48v-231h-137zM311 114q56 0 91 39.5t35 96.5t-35 96.5t-91 39.5q-68 0 -108 -54v-163q40 -55 108 -55z" />
    <glyph glyph-name="ydieresis" unicode="&#xff;" horiz-adv-x="570" 
d="M263 -194h-149l98 222l-210 472h150l134 -324l133 324h151zM171 569q-32 0 -54 22t-22 52q0 32 22 54.5t54 22.5q31 0 53 -22.5t22 -54.5q0 -30 -22 -52t-53 -22zM406 569q-32 0 -54 22t-22 52q0 32 22 54.5t54 22.5q31 0 53 -22.5t22 -54.5q0 -30 -22 -52t-53 -22z" />
    <glyph glyph-name="Amacron" unicode="&#x100;" horiz-adv-x="743" 
d="M1 0l306 710h129l307 -710h-152l-69 162h-303l-68 -162h-150zM371 519l-98 -230h195zM201 791v96h342v-96h-342z" />
    <glyph glyph-name="amacron" unicode="&#x101;" horiz-adv-x="612" 
d="M281 -11q-108 0 -177.5 76.5t-69.5 184.5t69.5 184.5t177.5 76.5q79 0 128 -47v36h137v-500h-137v37q-48 -48 -128 -48zM301 114q68 0 108 55v163q-40 54 -108 54q-55 0 -90 -39.5t-35 -96.5t35 -96.5t90 -39.5zM163 613v97h342v-97h-342z" />
    <glyph glyph-name="Abreve" unicode="&#x102;" horiz-adv-x="743" 
d="M1 0l306 710h129l307 -710h-152l-69 162h-303l-68 -162h-150zM371 519l-98 -230h195zM372 750q-74 0 -124 48.5t-50 126.5h80q0 -46 26.5 -70.5t67.5 -24.5t67.5 24.5t26.5 70.5h80q0 -78 -50 -126.5t-124 -48.5z" />
    <glyph glyph-name="abreve" unicode="&#x103;" horiz-adv-x="612" 
d="M281 -11q-108 0 -177.5 76.5t-69.5 184.5t69.5 184.5t177.5 76.5q79 0 128 -47v36h137v-500h-137v37q-48 -48 -128 -48zM301 114q68 0 108 55v163q-40 54 -108 54q-55 0 -90 -39.5t-35 -96.5t35 -96.5t90 -39.5zM334 548q-74 0 -124 48.5t-50 125.5v8h80v-8
q0 -45 26.5 -69.5t67.5 -24.5t67.5 24.5t26.5 69.5v8h80v-8q0 -77 -50 -125.5t-124 -48.5z" />
    <glyph glyph-name="Aogonek" unicode="&#x104;" horiz-adv-x="743" 
d="M1 0l306 710h129l307 -710q-42 -22 -61.5 -40.5t-19.5 -40.5q0 -28 29 -28q15 0 28 9l38 -73q-44 -31 -106 -31q-48 0 -78 24.5t-30 66.5q0 24 9 47t16 34t23 32l-69 162h-303l-68 -162h-150zM371 519l-98 -230h195z" />
    <glyph glyph-name="aogonek" unicode="&#x105;" horiz-adv-x="612" 
d="M281 -11q-108 0 -177.5 76.5t-69.5 184.5t69.5 184.5t177.5 76.5q79 0 128 -47v36h137v-500h-137v37q-48 -48 -128 -48zM301 114q68 0 108 55v163q-40 54 -108 54q-55 0 -90 -39.5t-35 -96.5t35 -96.5t90 -39.5zM455 -204q-48 0 -78 24.5t-30 66.5q0 35 15.5 60.5
t46.5 52.5h137q-41 -21 -60.5 -40t-19.5 -41q0 -28 29 -28q13 0 28 9l37 -73q-44 -31 -105 -31z" />
    <glyph glyph-name="Cacute" unicode="&#x106;" horiz-adv-x="753" 
d="M404 -12q-152 0 -259.5 107.5t-107.5 259.5t107.5 259.5t259.5 107.5q106 0 194 -51.5t134 -137.5l-126 -70q-70 119 -202 119q-92 0 -156.5 -66.5t-64.5 -160.5t64.5 -160.5t156.5 -66.5q132 0 202 119l126 -70q-46 -87 -133 -138t-195 -51zM355 768l72 137h153
l-123 -137h-102z" />
    <glyph glyph-name="cacute" unicode="&#x107;" horiz-adv-x="558" 
d="M299 -11q-112 0 -188.5 74.5t-76.5 186.5t76.5 186.5t188.5 74.5q77 0 140.5 -39.5t96.5 -104.5l-119 -64q-16 36 -46.5 58t-71.5 22q-54 0 -90.5 -38t-36.5 -95t36.5 -95t90.5 -38q41 0 71.5 22t46.5 58l119 -64q-33 -65 -96.5 -104.5t-140.5 -39.5zM245 560l82 170h159
l-139 -170h-102z" />
    <glyph glyph-name="Ccircumflex" unicode="&#x108;" horiz-adv-x="753" 
d="M404 -12q-152 0 -259.5 107.5t-107.5 259.5t107.5 259.5t259.5 107.5q106 0 194 -51.5t134 -137.5l-126 -70q-70 119 -202 119q-92 0 -156.5 -66.5t-64.5 -160.5t64.5 -160.5t156.5 -66.5q132 0 202 119l126 -70q-46 -87 -133 -138t-195 -51zM223 768l117 137h128
l117 -137h-125l-56 56l-56 -56h-125z" />
    <glyph glyph-name="ccircumflex" unicode="&#x109;" horiz-adv-x="558" 
d="M299 -11q-112 0 -188.5 74.5t-76.5 186.5t76.5 186.5t188.5 74.5q77 0 140.5 -39.5t96.5 -104.5l-119 -64q-16 36 -46.5 58t-71.5 22q-54 0 -90.5 -38t-36.5 -95t36.5 -95t90.5 -38q41 0 71.5 22t46.5 58l119 -64q-33 -65 -96.5 -104.5t-140.5 -39.5zM113 578l127 152
h118l127 -152h-121l-65 67l-65 -67h-121z" />
    <glyph glyph-name="Cdotaccent" unicode="&#x10a;" horiz-adv-x="753" 
d="M404 -12q-152 0 -259.5 107.5t-107.5 259.5t107.5 259.5t259.5 107.5q106 0 194 -51.5t134 -137.5l-126 -70q-70 119 -202 119q-92 0 -156.5 -66.5t-64.5 -160.5t64.5 -160.5t156.5 -66.5q132 0 202 119l126 -70q-46 -87 -133 -138t-195 -51zM404 772q-32 0 -54 22
t-22 53q0 32 22 54t54 22q31 0 53 -22t22 -54q0 -31 -22 -53t-53 -22z" />
    <glyph glyph-name="cdotaccent" unicode="&#x10b;" horiz-adv-x="558" 
d="M299 -11q-112 0 -188.5 74.5t-76.5 186.5t76.5 186.5t188.5 74.5q77 0 140.5 -39.5t96.5 -104.5l-119 -64q-16 36 -46.5 58t-71.5 22q-54 0 -90.5 -38t-36.5 -95t36.5 -95t90.5 -38q41 0 71.5 22t46.5 58l119 -64q-33 -65 -96.5 -104.5t-140.5 -39.5zM299 569
q-32 0 -54 22t-22 52q0 32 22 54.5t54 22.5q31 0 53 -22.5t22 -54.5q0 -30 -22 -52t-53 -22z" />
    <glyph glyph-name="Ccaron" unicode="&#x10c;" horiz-adv-x="753" 
d="M404 -12q-152 0 -259.5 107.5t-107.5 259.5t107.5 259.5t259.5 107.5q106 0 194 -51.5t134 -137.5l-126 -70q-70 119 -202 119q-92 0 -156.5 -66.5t-64.5 -160.5t64.5 -160.5t156.5 -66.5q132 0 202 119l126 -70q-46 -87 -133 -138t-195 -51zM340 768l-117 137h125
l56 -56l56 56h125l-117 -137h-128z" />
    <glyph glyph-name="ccaron" unicode="&#x10d;" horiz-adv-x="558" 
d="M299 -11q-112 0 -188.5 74.5t-76.5 186.5t76.5 186.5t188.5 74.5q77 0 140.5 -39.5t96.5 -104.5l-119 -64q-16 36 -46.5 58t-71.5 22q-54 0 -90.5 -38t-36.5 -95t36.5 -95t90.5 -38q41 0 71.5 22t46.5 58l119 -64q-33 -65 -96.5 -104.5t-140.5 -39.5zM113 730h121l65 -68
l65 68h121l-127 -152h-118z" />
    <glyph glyph-name="Dcaron" unicode="&#x10e;" horiz-adv-x="716" 
d="M79 0v710h234q153 0 259 -103t106 -252t-106 -252t-259 -103h-234zM224 133h89q97 0 158 64t61 158t-61 158t-158 64h-89v-444zM274 768l-117 137h125l56 -56l56 56h125l-117 -137h-128z" />
    <glyph glyph-name="dcaron" unicode="&#x10f;" horiz-adv-x="612" 
d="M281 -11q-108 0 -177.5 76.5t-69.5 184.5t69.5 184.5t177.5 76.5q79 0 128 -47v266h137v-730h-137v37q-48 -48 -128 -48zM301 114q68 0 108 55v163q-40 54 -108 54q-55 0 -90 -39.5t-35 -96.5t35 -96.5t90 -39.5zM566 569l21 161h137l-65 -161h-93z" />
    <glyph glyph-name="Dcroat" unicode="&#x110;" horiz-adv-x="731" 
d="M94 0v710h234q153 0 259 -103t106 -252t-106 -252t-259 -103h-234zM239 133h89q97 0 158 64t61 158t-61 158t-158 64h-89v-444zM22 295v126h345v-126h-345z" />
    <glyph glyph-name="dcroat" unicode="&#x111;" horiz-adv-x="612" 
d="M281 -11q-108 0 -177.5 76.5t-69.5 184.5t69.5 184.5t177.5 76.5q79 0 128 -47v266h137v-730h-137v37q-48 -48 -128 -48zM301 114q68 0 108 55v163q-40 54 -108 54q-55 0 -90 -39.5t-35 -96.5t35 -96.5t90 -39.5zM612 567h-339v90h339v-90z" />
    <glyph glyph-name="Emacron" unicode="&#x112;" horiz-adv-x="568" 
d="M79 0v710h442v-138h-297v-146h237v-138h-237v-150h297v-138h-442zM128 791v96h342v-96h-342z" />
    <glyph glyph-name="emacron" unicode="&#x113;" horiz-adv-x="578" 
d="M299 -11q-114 0 -189.5 72t-75.5 189q0 112 75 186.5t188 74.5q104 0 175 -64.5t71 -181.5q0 -33 -2 -47h-374q6 -49 43.5 -76.5t89.5 -27.5q88 0 129 63l102 -76q-77 -112 -232 -112zM172 311h234q-9 43 -40.5 65t-72.5 22q-42 0 -77 -22t-44 -65zM130 613v97h342v-97
h-342z" />
    <glyph glyph-name="Ebreve" unicode="&#x114;" horiz-adv-x="568" 
d="M79 0v710h442v-138h-297v-146h237v-138h-237v-150h297v-138h-442zM299 750q-74 0 -124 48.5t-50 126.5h80q0 -46 26.5 -70.5t67.5 -24.5t67.5 24.5t26.5 70.5h80q0 -78 -50 -126.5t-124 -48.5z" />
    <glyph glyph-name="ebreve" unicode="&#x115;" horiz-adv-x="578" 
d="M299 -11q-114 0 -189.5 72t-75.5 189q0 112 75 186.5t188 74.5q104 0 175 -64.5t71 -181.5q0 -33 -2 -47h-374q6 -49 43.5 -76.5t89.5 -27.5q88 0 129 63l102 -76q-77 -112 -232 -112zM172 311h234q-9 43 -40.5 65t-72.5 22q-42 0 -77 -22t-44 -65zM301 548
q-74 0 -124 48.5t-50 125.5v8h80v-8q0 -45 26.5 -69.5t67.5 -24.5t67.5 24.5t26.5 69.5v8h80v-8q0 -77 -50 -125.5t-124 -48.5z" />
    <glyph glyph-name="Edotaccent" unicode="&#x116;" horiz-adv-x="568" 
d="M79 0v710h442v-138h-297v-146h237v-138h-237v-150h297v-138h-442zM299 772q-32 0 -54 22t-22 53q0 32 22 54t54 22q31 0 53 -22t22 -54q0 -31 -22 -53t-53 -22z" />
    <glyph glyph-name="edotaccent" unicode="&#x117;" horiz-adv-x="578" 
d="M299 -11q-114 0 -189.5 72t-75.5 189q0 112 75 186.5t188 74.5q104 0 175 -64.5t71 -181.5q0 -33 -2 -47h-374q6 -49 43.5 -76.5t89.5 -27.5q88 0 129 63l102 -76q-77 -112 -232 -112zM172 311h234q-9 43 -40.5 65t-72.5 22q-42 0 -77 -22t-44 -65zM301 569q-32 0 -54 22
t-22 52q0 32 22 54.5t54 22.5q31 0 53 -22.5t22 -54.5q0 -30 -22 -52t-53 -22z" />
    <glyph glyph-name="Eogonek" unicode="&#x118;" horiz-adv-x="568" 
d="M79 0v710h442v-138h-297v-146h237v-138h-237v-150h297v-138h-442zM427 -204q-46 0 -78 25t-32 67q0 52 60 112h145q-80 -41 -80 -78q0 -25 26 -25q13 0 28 9l40 -79q-44 -31 -109 -31z" />
    <glyph glyph-name="eogonek" unicode="&#x119;" horiz-adv-x="578" 
d="M434 -204q-51 0 -80.5 27.5t-29.5 72.5q0 57 62 106q-36 -13 -87 -13q-114 0 -189.5 72t-75.5 189q0 112 75 186.5t188 74.5q104 0 175 -64.5t71 -181.5q0 -33 -2 -47h-374q6 -49 43.5 -76.5t89.5 -27.5q88 0 129 63l102 -76q-89 -113 -89 -170q0 -19 11 -29.5t26 -10.5
q11 0 28 9l37 -73q-44 -31 -110 -31zM293 398q-42 0 -77 -22t-44 -65h234q-9 43 -40.5 65t-72.5 22z" />
    <glyph glyph-name="Ecaron" unicode="&#x11a;" horiz-adv-x="568" 
d="M79 0v710h442v-138h-297v-146h237v-138h-237v-150h297v-138h-442zM235 768l-117 137h125l56 -56l56 56h125l-117 -137h-128z" />
    <glyph glyph-name="ecaron" unicode="&#x11b;" horiz-adv-x="578" 
d="M299 -11q-114 0 -189.5 72t-75.5 189q0 112 75 186.5t188 74.5q104 0 175 -64.5t71 -181.5q0 -33 -2 -47h-374q6 -49 43.5 -76.5t89.5 -27.5q88 0 129 63l102 -76q-77 -112 -232 -112zM172 311h234q-9 43 -40.5 65t-72.5 22q-42 0 -77 -22t-44 -65zM115 730h121l65 -68
l65 68h121l-127 -152h-118z" />
    <glyph glyph-name="Gcircumflex" unicode="&#x11c;" horiz-adv-x="763" 
d="M423 -12q-165 0 -275 105.5t-110 261.5q0 154 105.5 260.5t267.5 106.5q176 0 286 -116l-101 -100q-74 76 -185 76q-100 0 -163.5 -66t-63.5 -161q0 -98 65 -162.5t173 -64.5q100 0 149 38v123h-153v136h294v-333q-47 -50 -124.5 -77t-164.5 -27zM233 768l117 137h128
l117 -137h-125l-56 56l-56 -56h-125z" />
    <glyph glyph-name="gcircumflex" unicode="&#x11d;" horiz-adv-x="616" 
d="M288 -204q-139 0 -221 70l75 102q62 -52 144 -52q50 0 88.5 28.5t38.5 82.5v31q-48 -48 -129 -48q-108 0 -179 72t-71 178t71.5 178.5t178.5 72.5q80 0 129 -47v36h137v-472q0 -63 -22.5 -110t-61.5 -72.5t-83.5 -37.5t-94.5 -12zM305 134q68 0 108 56v142
q-40 54 -108 54q-57 0 -93 -35t-36 -91q0 -55 36.5 -90.5t92.5 -35.5zM124 578l127 152h118l127 -152h-121l-65 67l-65 -67h-121z" />
    <glyph glyph-name="Gbreve" unicode="&#x11e;" horiz-adv-x="763" 
d="M423 -12q-165 0 -275 105.5t-110 261.5q0 154 105.5 260.5t267.5 106.5q176 0 286 -116l-101 -100q-74 76 -185 76q-100 0 -163.5 -66t-63.5 -161q0 -98 65 -162.5t173 -64.5q100 0 149 38v123h-153v136h294v-333q-47 -50 -124.5 -77t-164.5 -27zM414 750
q-74 0 -124 48.5t-50 126.5h80q0 -46 26.5 -70.5t67.5 -24.5t67.5 24.5t26.5 70.5h80q0 -78 -50 -126.5t-124 -48.5z" />
    <glyph glyph-name="gbreve" unicode="&#x11f;" horiz-adv-x="616" 
d="M288 -204q-139 0 -221 70l75 102q62 -52 144 -52q50 0 88.5 28.5t38.5 82.5v31q-48 -48 -129 -48q-108 0 -179 72t-71 178t71.5 178.5t178.5 72.5q80 0 129 -47v36h137v-472q0 -63 -22.5 -110t-61.5 -72.5t-83.5 -37.5t-94.5 -12zM305 134q68 0 108 56v142
q-40 54 -108 54q-57 0 -93 -35t-36 -91q0 -55 36.5 -90.5t92.5 -35.5zM310 548q-74 0 -124 48.5t-50 125.5v8h80v-8q0 -45 26.5 -69.5t67.5 -24.5t67.5 24.5t26.5 69.5v8h80v-8q0 -77 -50 -125.5t-124 -48.5z" />
    <glyph glyph-name="Gdotaccent" unicode="&#x120;" horiz-adv-x="763" 
d="M423 -12q-165 0 -275 105.5t-110 261.5q0 154 105.5 260.5t267.5 106.5q176 0 286 -116l-101 -100q-74 76 -185 76q-100 0 -163.5 -66t-63.5 -161q0 -98 65 -162.5t173 -64.5q100 0 149 38v123h-153v136h294v-333q-47 -50 -124.5 -77t-164.5 -27zM414 772q-32 0 -54 22
t-22 53q0 32 22 54t54 22q31 0 53 -22t22 -54q0 -31 -22 -53t-53 -22z" />
    <glyph glyph-name="gdotaccent" unicode="&#x121;" horiz-adv-x="616" 
d="M288 -204q-139 0 -221 70l75 102q62 -52 144 -52q50 0 88.5 28.5t38.5 82.5v31q-48 -48 -129 -48q-108 0 -179 72t-71 178t71.5 178.5t178.5 72.5q80 0 129 -47v36h137v-472q0 -63 -22.5 -110t-61.5 -72.5t-83.5 -37.5t-94.5 -12zM305 134q68 0 108 56v142
q-40 54 -108 54q-57 0 -93 -35t-36 -91q0 -55 36.5 -90.5t92.5 -35.5zM310 569q-32 0 -54 22t-22 52q0 32 22 54.5t54 22.5q31 0 53 -22.5t22 -54.5q0 -30 -22 -52t-53 -22z" />
    <glyph glyph-name="uni0122" unicode="&#x122;" horiz-adv-x="763" 
d="M423 -12q-165 0 -275 105.5t-110 261.5q0 154 105.5 260.5t267.5 106.5q176 0 286 -116l-101 -100q-74 76 -185 76q-100 0 -163.5 -66t-63.5 -161q0 -98 65 -162.5t173 -64.5q100 0 149 38v123h-153v136h294v-333q-47 -50 -124.5 -77t-164.5 -27zM442 -322h-63l32 112
h-55v132h133v-132z" />
    <glyph glyph-name="uni0123" unicode="&#x123;" horiz-adv-x="616" 
d="M288 -204q-139 0 -221 70l75 102q62 -52 144 -52q50 0 88.5 28.5t38.5 82.5v31q-48 -48 -129 -48q-108 0 -179 72t-71 178t71.5 178.5t178.5 72.5q80 0 129 -47v36h137v-472q0 -63 -22.5 -110t-61.5 -72.5t-83.5 -37.5t-94.5 -12zM305 134q68 0 108 56v142
q-40 54 -108 54q-57 0 -93 -35t-36 -91q0 -55 36.5 -90.5t92.5 -35.5zM291 822h63l-32 -112h55v-132h-133v132z" />
    <glyph glyph-name="Hcircumflex" unicode="&#x124;" horiz-adv-x="756" 
d="M79 0v710h145v-283h308v283h145v-710h-145v289h-308v-289h-145zM197 768l117 137h128l117 -137h-125l-56 56l-56 -56h-125z" />
    <glyph glyph-name="hcircumflex" unicode="&#x125;" horiz-adv-x="599" 
d="M203 0h-137v730h137v-272q48 53 136 53q93 0 146.5 -60.5t53.5 -160.5v-290h-137v267q0 56 -23.5 87.5t-69.5 31.5q-70 0 -106 -57v-329zM145 768l117 137h128l117 -137h-125l-56 56l-56 -56h-125z" />
    <glyph glyph-name="Hbar" unicode="&#x126;" horiz-adv-x="787" 
d="M95 0v710h145v-283h308v283h145v-710h-145v289h-308v-289h-145zM23 519v100h742v-100h-742z" />
    <glyph glyph-name="hbar" unicode="&#x127;" horiz-adv-x="599" 
d="M203 0h-137v730h137v-272q48 53 136 53q93 0 146.5 -60.5t53.5 -160.5v-290h-137v267q0 56 -23.5 87.5t-69.5 31.5q-70 0 -106 -57v-329zM343 567h-339v90h339v-90z" />
    <glyph glyph-name="Itilde" unicode="&#x128;" horiz-adv-x="303" 
d="M79 0v710h145v-710h-145zM-37 778l4 26q8 52 41.5 82t76.5 30q34 0 77 -23t55 -23q19 0 28.5 11t15.5 36h79l-4 -26q-8 -52 -41.5 -82t-76.5 -30q-34 0 -77 23t-55 23q-19 0 -28.5 -11t-15.5 -36h-79z" />
    <glyph glyph-name="itilde" unicode="&#x129;" horiz-adv-x="269" 
d="M66 0v500h137v-500h-137zM-54 571l4 26q8 52 41.5 82t76.5 30q34 0 77 -23t55 -23q19 0 28.5 11t15.5 36h79l-4 -26q-8 -52 -41.5 -82t-76.5 -30q-34 0 -77 23t-55 23q-19 0 -28.5 -11t-15.5 -36h-79z" />
    <glyph glyph-name="Imacron" unicode="&#x12a;" horiz-adv-x="303" 
d="M79 0v710h145v-710h-145zM-19 791v96h342v-96h-342z" />
    <glyph glyph-name="imacron" unicode="&#x12b;" horiz-adv-x="269" 
d="M66 0v500h137v-500h-137zM-36 613v97h342v-97h-342z" />
    <glyph glyph-name="Ibreve" unicode="&#x12c;" horiz-adv-x="303" 
d="M79 0v710h145v-710h-145zM152 750q-74 0 -124 48.5t-50 126.5h80q0 -46 26.5 -70.5t67.5 -24.5t67.5 24.5t26.5 70.5h80q0 -78 -50 -126.5t-124 -48.5z" />
    <glyph glyph-name="ibreve" unicode="&#x12d;" horiz-adv-x="269" 
d="M66 0v500h137v-500h-137zM135 548q-74 0 -124 48.5t-50 125.5v8h80v-8q0 -45 26.5 -69.5t67.5 -24.5t67.5 24.5t26.5 69.5v8h80v-8q0 -77 -50 -125.5t-124 -48.5z" />
    <glyph glyph-name="Iogonek" unicode="&#x12e;" horiz-adv-x="303" 
d="M79 0v710h145v-710h-145zM129 -204q-46 0 -78 25t-32 67q0 52 60 112h145q-80 -41 -80 -78q0 -25 26 -25q13 0 28 9l40 -79q-44 -31 -109 -31z" />
    <glyph glyph-name="iogonek" unicode="&#x12f;" horiz-adv-x="269" 
d="M134 562q-35 0 -61 25.5t-26 61.5t26 61.5t61 25.5q37 0 62.5 -25.5t25.5 -61.5t-25.5 -61.5t-62.5 -25.5zM66 0v500h137v-500h-137zM113 -204q-48 0 -78 24.5t-30 66.5q0 35 15.5 60.5t46.5 52.5h137q-41 -21 -60.5 -40t-19.5 -41q0 -28 29 -28q13 0 28 9l37 -73
q-44 -31 -105 -31z" />
    <glyph glyph-name="Idotaccent" unicode="&#x130;" horiz-adv-x="303" 
d="M79 0v710h145v-710h-145zM152 772q-32 0 -54 22t-22 53q0 32 22 54t54 22q31 0 53 -22t22 -54q0 -31 -22 -53t-53 -22z" />
    <glyph glyph-name="dotlessi" unicode="&#x131;" horiz-adv-x="269" 
d="M66 0v500h137v-500h-137z" />
    <glyph glyph-name="Jcircumflex" unicode="&#x134;" horiz-adv-x="471" 
d="M179 -12q-111 0 -178 69l82 106q40 -40 90 -40q35 0 57 20t22 60v507h145v-516q0 -102 -63 -154t-155 -52zM143 768l117 137h128l117 -137h-125l-56 56l-56 -56h-125z" />
    <glyph glyph-name="jcircumflex" unicode="&#x135;" horiz-adv-x="277" 
d="M27 -199q-31 0 -64.5 7t-48.5 15l31 112q31 -15 64 -15q65 0 65 84v496h137v-518q0 -88 -51.5 -134.5t-132.5 -46.5zM-42 578l127 152h118l127 -152h-121l-65 67l-65 -67h-121z" />
    <glyph glyph-name="uni0136" unicode="&#x136;" horiz-adv-x="694" 
d="M531 0l-308 322v-322h-144v710h144v-301l256 301h179l-292 -341l353 -369h-188zM396 -322h-63l32 112h-55v132h133v-132z" />
    <glyph glyph-name="uni0137" unicode="&#x137;" horiz-adv-x="556" 
d="M407 0l-204 230v-230h-137v730h137v-414l162 184h165l-198 -225l244 -275h-169zM325 -322h-63l32 112h-55v132h133v-132z" />
    <glyph glyph-name="Lacute" unicode="&#x139;" horiz-adv-x="551" 
d="M79 0v710h145v-572h304v-138h-449zM105 768l72 137h153l-123 -137h-102z" />
    <glyph glyph-name="lacute" unicode="&#x13a;" horiz-adv-x="269" 
d="M66 0v730h137v-730h-137zM81 790l82 170h159l-139 -170h-102z" />
    <glyph glyph-name="uni013B" unicode="&#x13b;" horiz-adv-x="551" 
d="M79 0v710h145v-572h304v-138h-449zM323 -322h-63l32 112h-55v132h133v-132z" />
    <glyph glyph-name="uni013C" unicode="&#x13c;" horiz-adv-x="269" 
d="M66 0v730h137v-730h-137zM155 -322h-63l32 112h-55v132h133v-132z" />
    <glyph glyph-name="Lcaron" unicode="&#x13d;" horiz-adv-x="553" 
d="M79 0v710h145v-572h304v-138h-449zM294 569l21 161h137l-65 -161h-93z" />
    <glyph glyph-name="lcaron" unicode="&#x13e;" horiz-adv-x="269" 
d="M66 0v730h137v-730h-137zM223 569l21 161h137l-65 -161h-93z" />
    <glyph glyph-name="Ldot" unicode="&#x13f;" horiz-adv-x="558" 
d="M79 0v710h145v-572h304v-138h-449zM423 349q-32 0 -54 22t-22 53q0 32 22 54t54 22q31 0 53 -22t22 -54q0 -31 -22 -53t-53 -22z" />
    <glyph glyph-name="ldot" unicode="&#x140;" horiz-adv-x="404" 
d="M66 0v730h137v-730h-137zM337 298q-32 0 -54 22t-22 53q0 32 22 54t54 22q31 0 53 -22t22 -54q0 -31 -22 -53t-53 -22z" />
    <glyph glyph-name="Lslash" unicode="&#x141;" horiz-adv-x="580" 
d="M107 0v710h145v-572h304v-138h-449zM388 419l-352 -206v115l352 207v-116z" />
    <glyph glyph-name="lslash" unicode="&#x142;" horiz-adv-x="350" 
d="M107 0v730h137v-730h-137zM318 403l-285 -167v107l285 168v-108z" />
    <glyph glyph-name="Nacute" unicode="&#x143;" horiz-adv-x="792" 
d="M713 0h-125l-364 463v-463h-145v710h125l364 -463v463h145v-710zM346 768l72 137h153l-123 -137h-102z" />
    <glyph glyph-name="nacute" unicode="&#x144;" horiz-adv-x="599" 
d="M66 0v500h137v-42q48 53 136 53q93 0 146.5 -60.5t53.5 -160.5v-290h-137v267q0 56 -23.5 87.5t-69.5 31.5q-70 0 -106 -57v-329h-137zM248 560l82 170h159l-139 -170h-102z" />
    <glyph glyph-name="uni0145" unicode="&#x145;" horiz-adv-x="792" 
d="M713 0h-125l-364 463v-463h-145v710h125l364 -463v463h145v-710zM415 -322h-63l32 112h-55v132h133v-132z" />
    <glyph glyph-name="uni0146" unicode="&#x146;" horiz-adv-x="599" 
d="M66 0v500h137v-42q48 53 136 53q93 0 146.5 -60.5t53.5 -160.5v-290h-137v267q0 56 -23.5 87.5t-69.5 31.5q-70 0 -106 -57v-329h-137zM322 -322h-63l32 112h-55v132h133v-132z" />
    <glyph glyph-name="Ncaron" unicode="&#x147;" horiz-adv-x="792" 
d="M713 0h-125l-364 463v-463h-145v710h125l364 -463v463h145v-710zM331 768l-117 137h125l56 -56l56 56h125l-117 -137h-128z" />
    <glyph glyph-name="ncaron" unicode="&#x148;" horiz-adv-x="599" 
d="M66 0v500h137v-42q48 53 136 53q93 0 146.5 -60.5t53.5 -160.5v-290h-137v267q0 56 -23.5 87.5t-69.5 31.5q-70 0 -106 -57v-329h-137zM116 730h121l65 -68l65 68h121l-127 -152h-118z" />
    <glyph glyph-name="Eng" unicode="&#x14a;" horiz-adv-x="792" 
d="M713 710v-730q0 -81 -46 -127.5t-126 -46.5h-70v118h26q36 0 53.5 17t17.5 55v29l-344 438v-463h-145v710h125l364 -463v463h145z" />
    <glyph glyph-name="eng" unicode="&#x14b;" horiz-adv-x="599" 
d="M66 0v500h137v-42q48 53 136 53q93 0 146.5 -60.5t53.5 -160.5v-312q0 -89 -53.5 -135.5t-140.5 -46.5q-43 0 -76 10l29 118q12 -4 32 -4q71 0 72 80v267q0 56 -23.5 87.5t-69.5 31.5q-70 0 -106 -57v-329h-137z" />
    <glyph glyph-name="Omacron" unicode="&#x14c;" horiz-adv-x="808" 
d="M404 128q92 0 156.5 66.5t64.5 160.5t-64.5 160.5t-156.5 66.5t-156.5 -66.5t-64.5 -160.5t64.5 -160.5t156.5 -66.5zM404 -12q-152 0 -259.5 107.5t-107.5 259.5t107.5 259.5t259.5 107.5t259.5 -107.5t107.5 -259.5t-107.5 -259.5t-259.5 -107.5zM233 791v96h342v-96
h-342z" />
    <glyph glyph-name="omacron" unicode="&#x14d;" horiz-adv-x="592" 
d="M296 -11q-109 0 -186 75.5t-77 185.5q0 109 77 185t186 76t186 -76t77 -185q0 -110 -77 -185.5t-186 -75.5zM296 117q53 0 88.5 37.5t35.5 95.5t-35.5 95.5t-88.5 37.5q-54 0 -89.5 -37.5t-35.5 -95.5t35.5 -95.5t89.5 -37.5zM125 613v97h342v-97h-342z" />
    <glyph glyph-name="Obreve" unicode="&#x14e;" horiz-adv-x="808" 
d="M404 128q92 0 156.5 66.5t64.5 160.5t-64.5 160.5t-156.5 66.5t-156.5 -66.5t-64.5 -160.5t64.5 -160.5t156.5 -66.5zM404 -12q-152 0 -259.5 107.5t-107.5 259.5t107.5 259.5t259.5 107.5t259.5 -107.5t107.5 -259.5t-107.5 -259.5t-259.5 -107.5zM404 750
q-74 0 -124 48.5t-50 126.5h80q0 -46 26.5 -70.5t67.5 -24.5t67.5 24.5t26.5 70.5h80q0 -78 -50 -126.5t-124 -48.5z" />
    <glyph glyph-name="obreve" unicode="&#x14f;" horiz-adv-x="592" 
d="M296 -11q-109 0 -186 75.5t-77 185.5q0 109 77 185t186 76t186 -76t77 -185q0 -110 -77 -185.5t-186 -75.5zM296 117q53 0 88.5 37.5t35.5 95.5t-35.5 95.5t-88.5 37.5q-54 0 -89.5 -37.5t-35.5 -95.5t35.5 -95.5t89.5 -37.5zM296 548q-74 0 -124 48.5t-50 125.5v8h80v-8
q0 -45 26.5 -69.5t67.5 -24.5t67.5 24.5t26.5 69.5v8h80v-8q0 -77 -50 -125.5t-124 -48.5z" />
    <glyph glyph-name="Ohungarumlaut" unicode="&#x150;" horiz-adv-x="808" 
d="M404 128q92 0 156.5 66.5t64.5 160.5t-64.5 160.5t-156.5 66.5t-156.5 -66.5t-64.5 -160.5t64.5 -160.5t156.5 -66.5zM404 -12q-152 0 -259.5 107.5t-107.5 259.5t107.5 259.5t259.5 107.5t259.5 -107.5t107.5 -259.5t-107.5 -259.5t-259.5 -107.5zM276 768l52 137h147
l-109 -137h-90zM461 768l52 137h147l-109 -137h-90z" />
    <glyph glyph-name="ohungarumlaut" unicode="&#x151;" horiz-adv-x="592" 
d="M296 -11q-109 0 -186 75.5t-77 185.5q0 109 77 185t186 76t186 -76t77 -185q0 -110 -77 -185.5t-186 -75.5zM296 117q53 0 88.5 37.5t35.5 95.5t-35.5 95.5t-88.5 37.5q-54 0 -89.5 -37.5t-35.5 -95.5t35.5 -95.5t89.5 -37.5zM168 560l52 170h147l-109 -170h-90zM353 560
l52 170h147l-109 -170h-90z" />
    <glyph glyph-name="OE" unicode="&#x152;" horiz-adv-x="1114" 
d="M404 128q92 0 156.5 66.5t64.5 160.5t-64.5 160.5t-156.5 66.5t-156.5 -66.5t-64.5 -160.5t64.5 -160.5t156.5 -66.5zM625 0v69q-77 -81 -221 -81q-152 0 -259.5 107.5t-107.5 259.5t107.5 259.5t259.5 107.5q144 0 221 -81v69h442v-138h-297v-146h237v-138h-237v-150
h297v-138h-442z" />
    <glyph glyph-name="oe" unicode="&#x153;" horiz-adv-x="964" 
d="M685 -11q-123 0 -198 81q-76 -81 -191 -81q-109 0 -186 75.5t-77 185.5q0 109 77 185t186 76q115 0 192 -82q76 82 195 82q104 0 175 -64.5t71 -181.5q0 -33 -2 -47h-373q6 -49 43 -76.5t89 -27.5q91 0 129 63l103 -76q-36 -52 -96 -82t-137 -30zM296 117q53 0 88.5 37.5
t35.5 95.5t-35.5 95.5t-88.5 37.5q-54 0 -89.5 -37.5t-35.5 -95.5t35.5 -95.5t89.5 -37.5zM679 398q-42 0 -77 -22t-44 -65h235q-9 43 -41 65t-73 22z" />
    <glyph glyph-name="Racute" unicode="&#x154;" horiz-adv-x="656" 
d="M79 0v710h272q97 0 157.5 -60t60.5 -150q0 -140 -146 -185l255 -315h-175l-244 299h-35v-299h-145zM224 423h110q42 0 66.5 20.5t24.5 56.5t-24.5 56.5t-66.5 20.5h-110v-154zM252 768l72 137h153l-123 -137h-102z" />
    <glyph glyph-name="racute" unicode="&#x155;" horiz-adv-x="387" 
d="M66 0v500h137v-60q13 28 45.5 47t70.5 19q33 0 58 -9l-21 -129q-14 6 -42 6q-77 0 -111 -56v-318h-137zM165 560l82 170h159l-139 -170h-102z" />
    <glyph glyph-name="uni0156" unicode="&#x156;" horiz-adv-x="656" 
d="M79 0v710h272q97 0 157.5 -60t60.5 -150q0 -140 -146 -185l255 -315h-175l-244 299h-35v-299h-145zM224 423h110q42 0 66.5 20.5t24.5 56.5t-24.5 56.5t-66.5 20.5h-110v-154zM383 -322h-63l32 112h-55v132h133v-132z" />
    <glyph glyph-name="uni0157" unicode="&#x157;" horiz-adv-x="387" 
d="M66 0v500h137v-60q13 28 45.5 47t70.5 19q33 0 58 -9l-21 -129q-14 6 -42 6q-77 0 -111 -56v-318h-137zM154 -322h-63l32 112h-55v132h133v-132z" />
    <glyph glyph-name="Rcaron" unicode="&#x158;" horiz-adv-x="656" 
d="M79 0v710h272q97 0 157.5 -60t60.5 -150q0 -140 -146 -185l255 -315h-175l-244 299h-35v-299h-145zM224 423h110q42 0 66.5 20.5t24.5 56.5t-24.5 56.5t-66.5 20.5h-110v-154zM237 768l-117 137h125l56 -56l56 56h125l-117 -137h-128z" />
    <glyph glyph-name="rcaron" unicode="&#x159;" horiz-adv-x="387" 
d="M66 0v500h137v-60q13 28 45.5 47t70.5 19q33 0 58 -9l-21 -129q-14 6 -42 6q-77 0 -111 -56v-318h-137zM33 730h121l65 -68l65 68h121l-127 -152h-118z" />
    <glyph glyph-name="Sacute" unicode="&#x15a;" horiz-adv-x="570" 
d="M286 -12q-84 0 -153 33.5t-107 93.5l112 93q26 -39 67 -61.5t86 -22.5q43 0 69.5 19t26.5 50q0 30 -23.5 52t-76.5 40l-60 21q-175 61 -175 203q0 98 67 155.5t173 57.5q134 0 225 -98l-97 -99q-49 61 -126 61q-39 0 -67 -16.5t-28 -46.5q0 -31 24 -49t85 -40l57 -21
q170 -64 169 -211q0 -95 -69 -154.5t-179 -59.5zM245 768l72 137h153l-123 -137h-102z" />
    <glyph glyph-name="sacute" unicode="&#x15b;" horiz-adv-x="459" 
d="M234 -11q-142 0 -206 96l94 80q36 -58 112 -58q23 0 39 9t16 27q0 16 -13.5 26.5t-53.5 21.5l-37 9q-69 18 -104.5 60t-33.5 100q2 68 54.5 109.5t133.5 41.5q115 0 173 -84l-90 -73q-35 44 -85 44q-20 0 -35 -9t-15 -25q0 -30 49 -43l47 -14q145 -39 145 -155
q0 -71 -54 -117t-136 -46zM177 560l82 170h159l-139 -170h-102z" />
    <glyph glyph-name="Scircumflex" unicode="&#x15c;" horiz-adv-x="570" 
d="M286 -12q-84 0 -153 33.5t-107 93.5l112 93q26 -39 67 -61.5t86 -22.5q43 0 69.5 19t26.5 50q0 30 -23.5 52t-76.5 40l-60 21q-175 61 -175 203q0 98 67 155.5t173 57.5q134 0 225 -98l-97 -99q-49 61 -126 61q-39 0 -67 -16.5t-28 -46.5q0 -31 24 -49t85 -40l57 -21
q170 -64 169 -211q0 -95 -69 -154.5t-179 -59.5zM113 768l117 137h128l117 -137h-125l-56 56l-56 -56h-125z" />
    <glyph glyph-name="scircumflex" unicode="&#x15d;" horiz-adv-x="459" 
d="M234 -11q-142 0 -206 96l94 80q36 -58 112 -58q23 0 39 9t16 27q0 16 -13.5 26.5t-53.5 21.5l-37 9q-69 18 -104.5 60t-33.5 100q2 68 54.5 109.5t133.5 41.5q115 0 173 -84l-90 -73q-35 44 -85 44q-20 0 -35 -9t-15 -25q0 -30 49 -43l47 -14q145 -39 145 -155
q0 -71 -54 -117t-136 -46zM45 578l127 152h118l127 -152h-121l-65 67l-65 -67h-121z" />
    <glyph glyph-name="Scedilla" unicode="&#x15e;" horiz-adv-x="570" 
d="M286 -12q-84 0 -153 33.5t-107 93.5l112 93q26 -39 67 -61.5t86 -22.5q43 0 69.5 19t26.5 50q0 30 -23.5 52t-76.5 40l-60 21q-175 61 -175 203q0 98 67 155.5t173 57.5q134 0 225 -98l-97 -99q-49 61 -126 61q-39 0 -67 -16.5t-28 -46.5q0 -31 24 -49t85 -40l57 -21
q170 -64 169 -211q0 -95 -69 -154.5t-179 -59.5zM170 -188l14 61q31 -16 68 -16q51 0 51 28q0 25 -34 25q-24 0 -43 -12l-35 20l51 85h62l-29 -48q14 11 45 11q34 0 57.5 -21t23.5 -54q0 -43 -39.5 -69t-94.5 -26q-59 0 -97 16z" />
    <glyph glyph-name="scedilla" unicode="&#x15f;" horiz-adv-x="459" 
d="M234 -11q-142 0 -206 96l94 80q36 -58 112 -58q23 0 39 9t16 27q0 16 -13.5 26.5t-53.5 21.5l-37 9q-69 18 -104.5 60t-33.5 100q2 68 54.5 109.5t133.5 41.5q115 0 173 -84l-90 -73q-35 44 -85 44q-20 0 -35 -9t-15 -25q0 -30 49 -43l47 -14q145 -39 145 -155
q0 -71 -54 -117t-136 -46zM111 -188l14 61q31 -16 68 -16q51 0 51 28q0 25 -34 25q-24 0 -43 -12l-35 20l51 85h62l-29 -48q14 11 45 11q34 0 57.5 -21t23.5 -54q0 -43 -39.5 -69t-94.5 -26q-59 0 -97 16z" />
    <glyph glyph-name="Scaron" unicode="&#x160;" horiz-adv-x="570" 
d="M286 -12q-84 0 -153 33.5t-107 93.5l112 93q26 -39 67 -61.5t86 -22.5q43 0 69.5 19t26.5 50q0 30 -23.5 52t-76.5 40l-60 21q-175 61 -175 203q0 98 67 155.5t173 57.5q134 0 225 -98l-97 -99q-49 61 -126 61q-39 0 -67 -16.5t-28 -46.5q0 -31 24 -49t85 -40l57 -21
q170 -64 169 -211q0 -95 -69 -154.5t-179 -59.5zM230 768l-117 137h125l56 -56l56 56h125l-117 -137h-128z" />
    <glyph glyph-name="scaron" unicode="&#x161;" horiz-adv-x="459" 
d="M234 -11q-142 0 -206 96l94 80q36 -58 112 -58q23 0 39 9t16 27q0 16 -13.5 26.5t-53.5 21.5l-37 9q-69 18 -104.5 60t-33.5 100q2 68 54.5 109.5t133.5 41.5q115 0 173 -84l-90 -73q-35 44 -85 44q-20 0 -35 -9t-15 -25q0 -30 49 -43l47 -14q145 -39 145 -155
q0 -71 -54 -117t-136 -46zM45 730h121l65 -68l65 68h121l-127 -152h-118z" />
    <glyph glyph-name="uni0162" unicode="&#x162;" horiz-adv-x="568" 
d="M210 0v572h-189v138h526v-138h-191v-572h-146zM304 -322h-63l32 112h-55v132h133v-132z" />
    <glyph glyph-name="uni0163" unicode="&#x163;" horiz-adv-x="464" 
d="M329 -6q-88 0 -141 46t-53 135v205h-121v120h121v150h137v-150h151v-120h-151v-178q0 -45 18.5 -64.5t57.5 -19.5q37 0 69 17l41 -112q-54 -29 -129 -29zM320 -322h-63l32 112h-55v132h133v-132z" />
    <glyph glyph-name="Tcaron" unicode="&#x164;" horiz-adv-x="568" 
d="M210 0v572h-189v138h526v-138h-191v-572h-146zM220 768l-117 137h125l56 -56l56 56h125l-117 -137h-128z" />
    <glyph glyph-name="tcaron" unicode="&#x165;" horiz-adv-x="464" 
d="M329 -6q-88 0 -141 46t-53 135v205h-121v120h121v150h137v-150h151v-120h-151v-178q0 -45 18.5 -64.5t57.5 -19.5q37 0 69 17l41 -112q-54 -29 -129 -29zM292 549l21 161h137l-65 -161h-93z" />
    <glyph glyph-name="Tbar" unicode="&#x166;" horiz-adv-x="592" 
d="M222 0v572h-189v138h526v-138h-191v-572h-146zM83 295v126h425v-126h-425z" />
    <glyph glyph-name="tbar" unicode="&#x167;" horiz-adv-x="477" 
d="M338 -6q-88 0 -141 46t-53 135v205h-121v120h121v150h137v-150h151v-120h-151v-178q0 -45 18.5 -64.5t57.5 -19.5q37 0 69 17l41 -112q-54 -29 -129 -29zM23 220v90h409v-90h-409z" />
    <glyph glyph-name="Utilde" unicode="&#x168;" horiz-adv-x="720" 
d="M360 -12q-129 0 -209 80t-80 212v430h145v-432q0 -70 39 -110t105 -40t105 40t39 110v432h145v-430q0 -131 -81 -211.5t-208 -80.5zM171 778l4 26q8 52 41.5 82t76.5 30q34 0 77 -23t55 -23q19 0 28.5 11t15.5 36h79l-4 -26q-8 -52 -41.5 -82t-76.5 -30q-34 0 -77 23
t-55 23q-19 0 -28.5 -11t-15.5 -36h-79z" />
    <glyph glyph-name="utilde" unicode="&#x169;" horiz-adv-x="588" 
d="M522 500v-500h-137v40q-49 -51 -123 -51q-95 0 -148.5 60.5t-53.5 160.5v290h137v-267q0 -119 94 -119q57 0 94 57v329h137zM102 571l4 26q8 52 41.5 82t76.5 30q34 0 77 -23t55 -23q19 0 28.5 11t15.5 36h79l-4 -26q-8 -52 -41.5 -82t-76.5 -30q-34 0 -77 23t-55 23
q-19 0 -28.5 -11t-15.5 -36h-79z" />
    <glyph glyph-name="Umacron" unicode="&#x16a;" horiz-adv-x="720" 
d="M360 -12q-129 0 -209 80t-80 212v430h145v-432q0 -70 39 -110t105 -40t105 40t39 110v432h145v-430q0 -131 -81 -211.5t-208 -80.5zM189 791v96h342v-96h-342z" />
    <glyph glyph-name="umacron" unicode="&#x16b;" horiz-adv-x="588" 
d="M522 500v-500h-137v40q-49 -51 -123 -51q-95 0 -148.5 60.5t-53.5 160.5v290h137v-267q0 -119 94 -119q57 0 94 57v329h137zM120 613v97h342v-97h-342z" />
    <glyph glyph-name="Ubreve" unicode="&#x16c;" horiz-adv-x="720" 
d="M360 -12q-129 0 -209 80t-80 212v430h145v-432q0 -70 39 -110t105 -40t105 40t39 110v432h145v-430q0 -131 -81 -211.5t-208 -80.5zM360 750q-74 0 -124 48.5t-50 126.5h80q0 -46 26.5 -70.5t67.5 -24.5t67.5 24.5t26.5 70.5h80q0 -78 -50 -126.5t-124 -48.5z" />
    <glyph glyph-name="ubreve" unicode="&#x16d;" horiz-adv-x="588" 
d="M522 500v-500h-137v40q-49 -51 -123 -51q-95 0 -148.5 60.5t-53.5 160.5v290h137v-267q0 -119 94 -119q57 0 94 57v329h137zM291 548q-74 0 -124 48.5t-50 125.5v8h80v-8q0 -45 26.5 -69.5t67.5 -24.5t67.5 24.5t26.5 69.5v8h80v-8q0 -77 -50 -125.5t-124 -48.5z" />
    <glyph glyph-name="Uring" unicode="&#x16e;" horiz-adv-x="720" 
d="M360 -12q-129 0 -209 80t-80 212v430h145v-432q0 -70 39 -110t105 -40t105 40t39 110v432h145v-430q0 -131 -81 -211.5t-208 -80.5zM361 753q-50 0 -86 35.5t-36 84.5t36 84.5t86 35.5t86 -35.5t36 -84.5t-36 -84.5t-86 -35.5zM361 815q25 0 42 17t17 41t-17 41t-42 17
t-42 -17t-17 -41t17 -41t42 -17z" />
    <glyph glyph-name="uring" unicode="&#x16f;" horiz-adv-x="588" 
d="M522 500v-500h-137v40q-49 -51 -123 -51q-95 0 -148.5 60.5t-53.5 160.5v290h137v-267q0 -119 94 -119q57 0 94 57v329h137zM291 542q-50 0 -86 35.5t-36 85.5q0 49 36 84.5t86 35.5t86 -35.5t36 -84.5q0 -50 -36 -85.5t-86 -35.5zM291 605q25 0 42 17t17 41t-17 41
t-42 17q-24 0 -41.5 -17t-17.5 -41t17.5 -41t41.5 -17z" />
    <glyph glyph-name="Uhungarumlaut" unicode="&#x170;" horiz-adv-x="720" 
d="M360 -12q-129 0 -209 80t-80 212v430h145v-432q0 -70 39 -110t105 -40t105 40t39 110v432h145v-430q0 -131 -81 -211.5t-208 -80.5zM232 768l52 137h147l-109 -137h-90zM417 768l52 137h147l-109 -137h-90z" />
    <glyph glyph-name="uhungarumlaut" unicode="&#x171;" horiz-adv-x="588" 
d="M522 500v-500h-137v40q-49 -51 -123 -51q-95 0 -148.5 60.5t-53.5 160.5v290h137v-267q0 -119 94 -119q57 0 94 57v329h137zM163 560l52 170h147l-109 -170h-90zM348 560l52 170h147l-109 -170h-90z" />
    <glyph glyph-name="Uogonek" unicode="&#x172;" horiz-adv-x="720" 
d="M412 -204q-45 0 -77 24t-32 65q0 58 48 103q-131 6 -205.5 85.5t-74.5 206.5v430h145v-432q0 -70 39 -110t105 -40t105 40t39 110v432h145v-430q0 -147 -101 -231q-10 -8 -25 -21l-22.5 -19.5t-19 -16t-17 -15l-13 -13t-10.5 -12t-6.5 -10.5t-5 -11.5t-1.5 -10.5
q0 -23 25 -23q14 0 28 9l40 -79q-44 -31 -109 -31z" />
    <glyph glyph-name="uogonek" unicode="&#x173;" horiz-adv-x="588" 
d="M522 500v-500h-137v40q-49 -51 -123 -51q-95 0 -148.5 60.5t-53.5 160.5v290h137v-267q0 -119 94 -119q57 0 94 57v329h137zM432 -204q-48 0 -78 24.5t-30 66.5q0 35 15.5 60.5t46.5 52.5h137q-41 -21 -60.5 -40t-19.5 -41q0 -28 29 -28q13 0 28 9l37 -73
q-44 -31 -105 -31z" />
    <glyph glyph-name="Wcircumflex" unicode="&#x174;" horiz-adv-x="1020" 
d="M230 0l-221 710h153l137 -472l147 472h127l146 -472l138 472h154l-221 -710h-130l-150 488l-150 -488h-130zM330 768l117 137h128l117 -137h-125l-56 56l-56 -56h-125z" />
    <glyph glyph-name="wcircumflex" unicode="&#x175;" horiz-adv-x="800" 
d="M494 0l-94 284l-93 -284h-136l-166 500h146l95 -320l101 320h105l102 -320l94 320h147l-165 -500h-136zM215 578l127 152h118l127 -152h-121l-65 67l-65 -67h-121z" />
    <glyph glyph-name="Ycircumflex" unicode="&#x176;" horiz-adv-x="690" 
d="M272 0v299l-262 411h168l166 -269l167 269h169l-263 -412v-298h-145zM164 768l117 137h128l117 -137h-125l-56 56l-56 -56h-125z" />
    <glyph glyph-name="ycircumflex" unicode="&#x177;" horiz-adv-x="570" 
d="M263 -194h-149l98 222l-210 472h150l134 -324l133 324h151zM102 578l127 152h118l127 -152h-121l-65 67l-65 -67h-121z" />
    <glyph glyph-name="Ydieresis" unicode="&#x178;" horiz-adv-x="690" 
d="M272 0v299l-262 411h168l166 -269l167 269h169l-263 -412v-298h-145zM228 772q-32 0 -54 22t-22 53q0 32 22 54t54 22q31 0 53 -22t22 -54q0 -31 -22 -53t-53 -22zM463 772q-32 0 -54 22t-22 53q0 32 22 54t54 22q31 0 53 -22t22 -54q0 -31 -22 -53t-53 -22z" />
    <glyph glyph-name="Zacute" unicode="&#x179;" horiz-adv-x="618" 
d="M38 0v99l339 473h-333v138h529v-99l-341 -473h348v-138h-542zM261 768l72 137h153l-123 -137h-102z" />
    <glyph glyph-name="zacute" unicode="&#x17a;" horiz-adv-x="498" 
d="M41 0v107l234 269h-231v124h408v-108l-234 -268h242v-124h-419zM194 560l82 170h159l-139 -170h-102z" />
    <glyph glyph-name="Zdotaccent" unicode="&#x17b;" horiz-adv-x="618" 
d="M38 0v99l339 473h-333v138h529v-99l-341 -473h348v-138h-542zM310 772q-32 0 -54 22t-22 53q0 32 22 54t54 22q31 0 53 -22t22 -54q0 -31 -22 -53t-53 -22z" />
    <glyph glyph-name="zdotaccent" unicode="&#x17c;" horiz-adv-x="498" 
d="M41 0v107l234 269h-231v124h408v-108l-234 -268h242v-124h-419zM248 569q-32 0 -54 22t-22 52q0 32 22 54.5t54 22.5q31 0 53 -22.5t22 -54.5q0 -30 -22 -52t-53 -22z" />
    <glyph glyph-name="Zcaron" unicode="&#x17d;" horiz-adv-x="618" 
d="M38 0v99l339 473h-333v138h529v-99l-341 -473h348v-138h-542zM246 768l-117 137h125l56 -56l56 56h125l-117 -137h-128z" />
    <glyph glyph-name="zcaron" unicode="&#x17e;" horiz-adv-x="498" 
d="M41 0v107l234 269h-231v124h408v-108l-234 -268h242v-124h-419zM62 730h121l65 -68l65 68h121l-127 -152h-118z" />
    <glyph glyph-name="uni018F" unicode="&#x18f;" horiz-adv-x="804" 
d="M400 -12q-155 0 -261 107t-106 260v62h579q-21 74 -79.5 119.5t-137.5 45.5q-115 0 -185 -80l-97 98q114 122 287 122q151 0 259 -106.5t108 -260.5q0 -153 -107 -260t-260 -107zM400 128q77 0 134 45t78 116h-425q14 -70 74 -115.5t139 -45.5z" />
    <glyph glyph-name="uni0218" unicode="&#x218;" horiz-adv-x="570" 
d="M286 -12q-84 0 -153 33.5t-107 93.5l112 93q26 -39 67 -61.5t86 -22.5q43 0 69.5 19t26.5 50q0 30 -23.5 52t-76.5 40l-60 21q-175 61 -175 203q0 98 67 155.5t173 57.5q134 0 225 -98l-97 -99q-49 61 -126 61q-39 0 -67 -16.5t-28 -46.5q0 -31 24 -49t85 -40l57 -21
q170 -64 169 -211q0 -95 -69 -154.5t-179 -59.5zM306 -322h-63l32 112h-55v132h133v-132z" />
    <glyph glyph-name="uni0219" unicode="&#x219;" horiz-adv-x="459" 
d="M234 -11q-142 0 -206 96l94 80q36 -58 112 -58q23 0 39 9t16 27q0 16 -13.5 26.5t-53.5 21.5l-37 9q-69 18 -104.5 60t-33.5 100q2 68 54.5 109.5t133.5 41.5q115 0 173 -84l-90 -73q-35 44 -85 44q-20 0 -35 -9t-15 -25q0 -30 49 -43l47 -14q145 -39 145 -155
q0 -71 -54 -117t-136 -46zM244 -322h-63l32 112h-55v132h133v-132z" />
    <glyph glyph-name="uni021A" unicode="&#x21a;" horiz-adv-x="568" 
d="M210 0v572h-189v138h526v-138h-191v-572h-146zM304 -322h-63l32 112h-55v132h133v-132z" />
    <glyph glyph-name="uni021B" unicode="&#x21b;" horiz-adv-x="464" 
d="M329 -6q-88 0 -141 46t-53 135v205h-121v120h121v150h137v-150h151v-120h-151v-178q0 -45 18.5 -64.5t57.5 -19.5q37 0 69 17l41 -112q-54 -29 -129 -29zM320 -322h-63l32 112h-55v132h133v-132z" />
    <glyph glyph-name="uni0232" unicode="&#x232;" horiz-adv-x="690" 
d="M272 0v299l-262 411h168l166 -269l167 269h169l-263 -412v-298h-145zM174 791v96h342v-96h-342z" />
    <glyph glyph-name="uni0233" unicode="&#x233;" horiz-adv-x="570" 
d="M263 -194h-149l98 222l-210 472h150l134 -324l133 324h151zM117 613v97h342v-97h-342z" />
    <glyph glyph-name="uni0237" unicode="&#x237;" horiz-adv-x="277" 
d="M27 -199q-31 0 -64.5 7t-48.5 15l31 112q31 -15 64 -15q65 0 65 84v496h137v-518q0 -88 -51.5 -134.5t-132.5 -46.5z" />
    <glyph glyph-name="uni0259" unicode="&#x259;" horiz-adv-x="576" 
d="M288 -11q-109 0 -182.5 67t-73.5 179q0 33 2 47h374q-6 48 -42.5 76t-81.5 28q-77 0 -118 -63l-102 76q79 112 220 112q113 0 185 -72t72 -189q0 -112 -70.5 -186.5t-182.5 -74.5zM287 102q39 0 73 22.5t43 64.5h-234q9 -43 41 -65t77 -22z" />
    <glyph glyph-name="uni02BB" unicode="&#x2bb;" horiz-adv-x="270" 
d="M197 710l-48 -167h68v-167h-167v168l69 166h78z" />
    <glyph glyph-name="uni02BC" unicode="&#x2bc;" horiz-adv-x="258" 
d="M69 376l48 167h-68v167h167v-167l-69 -167h-78z" />
    <glyph glyph-name="circumflex" unicode="&#x2c6;" 
d="M-186 578l127 152h118l127 -152h-121l-65 67l-65 -67h-121z" />
    <glyph glyph-name="caron" unicode="&#x2c7;" 
d="M-186 730h121l65 -68l65 68h121l-127 -152h-118z" />
    <glyph glyph-name="breve" unicode="&#x2d8;" 
d="M0 548q-74 0 -124 48.5t-50 125.5v8h80v-8q0 -45 26.5 -69.5t67.5 -24.5t67.5 24.5t26.5 69.5v8h80v-8q0 -77 -50 -125.5t-124 -48.5z" />
    <glyph glyph-name="dotaccent" unicode="&#x2d9;" 
d="M0 569q-32 0 -54 22t-22 52q0 32 22 54.5t54 22.5q31 0 53 -22.5t22 -54.5q0 -30 -22 -52t-53 -22z" />
    <glyph glyph-name="ring" unicode="&#x2da;" 
d="M0 542q-50 0 -86 35.5t-36 85.5q0 49 36 84.5t86 35.5t86 -35.5t36 -84.5q0 -50 -36 -85.5t-86 -35.5zM0 605q25 0 42 17t17 41t-17 41t-42 17q-24 0 -41.5 -17t-17.5 -41t17.5 -41t41.5 -17z" />
    <glyph glyph-name="ogonek" unicode="&#x2db;" 
d="M1 -204q-48 0 -78 24.5t-30 66.5q0 35 15.5 60.5t46.5 52.5h137q-41 -21 -60.5 -40t-19.5 -41q0 -28 29 -28q13 0 28 9l37 -73q-44 -31 -105 -31z" />
    <glyph glyph-name="tilde" unicode="&#x2dc;" 
d="M-189 571l4 26q8 52 41.5 82t76.5 30q34 0 77 -23t55 -23q19 0 28.5 11t15.5 36h79l-4 -26q-8 -52 -41.5 -82t-76.5 -30q-34 0 -77 23t-55 23q-19 0 -28.5 -11t-15.5 -36h-79z" />
    <glyph glyph-name="hungarumlaut" unicode="&#x2dd;" 
d="M-192 560l52 170h147l-109 -170h-90zM-7 560l52 170h147l-109 -170h-90z" />
    <glyph glyph-name="uni0401" unicode="&#x401;" horiz-adv-x="568" 
d="M79 0v710h442v-138h-297v-146h237v-138h-237v-150h297v-138h-442zM182 772q-32 0 -54 22t-22 53q0 32 22 54t54 22q31 0 53 -22t22 -54q0 -31 -22 -53t-53 -22zM417 772q-32 0 -54 22t-22 53q0 32 22 54t54 22q31 0 53 -22t22 -54q0 -31 -22 -53t-53 -22z" />
    <glyph glyph-name="uni0402" unicode="&#x402;" horiz-adv-x="771" 
d="M500 447q113 0 177 -64t64 -173t-67.5 -165.5t-161.5 -56.5q-50 0 -92 11l23 129q42 -7 61 -7q39 0 66.5 23t27.5 65q0 100 -125 100q-67 0 -132 -23v-286h-145v572h-175v138h534v-138h-214v-149q69 24 159 24z" />
    <glyph glyph-name="uni0403" unicode="&#x403;" horiz-adv-x="521" 
d="M499 710v-138h-274v-572h-146v710h420zM241 768l72 137h153l-123 -137h-102z" />
    <glyph glyph-name="uni0404" unicode="&#x404;" horiz-adv-x="757" 
d="M404 -14q-152 0 -259.5 107.5t-107.5 259.5t107.5 259.5t259.5 107.5q106 0 194 -51.5t134 -137.5l-126 -70q-71 120 -202 120q-75 0 -133 -45.5t-79 -116.5h302v-128h-303q21 -72 79 -118.5t134 -46.5q131 0 202 119l126 -69q-47 -87 -134 -138.5t-194 -51.5z" />
    <glyph glyph-name="uni0405" unicode="&#x405;" horiz-adv-x="571" 
d="M286 -12q-84 0 -152.5 33.5t-106.5 93.5l111 93q26 -39 67.5 -61.5t86.5 -22.5q43 0 69 19t26 50q0 30 -23 52t-76 40l-60 21q-175 61 -175 203q0 98 67 155.5t173 57.5q136 0 224 -98l-96 -99q-51 61 -127 61q-39 0 -67 -16.5t-28 -46.5q0 -31 24.5 -49t85.5 -40l57 -21
q169 -63 169 -211q0 -95 -69.5 -154.5t-179.5 -59.5z" />
    <glyph glyph-name="uni0406" unicode="&#x406;" horiz-adv-x="303" 
d="M79 0v710h145v-710h-145z" />
    <glyph glyph-name="uni0407" unicode="&#x407;" horiz-adv-x="303" 
d="M79 0v710h145v-710h-145zM55 787q-32 0 -54 22t-22 53q0 32 22 54t54 22q31 0 53 -22t22 -54q0 -31 -22 -53t-53 -22zM244 787q-31 0 -53 22t-22 53q0 32 22 54t53 22q32 0 54 -22t22 -54q0 -31 -22 -53t-54 -22z" />
    <glyph glyph-name="uni0408" unicode="&#x408;" horiz-adv-x="470" 
d="M179 -12q-110 0 -179 69l83 106q40 -40 90 -40q35 0 57 20t22 60v507h145v-516q0 -102 -63 -154t-155 -52z" />
    <glyph glyph-name="uni0409" unicode="&#x409;" horiz-adv-x="1046" 
d="M875 215q0 74 -103 74h-115v-153h115q103 0 103 79zM145 710h512v-283h117q110 0 176 -58.5t66 -150.5q0 -93 -68.5 -155.5t-173.5 -62.5h-262v572h-221v-340q0 -118 -52.5 -181t-143.5 -63q-52 0 -88 11l24 128q20 -5 41 -5q38 0 55.5 27t17.5 100v461z" />
    <glyph glyph-name="uni040A" unicode="&#x40a;" horiz-adv-x="1045" 
d="M79 0v710h146v-283h295v283h145v-283h108q110 0 176.5 -58.5t66.5 -150.5q0 -93 -69 -155.5t-174 -62.5h-253v289h-295v-289h-146zM771 289h-106v-153h106q103 0 103 79q0 74 -103 74z" />
    <glyph glyph-name="uni040B" unicode="&#x40b;" horiz-adv-x="781" 
d="M196 572h-175v138h534v-138h-214v-148q66 23 159 23q105 0 172 -63t67 -163v-221h-146v185q0 123 -117 123q-76 0 -135 -24v-284h-145v572z" />
    <glyph glyph-name="uni040C" unicode="&#x40c;" horiz-adv-x="694" 
d="M531 0l-308 322v-322h-144v710h144v-301l256 301h179l-292 -341l353 -369h-188zM301 768l72 137h153l-123 -137h-102z" />
    <glyph glyph-name="uni040E" unicode="&#x40e;" horiz-adv-x="724" 
d="M117 -2l28 135q38 -8 60 -8q31 0 52 10.5t40 38.5l-277 536h166l193 -374l187 374h165l-272 -537q-48 -98 -105 -141.5t-137 -43.5q-54 0 -100 10zM377 750q-74 0 -124 48.5t-50 126.5h90q0 -43 23 -68.5t61 -25.5t61 25.5t23 68.5h90q0 -78 -50 -126.5t-124 -48.5z" />
    <glyph glyph-name="uni040F" unicode="&#x40f;" horiz-adv-x="728" 
d="M430 0v-148h-131v148h-220v710h146v-572h278v572h145v-710h-218z" />
    <glyph glyph-name="uni0410" unicode="&#x410;" horiz-adv-x="743" 
d="M1 0l306 710h129l307 -710h-152l-69 162h-303l-68 -162h-150zM371 519l-98 -230h195z" />
    <glyph glyph-name="uni0411" unicode="&#x411;" horiz-adv-x="637" 
d="M225 444h141q105 0 173.5 -62t68.5 -160q0 -97 -68.5 -159.5t-173.5 -62.5h-287v710h468v-138h-322v-128zM467 222q0 42 -28 65.5t-75 23.5h-139v-177h139q47 0 75 23t28 65z" />
    <glyph glyph-name="uni0412" unicode="&#x412;" horiz-adv-x="634" 
d="M79 0v710h260q89 0 150 -60.5t61 -145.5q0 -77 -56 -127q105 -52 105 -168q0 -89 -63 -149t-157 -60h-300zM224 133h145q41 0 65 22.5t24 58.5t-24 59t-65 23h-145v-163zM224 419h101q38 0 61 22.5t23 56.5q0 33 -23.5 56.5t-60.5 23.5h-101v-159z" />
    <glyph glyph-name="uni0413" unicode="&#x413;" horiz-adv-x="521" 
d="M499 710v-138h-274v-572h-146v710h420z" />
    <glyph glyph-name="uni0414" unicode="&#x414;" horiz-adv-x="775" 
d="M612 -148v148h-452v-148h-131v286h12q91 0 91 202v370h520v-572h91v-286h-131zM277 572v-245q0 -123 -38 -189h268v434h-230z" />
    <glyph glyph-name="uni0415" unicode="&#x415;" horiz-adv-x="568" 
d="M79 0v710h442v-138h-297v-146h237v-138h-237v-150h297v-138h-442z" />
    <glyph glyph-name="uni0416" unicode="&#x416;" horiz-adv-x="1020" 
d="M857 0l-275 310v-310h-145v308l-274 -308h-180l315 359l-284 351h171l252 -312v312h145v-313l253 313h172l-285 -351l315 -359h-180z" />
    <glyph glyph-name="uni0417" unicode="&#x417;" horiz-adv-x="577" 
d="M115 533l-79 101q99 88 246 88q100 0 165 -51.5t65 -142.5q0 -100 -71 -152q96 -54 96 -168q0 -102 -72.5 -160.5t-181.5 -58.5q-172 0 -267 124l104 89q60 -78 161 -78q55 0 85 27t30 68q0 39 -28.5 62t-83.5 23h-106v122h98q47 0 71.5 22t24.5 59t-26 59.5t-77 22.5
q-88 0 -154 -56z" />
    <glyph glyph-name="uni0418" unicode="&#x418;" horiz-adv-x="792" 
d="M204 0h-125v710h146v-463l363 463h125v-710h-144v464z" />
    <glyph glyph-name="uni0419" unicode="&#x419;" horiz-adv-x="792" 
d="M204 0h-125v710h146v-463l363 463h125v-710h-144v464zM406 750q-74 0 -124 48.5t-50 126.5h90q0 -43 23 -68.5t61 -25.5t61 25.5t23 68.5h90q0 -78 -50 -126.5t-124 -48.5z" />
    <glyph glyph-name="uni041A" unicode="&#x41a;" horiz-adv-x="694" 
d="M531 0l-308 322v-322h-144v710h144v-301l256 301h179l-292 -341l353 -369h-188z" />
    <glyph glyph-name="uni041B" unicode="&#x41b;" horiz-adv-x="745" 
d="M145 249v461h521v-710h-146v572h-229v-340q0 -118 -52.5 -181t-143.5 -63q-52 0 -88 11l24 128q20 -5 41 -5q38 0 55.5 27t17.5 100z" />
    <glyph glyph-name="uni041C" unicode="&#x41c;" horiz-adv-x="884" 
d="M79 0v710h132l230 -374l231 374h132v-710h-145v433l-169 -275h-96l-170 276v-434h-145z" />
    <glyph glyph-name="uni041D" unicode="&#x41d;" horiz-adv-x="756" 
d="M79 0v710h145v-283h308v283h145v-710h-145v289h-308v-289h-145z" />
    <glyph glyph-name="uni041E" unicode="&#x41e;" horiz-adv-x="808" 
d="M404 128q92 0 156.5 66.5t64.5 160.5t-64.5 160.5t-156.5 66.5t-156.5 -66.5t-64.5 -160.5t64.5 -160.5t156.5 -66.5zM404 -12q-152 0 -259.5 107.5t-107.5 259.5t107.5 259.5t259.5 107.5t259.5 -107.5t107.5 -259.5t-107.5 -259.5t-259.5 -107.5z" />
    <glyph glyph-name="uni041F" unicode="&#x41f;" horiz-adv-x="748" 
d="M524 0v572h-300v-572h-145v710h590v-710h-145z" />
    <glyph glyph-name="uni0420" unicode="&#x420;" horiz-adv-x="591" 
d="M564 471q0 -102 -71 -170.5t-178 -68.5h-91v-232h-145v710h236q107 0 178 -68.5t71 -170.5zM423 471q0 45 -30 74t-80 29h-89v-206h89q50 0 80 29t30 74z" />
    <glyph glyph-name="uni0421" unicode="&#x421;" horiz-adv-x="753" 
d="M404 -12q-152 0 -259.5 107.5t-107.5 259.5t107.5 259.5t259.5 107.5q106 0 194 -51.5t134 -137.5l-126 -70q-70 119 -202 119q-92 0 -156.5 -66.5t-64.5 -160.5t64.5 -160.5t156.5 -66.5q132 0 202 119l126 -70q-46 -87 -133 -138t-195 -51z" />
    <glyph glyph-name="uni0422" unicode="&#x422;" horiz-adv-x="568" 
d="M210 0v572h-189v138h526v-138h-191v-572h-146z" />
    <glyph glyph-name="uni0423" unicode="&#x423;" horiz-adv-x="724" 
d="M117 -2l28 135q38 -8 60 -8q31 0 52 10.5t40 38.5l-277 536h166l193 -374l187 374h165l-272 -537q-48 -98 -105 -141.5t-137 -43.5q-54 0 -100 10z" />
    <glyph glyph-name="uni0424" unicode="&#x424;" horiz-adv-x="898" 
d="M376 190v338h-1q-193 0 -193 -168q0 -79 46.5 -124.5t146.5 -45.5h1zM522 658h1q156 0 247.5 -78.5t91.5 -220.5q0 -144 -91.5 -222.5t-247.5 -78.5h-1v-88h-146v88h-1q-157 0 -248 78.5t-91 222.5q0 142 91 220.5t248 78.5h1v82h146v-82zM522 190h1q99 0 146 45.5
t47 124.5t-47 123.5t-146 44.5h-1v-338z" />
    <glyph glyph-name="uni0425" unicode="&#x425;" horiz-adv-x="697" 
d="M164 0h-170l267 359l-252 351h168l171 -239l172 239h168l-253 -351l268 -359h-170l-185 246z" />
    <glyph glyph-name="uni0426" unicode="&#x426;" horiz-adv-x="770" 
d="M646 138h92v-286h-131v148h-528v710h146v-572h276v572h145v-572z" />
    <glyph glyph-name="uni0427" unicode="&#x427;" horiz-adv-x="687" 
d="M608 0h-146v268q-72 -24 -164 -24q-108 0 -181 64t-73 165v237h145v-201q0 -65 37 -95t97 -30q85 0 139 23v303h146v-710z" />
    <glyph glyph-name="uni0428" unicode="&#x428;" horiz-adv-x="978" 
d="M79 0v710h146v-572h191v572h146v-572h192v572h145v-710h-820z" />
    <glyph glyph-name="uni0429" unicode="&#x429;" horiz-adv-x="1023" 
d="M860 -148v148h-781v710h146v-572h191v572h146v-572h192v572h145v-572h92v-286h-131z" />
    <glyph glyph-name="uni042A" unicode="&#x42a;" horiz-adv-x="733" 
d="M343 454h118q106 0 174 -64t68 -163t-68 -163t-174 -64h-264v572h-176v138h322v-256zM343 134h115q49 0 76.5 23.5t27.5 69.5q0 45 -28 69t-76 24h-115v-186z" />
    <glyph glyph-name="uni042B" unicode="&#x42b;" horiz-adv-x="899" 
d="M225 454h118q106 0 174 -64t68 -163t-68 -163t-174 -64h-264v710h146v-256zM225 134h115q49 0 76.5 23.5t27.5 69.5q0 45 -28 69t-76 24h-115v-186zM675 0v710h145v-710h-145z" />
    <glyph glyph-name="uni042C" unicode="&#x42c;" horiz-adv-x="615" 
d="M225 454h118q106 0 174 -64t68 -163t-68 -163t-174 -64h-264v710h146v-256zM225 134h115q49 0 76.5 23.5t27.5 69.5q0 45 -28 69t-76 24h-115v-186z" />
    <glyph glyph-name="uni042D" unicode="&#x42d;" horiz-adv-x="757" 
d="M353 -14q-107 0 -194 51.5t-134 138.5l126 69q71 -119 202 -119q76 0 134 46.5t79 118.5h-303v128h302q-21 71 -79 116.5t-133 45.5q-131 0 -202 -120l-126 70q46 86 134 137.5t194 51.5q152 0 259.5 -107.5t107.5 -259.5t-107.5 -259.5t-259.5 -107.5z" />
    <glyph glyph-name="uni042E" unicode="&#x42e;" horiz-adv-x="1077" 
d="M79 0v710h146v-286h108q23 132 119 215t231 83q152 0 254 -105t102 -262t-102 -262t-254 -105q-135 0 -232 84t-119 217h-107v-289h-146zM892 355q0 99 -59 163t-150 64q-92 0 -151 -64t-59 -163t59 -163t151 -64q91 0 150 64t59 163z" />
    <glyph glyph-name="uni042F" unicode="&#x42f;" horiz-adv-x="648" 
d="M423 0v246h-51l-218 -246h-175l241 274q-62 27 -99 80.5t-37 123.5q0 101 66.5 166.5t175.5 65.5h243v-710h-146zM225 478q0 -45 28 -72.5t74 -27.5h96v200h-96q-46 0 -74 -27.5t-28 -72.5z" />
    <glyph glyph-name="uni0430" unicode="&#x430;" horiz-adv-x="613" 
d="M282 -11q-108 0 -177.5 76.5t-69.5 184.5t69.5 184.5t177.5 76.5q79 0 128 -47v36h137v-500h-137v37q-48 -48 -128 -48zM302 114q68 0 108 55v163q-40 54 -108 54q-56 0 -91 -39.5t-35 -96.5t35 -96.5t91 -39.5z" />
    <glyph glyph-name="uni0431" unicode="&#x431;" horiz-adv-x="606" 
d="M309 -11q-126 0 -193 81.5t-67 225.5v29q0 188 74.5 278.5t226.5 118.5l153 28l22 -126l-145 -26q-87 -16 -133.5 -54t-55.5 -110q55 54 144 54q108 0 172 -68t64 -169q0 -110 -75.5 -186t-186.5 -76zM308 117q56 0 90.5 34.5t34.5 95.5q0 51 -35 86.5t-89 35.5
q-55 0 -89.5 -36t-34.5 -86q0 -61 34 -95.5t89 -34.5z" />
    <glyph glyph-name="uni0432" unicode="&#x432;" horiz-adv-x="556" 
d="M66 0v500h239q91 0 138.5 -44t47.5 -106q0 -46 -33 -84q65 -41 65 -114q0 -63 -45.5 -107.5t-137.5 -44.5h-274zM203 112h130q24 0 39 13t15 37q0 23 -15 36t-39 13h-130v-99zM203 303h102q20 0 35 11t15 35t-15 35t-35 11h-102v-92z" />
    <glyph glyph-name="uni0433" unicode="&#x433;" horiz-adv-x="428" 
d="M66 0v500h345v-120h-208v-380h-137z" />
    <glyph glyph-name="uni0434" unicode="&#x434;" horiz-adv-x="653" 
d="M29 120h13q70 0 70 129v251h430v-380h81v-243h-123v123h-348v-123h-123v243zM249 380v-139q0 -77 -25 -121h181v260h-156z" />
    <glyph glyph-name="uni0435" unicode="&#x435;" horiz-adv-x="578" 
d="M299 -11q-114 0 -189.5 72t-75.5 189q0 112 75 186.5t188 74.5q104 0 175 -64.5t71 -181.5q0 -33 -2 -47h-374q6 -49 43.5 -76.5t89.5 -27.5q88 0 129 63l102 -76q-77 -112 -232 -112zM172 311h234q-9 43 -40.5 65t-72.5 22q-42 0 -77 -22t-44 -65z" />
    <glyph glyph-name="uni0436" unicode="&#x436;" horiz-adv-x="824" 
d="M665 0l-184 200v-200h-137v202l-185 -202h-170l232 254l-199 246h159l163 -204v204h137v-201l161 201h159l-200 -246l234 -254h-170z" />
    <glyph glyph-name="uni0437" unicode="&#x437;" horiz-adv-x="480" 
d="M232 -11q-143 0 -216 104l92 66q41 -57 112 -57q88 0 88 56q0 52 -72 52h-71v94h67q64 0 64 48q0 23 -18 36.5t-53 13.5q-66 0 -112 -51l-78 77q80 83 198 83q98 0 145.5 -45.5t47.5 -102.5q0 -63 -48 -99q68 -41 68 -117q0 -61 -55.5 -109.5t-158.5 -48.5z" />
    <glyph glyph-name="uni0438" unicode="&#x438;" horiz-adv-x="616" 
d="M189 0h-123v500h137v-295l224 295h122v-500h-136v295z" />
    <glyph glyph-name="uni0439" unicode="&#x439;" horiz-adv-x="616" 
d="M189 0h-123v500h137v-295l224 295h122v-500h-136v295zM316 548q-74 0 -124 48.5t-50 125.5v8h90v-8q0 -42 23 -67.5t61 -25.5t61 25.5t23 67.5v8h90v-8q0 -77 -50 -125.5t-124 -48.5z" />
    <glyph glyph-name="uni043A" unicode="&#x43a;" horiz-adv-x="551" 
d="M393 0l-190 202v-202h-137v500h137v-204l169 204h163l-208 -246l242 -254h-176z" />
    <glyph glyph-name="uni043B" unicode="&#x43b;" horiz-adv-x="608" 
d="M83 -10q-33 0 -73 7l17 114q18 -2 26 -2q31 0 46 19.5t15 68.5v303h428v-500h-137v380h-154v-200q0 -93 -49.5 -141.5t-118.5 -48.5z" />
    <glyph glyph-name="uni043C" unicode="&#x43c;" horiz-adv-x="693" 
d="M66 500h117l164 -240l164 240h116v-500h-137v271l-104 -154h-79l-104 154v-271h-137v500z" />
    <glyph glyph-name="uni043D" unicode="&#x43d;" horiz-adv-x="612" 
d="M66 0v500h137v-189h206v189h137v-500h-137v192h-206v-192h-137z" />
    <glyph glyph-name="uni043E" unicode="&#x43e;" horiz-adv-x="592" 
d="M296 -11q-109 0 -186 75.5t-77 185.5q0 109 77 185t186 76t186 -76t77 -185q0 -110 -77 -185.5t-186 -75.5zM296 117q53 0 88.5 37.5t35.5 95.5t-35.5 95.5t-88.5 37.5q-54 0 -89.5 -37.5t-35.5 -95.5t35.5 -95.5t89.5 -37.5z" />
    <glyph glyph-name="uni043F" unicode="&#x43f;" horiz-adv-x="602" 
d="M66 0v500h470v-500h-137v380h-196v-380h-137z" />
    <glyph glyph-name="uni0440" unicode="&#x440;" horiz-adv-x="612" 
d="M66 -194v694h137v-36q49 47 128 47q108 0 177.5 -76.5t69.5 -184.5t-69.5 -184.5t-177.5 -76.5q-80 0 -128 48v-231h-137zM311 114q56 0 91 39.5t35 96.5t-35 96.5t-91 39.5q-68 0 -108 -54v-163q40 -55 108 -55z" />
    <glyph glyph-name="uni0441" unicode="&#x441;" horiz-adv-x="558" 
d="M299 -11q-112 0 -188.5 74.5t-76.5 186.5t76.5 186.5t188.5 74.5q77 0 140.5 -39.5t96.5 -104.5l-119 -64q-16 36 -46.5 58t-71.5 22q-54 0 -90.5 -38t-36.5 -95t36.5 -95t90.5 -38q41 0 71.5 22t46.5 58l119 -64q-33 -65 -96.5 -104.5t-140.5 -39.5z" />
    <glyph glyph-name="uni0442" unicode="&#x442;" horiz-adv-x="459" 
d="M156 0v380h-138v120h423v-120h-148v-380h-137z" />
    <glyph glyph-name="uni0443" unicode="&#x443;" horiz-adv-x="570" 
d="M570 500l-240 -543q-37 -82 -83.5 -119t-118.5 -37q-46 0 -79 9l22 116q21 -5 44 -5q49 0 81 69l16 38l-210 472h150l138 -313l129 313h151z" />
    <glyph glyph-name="uni0444" unicode="&#x444;" horiz-adv-x="764" 
d="M451 -193h-137v182h-11q-125 0 -197 76t-72 185t72 185t197 76h11v219h137v-219h10q125 0 197 -76t72 -185t-72 -185t-197 -76h-10v-182zM461 385h-10v-270h10q60 0 95.5 39.5t35.5 95.5t-36 95.5t-95 39.5zM314 115v270h-11q-59 0 -95 -39.5t-36 -95.5t35.5 -95.5
t95.5 -39.5h11z" />
    <glyph glyph-name="uni0445" unicode="&#x445;" horiz-adv-x="567" 
d="M400 0l-116 147l-116 -147h-165l194 245l-189 255h162l113 -153l113 153h163l-189 -255l194 -245h-164z" />
    <glyph glyph-name="uni0446" unicode="&#x446;" horiz-adv-x="646" 
d="M619 120v-243h-123v123h-430v500h137v-380h196v380h137v-380h83z" />
    <glyph glyph-name="uni0447" unicode="&#x447;" horiz-adv-x="564" 
d="M498 0h-137v179q-49 -26 -133 -26q-81 0 -136.5 45t-55.5 130v172h137v-156q0 -71 89 -71q59 0 99 27v200h137v-500z" />
    <glyph glyph-name="uni0448" unicode="&#x448;" horiz-adv-x="833" 
d="M66 0v500h137v-380h145v380h137v-380h145v380h137v-500h-701z" />
    <glyph glyph-name="uni0449" unicode="&#x449;" horiz-adv-x="878" 
d="M849 120v-243h-122v123h-661v500h137v-380h145v380h137v-380h145v380h137v-380h82z" />
    <glyph glyph-name="uni044A" unicode="&#x44a;" horiz-adv-x="584" 
d="M144 0v381h-125v119h262v-149h94q91 0 137.5 -53.5t46.5 -119.5q0 -67 -46.5 -122.5t-137.5 -55.5h-231zM281 234v-117h78q70 0 70 60q0 57 -70 57h-78z" />
    <glyph glyph-name="uni044B" unicode="&#x44b;" horiz-adv-x="752" 
d="M548 0v500h137v-500h-137zM66 0v500h137v-149h94q91 0 137.5 -53.5t46.5 -119.5q0 -67 -46.5 -122.5t-137.5 -55.5h-231zM203 234v-117h78q71 0 71 60q0 57 -71 57h-78z" />
    <glyph glyph-name="uni044C" unicode="&#x44c;" horiz-adv-x="506" 
d="M66 0v500h137v-149h94q91 0 137.5 -53.5t46.5 -119.5q0 -67 -46.5 -122.5t-137.5 -55.5h-231zM203 234v-117h78q71 0 71 60q0 57 -71 57h-78z" />
    <glyph glyph-name="uni044D" unicode="&#x44d;" horiz-adv-x="560" 
d="M261 -11q-77 0 -140.5 39.5t-96.5 104.5l119 64q16 -36 46.5 -58t71.5 -22q45 0 77.5 25.5t44.5 67.5h-170v91h167q-15 37 -46.5 59.5t-72.5 22.5t-71.5 -22t-46.5 -58l-119 64q33 65 96.5 104.5t140.5 39.5q112 0 188.5 -74.5t76.5 -186.5t-76.5 -186.5t-188.5 -74.5z
" />
    <glyph glyph-name="uni044E" unicode="&#x44e;" horiz-adv-x="821" 
d="M531 -11q-92 0 -159.5 56.5t-88.5 145.5h-80v-191h-137v500h137v-190h80q18 88 86.5 144.5t161.5 56.5q110 0 182.5 -76t72.5 -185t-72.5 -185t-182.5 -76zM531 117q53 0 85 37.5t32 95.5t-32 95.5t-85 37.5t-84.5 -37t-31.5 -95q0 -59 32 -96.5t84 -37.5z" />
    <glyph glyph-name="uni044F" unicode="&#x44f;" horiz-adv-x="541" 
d="M-11 0l172 190q-91 45 -91 142q0 74 49 121t135 47h221v-500h-137v158h-48l-146 -158h-155zM262 268h76v121h-77q-62 0 -62 -63q0 -27 18 -42.5t45 -15.5z" />
    <glyph glyph-name="uni0451" unicode="&#x451;" horiz-adv-x="578" 
d="M299 -11q-114 0 -189.5 72t-75.5 189q0 112 75 186.5t188 74.5q104 0 175 -64.5t71 -181.5q0 -33 -2 -47h-374q6 -49 43.5 -76.5t89.5 -27.5q88 0 129 63l102 -76q-77 -112 -232 -112zM172 311h234q-9 43 -40.5 65t-72.5 22q-42 0 -77 -22t-44 -65zM179 569q-32 0 -54 22
t-22 52q0 32 22 54.5t54 22.5q31 0 53 -22.5t22 -54.5q0 -30 -22 -52t-53 -22zM414 569q-32 0 -54 22t-22 52q0 32 22 54.5t54 22.5q31 0 53 -22.5t22 -54.5q0 -30 -22 -52t-53 -22z" />
    <glyph glyph-name="uni0452" unicode="&#x452;" horiz-adv-x="599" 
d="M240 -177l32 112q29 -15 65 -15q65 0 65 84v262q0 56 -23 88t-70 32q-72 0 -106 -57v-329h-137v567h-88v91h88v72h137v-72h166v-91h-166v-109q51 53 136 53q94 0 147 -60.5t53 -161.5v-307q0 -88 -51.5 -134.5t-132.5 -46.5q-67 0 -115 22z" />
    <glyph glyph-name="uni0453" unicode="&#x453;" horiz-adv-x="428" 
d="M66 0v500h345v-120h-208v-380h-137zM183 560l82 170h159l-139 -170h-102z" />
    <glyph glyph-name="uni0454" unicode="&#x454;" horiz-adv-x="560" 
d="M299 -11q-112 0 -188.5 74.5t-76.5 186.5t76.5 186.5t188.5 74.5q77 0 140.5 -39.5t96.5 -104.5l-119 -64q-16 36 -46.5 58t-71.5 22t-72.5 -22.5t-46.5 -59.5h167v-91h-170q12 -42 44.5 -67.5t77.5 -25.5q41 0 71.5 22t46.5 58l119 -64q-33 -65 -96.5 -104.5
t-140.5 -39.5z" />
    <glyph glyph-name="uni0455" unicode="&#x455;" horiz-adv-x="460" 
d="M234 -11q-141 0 -205 96l94 80q33 -58 112 -58q23 0 38.5 9t15.5 27q0 17 -13 27t-53 21l-37 9q-69 18 -104.5 60t-33.5 100q2 68 54.5 109.5t133.5 41.5q114 0 173 -84l-91 -73q-33 44 -84 44q-20 0 -35 -9t-15 -25q0 -30 48 -43l48 -14q145 -39 145 -155
q0 -71 -54.5 -117t-136.5 -46z" />
    <glyph glyph-name="uni0456" unicode="&#x456;" horiz-adv-x="269" 
d="M134 562q-35 0 -61 25.5t-26 61.5t26 61.5t61 25.5q37 0 62.5 -25.5t25.5 -61.5t-25.5 -61.5t-62.5 -25.5zM66 0v500h137v-500h-137z" />
    <glyph glyph-name="uni0457" unicode="&#x457;" horiz-adv-x="269" 
d="M66 0v500h137v-500h-137zM40 577q-32 0 -54 22t-22 53q0 32 22 54t54 22q31 0 53 -22t22 -54q0 -31 -22 -53t-53 -22zM229 577q-31 0 -53 22t-22 53q0 32 22 54t53 22q32 0 54 -22t22 -54q0 -31 -22 -53t-54 -22z" />
    <glyph glyph-name="uni0458" unicode="&#x458;" horiz-adv-x="277" 
d="M27 -199q-31 0 -64.5 7t-48.5 15l31 112q31 -15 64 -15q65 0 65 84v496h137v-518q0 -88 -51.5 -134.5t-132.5 -46.5zM142 562q-35 0 -61 25.5t-26 61.5t26 61.5t61 25.5q37 0 62.5 -25.5t25.5 -61.5t-25.5 -61.5t-62.5 -25.5z" />
    <glyph glyph-name="uni0459" unicode="&#x459;" horiz-adv-x="831" 
d="M539 197v-82h89q49 0 49 40q0 20 -13.5 31t-35.5 11h-89zM114 500h425v-189h103q81 0 122.5 -46.5t41.5 -105.5q0 -60 -41.5 -109.5t-122.5 -49.5h-240v380h-151v-200q0 -93 -49.5 -141.5t-118.5 -48.5q-33 0 -73 7l17 114q18 -2 26 -2q31 0 46 19.5t15 68.5v303z" />
    <glyph glyph-name="uni045A" unicode="&#x45a;" horiz-adv-x="828" 
d="M674 155q0 20 -13.5 31t-35.5 11h-89v-82h89q49 0 49 40zM803 159q0 -60 -42 -109.5t-123 -49.5h-239v192h-196v-192h-137v500h137v-189h196v189h137v-189h102q82 0 123.5 -46.5t41.5 -105.5z" />
    <glyph glyph-name="uni045B" unicode="&#x45b;" horiz-adv-x="599" 
d="M402 0v267q0 56 -23.5 87.5t-69.5 31.5q-70 0 -106 -57v-329h-137v567h-88v91h88v72h137v-72h166v-91h-166v-109q48 53 136 53q93 0 146.5 -60.5t53.5 -160.5v-290h-137z" />
    <glyph glyph-name="uni045C" unicode="&#x45c;" horiz-adv-x="551" 
d="M393 0l-190 202v-202h-137v500h137v-204l169 204h163l-208 -246l242 -254h-176zM243 560l82 170h159l-139 -170h-102z" />
    <glyph glyph-name="uni045E" unicode="&#x45e;" horiz-adv-x="570" 
d="M570 500l-240 -543q-37 -82 -83.5 -119t-118.5 -37q-46 0 -79 9l22 116q21 -5 44 -5q49 0 81 69l16 38l-210 472h150l138 -313l129 313h151zM286 548q-74 0 -124 48.5t-50 125.5v8h90v-8q0 -42 23 -67.5t61 -25.5t61 25.5t23 67.5v8h90v-8q0 -77 -50 -125.5t-124 -48.5z
" />
    <glyph glyph-name="uni045F" unicode="&#x45f;" horiz-adv-x="603" 
d="M537 0h-174v-123h-122v123h-175v500h137v-379h197v379h137v-500z" />
    <glyph glyph-name="uni0462" unicode="&#x462;" horiz-adv-x="751" 
d="M355 438h118q106 0 174 -61t68 -158q0 -95 -68 -157t-174 -62h-264v516h-180v127h180v67h146v-67h218v-127h-218v-78zM355 134h115q49 0 76.5 21.5t27.5 63.5q0 41 -28 63t-76 22h-115v-170z" />
    <glyph glyph-name="uni0463" unicode="&#x463;" horiz-adv-x="562" 
d="M17 410v90h98v230h137v-230h170v-90h-170v-59h94q91 0 137.5 -53.5t46.5 -119.5q0 -67 -46.5 -122.5t-137.5 -55.5h-231v410h-98zM331 234h-79v-117h79q70 0 70 60q0 57 -70 57z" />
    <glyph glyph-name="uni0472" unicode="&#x472;" horiz-adv-x="808" 
d="M404 128q92 0 156.5 66.5t64.5 160.5t-64.5 160.5t-156.5 66.5t-156.5 -66.5t-64.5 -160.5t64.5 -160.5t156.5 -66.5zM404 -12q-152 0 -259.5 107.5t-107.5 259.5t107.5 259.5t259.5 107.5t259.5 -107.5t107.5 -259.5t-107.5 -259.5t-259.5 -107.5zM501 401q75 0 129 39
v-127q-53 -38 -129 -38q-37 0 -101 19t-95 19q-74 0 -129 -38v126q54 39 129 39q46 0 105.5 -19.5t90.5 -19.5z" />
    <glyph glyph-name="uni0473" unicode="&#x473;" horiz-adv-x="592" 
d="M296 -11q-109 0 -186 75.5t-77 185.5q0 109 77 185t186 76t186 -76t77 -185q0 -110 -77 -185.5t-186 -75.5zM296 117q53 0 88.5 37.5t35.5 95.5t-35.5 95.5t-88.5 37.5q-54 0 -89.5 -37.5t-35.5 -95.5t35.5 -95.5t89.5 -37.5zM106 295v-87h380v87h-380z" />
    <glyph glyph-name="uni0474" unicode="&#x474;" horiz-adv-x="789" 
d="M161 710l199 -493l136 334q36 95 83 133t117 38q52 0 90 -15l-34 -130q-45 10 -71.5 -6.5t-47.5 -71.5l-208 -499h-129l-293 710h158z" />
    <glyph glyph-name="uni0475" unicode="&#x475;" horiz-adv-x="607" 
d="M1 500h151l132 -319l73 175q36 86 76 120.5t102 34.5q34 0 72 -10l-29 -119q-31 6 -49.5 -4.5t-33.5 -47.5l-148 -330h-125z" />
    <glyph glyph-name="uni0490" unicode="&#x490;" horiz-adv-x="521" 
d="M499 710v-138h-274v-572h-146v710h420zM499 710h-131v148h131v-148z" />
    <glyph glyph-name="uni0491" unicode="&#x491;" horiz-adv-x="428" 
d="M66 0v500h345v-120h-208v-380h-137zM411 500h-123v123h123v-123z" />
    <glyph glyph-name="uni0492" unicode="&#x492;" horiz-adv-x="552" 
d="M529 710v-138h-274v-572h-146v710h420zM20 292v128h397v-128h-397z" />
    <glyph glyph-name="uni0493" unicode="&#x493;" horiz-adv-x="461" 
d="M99 0v500h345v-120h-208v-380h-137zM342 197h-322v90h322v-90z" />
    <glyph glyph-name="uni0496" unicode="&#x496;" horiz-adv-x="1047" 
d="M857 0l-275 310v-310h-145v308l-274 -308h-180l315 359l-284 351h171l252 -312v312h145v-313l253 313h172l-285 -351l315 -359h-180zM910 -148v148h-24v138h155v-286h-131z" />
    <glyph glyph-name="uni0497" unicode="&#x497;" horiz-adv-x="845" 
d="M665 0l-184 200v-200h-137v202l-185 -202h-170l232 254l-199 246h159l163 -204v204h137v-201l161 201h159l-200 -246l234 -254h-170zM715 -123v123h-24v120h146v-243h-122z" />
    <glyph glyph-name="uni049A" unicode="&#x49a;" horiz-adv-x="722" 
d="M531 0l-308 322v-322h-144v710h144v-301l256 301h179l-292 -341l353 -369h-188zM590 -148v148h-24v138h155v-286h-131z" />
    <glyph glyph-name="uni049B" unicode="&#x49b;" horiz-adv-x="575" 
d="M393 0l-190 202v-202h-137v500h137v-204l169 204h163l-208 -246l242 -254h-176zM450 -123v123h-24v120h146v-243h-122z" />
    <glyph glyph-name="uni04A2" unicode="&#x4a2;" horiz-adv-x="801" 
d="M79 0v710h145v-283h308v283h145v-710h-145v289h-308v-289h-145zM639 -148v148h-24v138h155v-286h-131z" />
    <glyph glyph-name="uni04A3" unicode="&#x4a3;" horiz-adv-x="657" 
d="M66 0v500h137v-189h206v189h137v-500h-137v192h-206v-192h-137zM507 -123v123h-24v120h146v-243h-122z" />
    <glyph glyph-name="uni04AE" unicode="&#x4ae;" horiz-adv-x="690" 
d="M272 0v299l-262 411h168l166 -269l167 269h169l-263 -412v-298h-145z" />
    <glyph glyph-name="uni04AF" unicode="&#x4af;" horiz-adv-x="573" 
d="M218 -194v194l-217 500h152l133 -332l134 332h153l-218 -500v-194h-137z" />
    <glyph glyph-name="uni04B0" unicode="&#x4b0;" horiz-adv-x="682" 
d="M269 0v299l-262 411h168l166 -269l167 269h169l-263 -412v-298h-145zM559 299v-129h-438v129h438z" />
    <glyph glyph-name="uni04B1" unicode="&#x4b1;" horiz-adv-x="573" 
d="M218 -194v194l-217 500h152l133 -332l134 332h153l-218 -500v-194h-137zM90 -90v90h393v-90h-393z" />
    <glyph glyph-name="uni04B2" unicode="&#x4b2;" horiz-adv-x="740" 
d="M164 0h-170l267 359l-252 351h168l171 -239l172 239h168l-253 -351l268 -359h-170l-185 246zM602 -148v148h-24v138h155v-286h-131z" />
    <glyph glyph-name="uni04B3" unicode="&#x4b3;" horiz-adv-x="589" 
d="M400 0l-116 147l-116 -147h-165l194 245l-189 255h162l113 -153l113 153h163l-189 -255l194 -245h-164zM451 -123v123h-24v120h146v-243h-122z" />
    <glyph glyph-name="uni04B6" unicode="&#x4b6;" horiz-adv-x="732" 
d="M608 0h-146v268q-72 -24 -164 -24q-108 0 -181 64t-73 165v237h145v-201q0 -65 37 -95t97 -30q85 0 139 23v303h146v-710zM570 -148v148h-24v138h155v-286h-131z" />
    <glyph glyph-name="uni04B7" unicode="&#x4b7;" horiz-adv-x="609" 
d="M498 0h-137v179q-49 -26 -133 -26q-81 0 -136.5 45t-55.5 130v172h137v-156q0 -71 89 -71q59 0 99 27v200h137v-500zM459 -123v123h-24v120h146v-243h-122z" />
    <glyph glyph-name="uni04BA" unicode="&#x4ba;" horiz-adv-x="687" 
d="M79 710h146v-268q72 24 164 24q108 0 181 -64t73 -165v-237h-145v201q0 65 -37 95t-97 30q-85 0 -139 -23v-303h-146v710z" />
    <glyph glyph-name="uni04BB" unicode="&#x4bb;" horiz-adv-x="599" 
d="M203 0h-137v730h137v-272q48 53 136 53q93 0 146.5 -60.5t53.5 -160.5v-290h-137v267q0 56 -23.5 87.5t-69.5 31.5q-70 0 -106 -57v-329z" />
    <glyph glyph-name="uni04C0" unicode="&#x4c0;" horiz-adv-x="303" 
d="M79 0v710h145v-710h-145z" />
    <glyph glyph-name="uni04CF" unicode="&#x4cf;" horiz-adv-x="269" 
d="M66 0v730h137v-730h-137z" />
    <glyph glyph-name="uni04D8" unicode="&#x4d8;" horiz-adv-x="805" 
d="M33 355v62h578q-21 79 -82.5 122t-133.5 43q-115 0 -185 -80l-97 98q114 122 287 122q151 0 259 -106.5t108 -260.5q0 -153 -107 -260t-260 -107q-155 0 -261 107t-106 260zM400 128q71 0 132 42.5t80 118.5h-425q14 -70 74 -115.5t139 -45.5z" />
    <glyph glyph-name="uni04D9" unicode="&#x4d9;" horiz-adv-x="578" 
d="M279 511q114 0 189.5 -72t75.5 -189q0 -112 -75 -186.5t-188 -74.5q-104 0 -175 64.5t-71 181.5q0 33 2 47h373q-6 49 -43 76.5t-89 27.5q-88 0 -129 -63l-103 76q36 52 96 82t137 30zM285 102q42 0 77 22t44 65h-235q9 -43 41 -65t73 -22z" />
    <glyph glyph-name="uni04E2" unicode="&#x4e2;" horiz-adv-x="792" 
d="M204 0h-125v710h146v-463l363 463h125v-710h-144v464zM235 791v96h342v-96h-342z" />
    <glyph glyph-name="uni04E3" unicode="&#x4e3;" horiz-adv-x="616" 
d="M189 0h-123v500h137v-295l224 295h122v-500h-136v295zM145 613v97h342v-97h-342z" />
    <glyph glyph-name="uni04E8" unicode="&#x4e8;" horiz-adv-x="808" 
d="M404 128q92 0 156.5 66.5t64.5 160.5t-64.5 160.5t-156.5 66.5t-156.5 -66.5t-64.5 -160.5t64.5 -160.5t156.5 -66.5zM404 -12q-152 0 -259.5 107.5t-107.5 259.5t107.5 259.5t259.5 107.5t259.5 -107.5t107.5 -259.5t-107.5 -259.5t-259.5 -107.5zM105 418v-128h596v128
h-596z" />
    <glyph glyph-name="uni04E9" unicode="&#x4e9;" horiz-adv-x="592" 
d="M296 -11q-109 0 -186 75.5t-77 185.5q0 109 77 185t186 76t186 -76t77 -185q0 -110 -77 -185.5t-186 -75.5zM296 117q53 0 88.5 37.5t35.5 95.5t-35.5 95.5t-88.5 37.5q-54 0 -89.5 -37.5t-35.5 -95.5t35.5 -95.5t89.5 -37.5zM106 295v-87h380v87h-380z" />
    <glyph glyph-name="uni04EE" unicode="&#x4ee;" horiz-adv-x="724" 
d="M117 -2l28 135q38 -8 60 -8q31 0 52 10.5t40 38.5l-277 536h166l193 -374l187 374h165l-272 -537q-48 -98 -105 -141.5t-137 -43.5q-54 0 -100 10zM206 791v96h342v-96h-342z" />
    <glyph glyph-name="uni04EF" unicode="&#x4ef;" horiz-adv-x="570" 
d="M570 500l-240 -543q-37 -82 -83.5 -119t-118.5 -37q-46 0 -79 9l22 116q21 -5 44 -5q49 0 81 69l16 38l-210 472h150l138 -313l129 313h151zM115 613v97h342v-97h-342z" />
    <glyph glyph-name="Wgrave" unicode="&#x1e80;" horiz-adv-x="1020" 
d="M230 0l-221 710h153l137 -472l147 472h127l146 -472l138 472h154l-221 -710h-130l-150 488l-150 -488h-130zM560 768h-102l-123 137h153z" />
    <glyph glyph-name="wgrave" unicode="&#x1e81;" horiz-adv-x="800" 
d="M494 0l-94 284l-93 -284h-136l-166 500h146l95 -320l101 320h105l102 -320l94 320h147l-165 -500h-136zM456 560h-102l-139 170h159z" />
    <glyph glyph-name="Wacute" unicode="&#x1e82;" horiz-adv-x="1020" 
d="M230 0l-221 710h153l137 -472l147 472h127l146 -472l138 472h154l-221 -710h-130l-150 488l-150 -488h-130zM462 768l72 137h153l-123 -137h-102z" />
    <glyph glyph-name="wacute" unicode="&#x1e83;" horiz-adv-x="800" 
d="M494 0l-94 284l-93 -284h-136l-166 500h146l95 -320l101 320h105l102 -320l94 320h147l-165 -500h-136zM347 560l82 170h159l-139 -170h-102z" />
    <glyph glyph-name="Wdieresis" unicode="&#x1e84;" horiz-adv-x="1020" 
d="M230 0l-221 710h153l137 -472l147 472h127l146 -472l138 472h154l-221 -710h-130l-150 488l-150 -488h-130zM394 772q-32 0 -54 22t-22 53q0 32 22 54t54 22q31 0 53 -22t22 -54q0 -31 -22 -53t-53 -22zM629 772q-32 0 -54 22t-22 53q0 32 22 54t54 22q31 0 53 -22
t22 -54q0 -31 -22 -53t-53 -22z" />
    <glyph glyph-name="wdieresis" unicode="&#x1e85;" horiz-adv-x="800" 
d="M494 0l-94 284l-93 -284h-136l-166 500h146l95 -320l101 320h105l102 -320l94 320h147l-165 -500h-136zM284 569q-32 0 -54 22t-22 52q0 32 22 54.5t54 22.5q31 0 53 -22.5t22 -54.5q0 -30 -22 -52t-53 -22zM519 569q-32 0 -54 22t-22 52q0 32 22 54.5t54 22.5
q31 0 53 -22.5t22 -54.5q0 -30 -22 -52t-53 -22z" />
    <glyph glyph-name="uni1E9E" unicode="&#x1e9e;" horiz-adv-x="648" 
d="M79 0v710h484v-98l-99 -155q144 -50 144 -213q0 -114 -71.5 -179t-187.5 -65h-46v138h43q51 0 83.5 27.5t32.5 78.5q0 50 -33 77.5t-83 27.5h-43v100l82 129h-161v-578h-145z" />
    <glyph glyph-name="uni1ECA" unicode="&#x1eca;" horiz-adv-x="303" 
d="M79 0v710h145v-710h-145zM152 -219q-32 0 -54 22t-22 53q0 32 22 54t54 22q31 0 53 -22t22 -54q0 -31 -22 -53t-53 -22z" />
    <glyph glyph-name="uni1ECB" unicode="&#x1ecb;" horiz-adv-x="269" 
d="M134 562q-35 0 -61 25.5t-26 61.5t26 61.5t61 25.5q37 0 62.5 -25.5t25.5 -61.5t-25.5 -61.5t-62.5 -25.5zM66 0v500h137v-500h-137zM135 -220q-32 0 -54 22t-22 53q0 32 22 54t54 22q31 0 53 -22t22 -54q0 -31 -22 -53t-53 -22z" />
    <glyph glyph-name="uni1ECC" unicode="&#x1ecc;" horiz-adv-x="808" 
d="M404 128q92 0 156.5 66.5t64.5 160.5t-64.5 160.5t-156.5 66.5t-156.5 -66.5t-64.5 -160.5t64.5 -160.5t156.5 -66.5zM404 -12q-152 0 -259.5 107.5t-107.5 259.5t107.5 259.5t259.5 107.5t259.5 -107.5t107.5 -259.5t-107.5 -259.5t-259.5 -107.5zM404 -219
q-32 0 -54 22t-22 53q0 32 22 54t54 22q31 0 53 -22t22 -54q0 -31 -22 -53t-53 -22z" />
    <glyph glyph-name="uni1ECD" unicode="&#x1ecd;" horiz-adv-x="592" 
d="M296 -11q-109 0 -186 75.5t-77 185.5q0 109 77 185t186 76t186 -76t77 -185q0 -110 -77 -185.5t-186 -75.5zM296 117q53 0 88.5 37.5t35.5 95.5t-35.5 95.5t-88.5 37.5q-54 0 -89.5 -37.5t-35.5 -95.5t35.5 -95.5t89.5 -37.5zM296 -220q-32 0 -54 22t-22 53q0 32 22 54
t54 22q31 0 53 -22t22 -54q0 -31 -22 -53t-53 -22z" />
    <glyph glyph-name="uni1EE4" unicode="&#x1ee4;" horiz-adv-x="720" 
d="M360 -12q-129 0 -209 80t-80 212v430h145v-432q0 -70 39 -110t105 -40t105 40t39 110v432h145v-430q0 -131 -81 -211.5t-208 -80.5zM360 -219q-32 0 -54 22t-22 53q0 32 22 54t54 22q31 0 53 -22t22 -54q0 -31 -22 -53t-53 -22z" />
    <glyph glyph-name="uni1EE5" unicode="&#x1ee5;" horiz-adv-x="588" 
d="M522 500v-500h-137v40q-49 -51 -123 -51q-95 0 -148.5 60.5t-53.5 160.5v290h137v-267q0 -119 94 -119q57 0 94 57v329h137zM297 -220q-32 0 -54 22t-22 53q0 32 22 54t54 22q31 0 53 -22t22 -54q0 -31 -22 -53t-53 -22z" />
    <glyph glyph-name="Ygrave" unicode="&#x1ef2;" horiz-adv-x="690" 
d="M272 0v299l-262 411h168l166 -269l167 269h169l-263 -412v-298h-145zM394 768h-102l-123 137h153z" />
    <glyph glyph-name="ygrave" unicode="&#x1ef3;" horiz-adv-x="570" 
d="M263 -194h-149l98 222l-210 472h150l134 -324l133 324h151zM342 560h-102l-139 170h159z" />
    <glyph glyph-name="uni2007" unicode="&#x2007;" horiz-adv-x="590" 
 />
    <glyph glyph-name="uni2008" unicode="&#x2008;" horiz-adv-x="281" 
 />
    <glyph glyph-name="uni2009" unicode="&#x2009;" horiz-adv-x="125" 
 />
    <glyph glyph-name="uni200B" unicode="&#x200b;" 
 />
    <glyph glyph-name="endash" unicode="&#x2013;" horiz-adv-x="587" 
d="M57 214v132h473v-132h-473z" />
    <glyph glyph-name="emdash" unicode="&#x2014;" horiz-adv-x="881" 
d="M57 214v132h767v-132h-767z" />
    <glyph glyph-name="quoteleft" unicode="&#x2018;" horiz-adv-x="270" 
d="M197 710l-48 -167h68v-167h-167v168l69 166h78z" />
    <glyph glyph-name="quoteright" unicode="&#x2019;" horiz-adv-x="258" 
d="M69 376l48 167h-68v167h167v-167l-69 -167h-78z" />
    <glyph glyph-name="quotesinglbase" unicode="&#x201a;" horiz-adv-x="282" 
d="M78 -167l48 167h-69v167h167v-167l-68 -167h-78z" />
    <glyph glyph-name="quotedblleft" unicode="&#x201c;" horiz-adv-x="499" 
d="M197 710l-48 -167h68v-167h-167v168l69 166h78zM427 710l-48 -167h68v-167h-167v168l69 166h78z" />
    <glyph glyph-name="quotedblright" unicode="&#x201d;" horiz-adv-x="488" 
d="M69 376l48 167h-68v167h167v-167l-69 -167h-78zM299 376l48 167h-68v167h167v-167l-69 -167h-78z" />
    <glyph glyph-name="quotedblbase" unicode="&#x201e;" horiz-adv-x="512" 
d="M78 -167l48 167h-69v167h167v-167l-68 -167h-78zM308 -167l48 167h-69v167h167v-167l-68 -167h-78z" />
    <glyph glyph-name="dagger" unicode="&#x2020;" horiz-adv-x="517" 
d="M201 -98v489h-174v109h174v210h115v-210h174v-109h-174v-489h-115z" />
    <glyph glyph-name="daggerdbl" unicode="&#x2021;" horiz-adv-x="543" 
d="M503 112h-174v-210h-116v210h-173v109h173v170h-173v109h173v210h116v-210h174v-109h-174v-170h174v-109z" />
    <glyph glyph-name="bullet" unicode="&#x2022;" horiz-adv-x="400" 
d="M200 166q-56 0 -96 39.5t-40 96.5t40 96.5t96 39.5q57 0 97 -39.5t40 -96.5t-40 -96.5t-97 -39.5z" />
    <glyph glyph-name="ellipsis" unicode="&#x2026;" horiz-adv-x="814" 
d="M220 0h-167v167h167v-167zM489 0h-167v167h167v-167zM760 0h-167v167h167v-167z" />
    <glyph glyph-name="perthousand" unicode="&#x2030;" horiz-adv-x="1399" 
d="M1174 -8q-82 0 -139.5 58t-57.5 139q0 82 57.5 139.5t139.5 57.5q81 0 139 -57.5t58 -139.5q0 -81 -58 -139t-139 -58zM1174 108q33 0 56 24t23 57t-23 57t-56 24t-56.5 -24t-23.5 -57t23.5 -57t56.5 -24zM336 0h-142l450 710h142zM755 -8q-82 0 -139.5 58t-57.5 139
q0 82 57.5 139.5t139.5 57.5q81 0 139 -57.5t58 -139.5q0 -81 -58 -139t-139 -58zM755 108q33 0 56 24t23 57t-23 57t-56 24t-56.5 -24t-23.5 -57t23.5 -57t56.5 -24zM225 324q-82 0 -139.5 58t-57.5 139q0 82 57.5 139.5t139.5 57.5q81 0 139 -57.5t58 -139.5
q0 -81 -58 -139t-139 -58zM225 440q33 0 56.5 24t23.5 57t-23.5 57t-56.5 24t-56.5 -24t-23.5 -57t23.5 -57t56.5 -24z" />
    <glyph glyph-name="guilsinglleft" unicode="&#x2039;" horiz-adv-x="311" 
d="M175 250l95 -178l-87 -56l-152 234l152 234l87 -56z" />
    <glyph glyph-name="guilsinglright" unicode="&#x203a;" horiz-adv-x="311" 
d="M41 72l95 178l-95 178l87 56l152 -234l-152 -234z" />
    <glyph glyph-name="fraction" unicode="&#x2044;" horiz-adv-x="180" 
d="M-99 0h-118l500 710h118z" />
    <glyph glyph-name="uni2060" unicode="&#x2060;" horiz-adv-x="223" 
 />
    <glyph glyph-name="uni2070" unicode="&#x2070;" horiz-adv-x="389" 
d="M195 403q-74 0 -119.5 49t-45.5 125v98q0 76 45.5 125t119.5 49q72 0 118 -49t46 -125v-98q0 -76 -46 -125t-118 -49zM195 499q30 0 48.5 21t18.5 57v98q0 36 -18.5 57t-48.5 21t-49 -21t-19 -57v-98q0 -36 19 -57t49 -21z" />
    <glyph glyph-name="uni2074" unicode="&#x2074;" horiz-adv-x="395" 
d="M223 410v90h-208v79l218 263h88v-253h55v-89h-55v-90h-98zM133 589h90v108z" />
    <glyph glyph-name="uni2075" unicode="&#x2075;" horiz-adv-x="359" 
d="M182 403q-55 0 -100.5 31.5t-59.5 80.5l92 36q18 -52 71 -52q24 0 39.5 16t15.5 39t-16 39t-39 16q-37 0 -52 -32h-90v265h264v-95h-167v-67q26 17 65 17q60 0 96 -41.5t36 -107.5q0 -69 -41.5 -107t-113.5 -38z" />
    <glyph glyph-name="uni2076" unicode="&#x2076;" horiz-adv-x="339" 
d="M168 403q-69 0 -111 42t-42 102q0 35 10.5 58t40.5 67l115 170h119l-102 -151q47 -4 84.5 -40.5t37.5 -96.5q0 -65 -41 -108t-111 -43zM168 497q23 0 38.5 16.5t15.5 39.5t-15.5 39.5t-38.5 16.5q-26 0 -41 -16t-15 -40t15 -40t41 -16z" />
    <glyph glyph-name="uni2077" unicode="&#x2077;" horiz-adv-x="346" 
d="M138 410h-111l192 337h-193v95h309v-85z" />
    <glyph glyph-name="uni2078" unicode="&#x2078;" horiz-adv-x="363" 
d="M182 403q-67 0 -112 39.5t-45 99.5q0 64 52 100q-34 34 -34 89q0 48 38.5 83t100.5 35t99.5 -34.5t37.5 -83.5q0 -54 -35 -88q55 -36 55 -101q0 -59 -45.5 -99t-111.5 -40zM182 492q25 0 40.5 16.5t15.5 38.5q0 21 -15.5 37t-40.5 16q-26 0 -41.5 -15.5t-15.5 -37.5
t15.5 -38.5t41.5 -16.5zM182 676q19 0 33 12t14 32q0 18 -14 31t-33 13q-20 0 -33.5 -12.5t-13.5 -31.5q0 -20 13 -32t34 -12z" />
    <glyph glyph-name="uni2079" unicode="&#x2079;" horiz-adv-x="339" 
d="M39 410l102 151q-48 4 -85 40.5t-37 96.5q0 66 41.5 108.5t111.5 42.5q69 0 110.5 -42t41.5 -102q0 -35 -10.5 -58t-40.5 -67l-115 -170h-119zM172 643q24 0 39.5 16t15.5 40t-15.5 40t-39.5 16t-39.5 -16t-15.5 -40t15.5 -40t39.5 -16z" />
    <glyph glyph-name="uni2080" unicode="&#x2080;" horiz-adv-x="389" 
d="M195 -121q-74 0 -119.5 49t-45.5 125v98q0 76 45.5 125t119.5 49q72 0 118 -49t46 -125v-98q0 -76 -46 -125t-118 -49zM195 -25q30 0 48.5 21t18.5 57v98q0 36 -18.5 57t-48.5 21t-49 -21t-19 -57v-98q0 -36 19 -57t49 -21z" />
    <glyph glyph-name="uni2081" unicode="&#x2081;" horiz-adv-x="241" 
d="M98 -114v337h-83v95h179v-432h-96z" />
    <glyph glyph-name="uni2082" unicode="&#x2082;" horiz-adv-x="355" 
d="M27 -114v86l169 164q29 27 29 53q0 17 -11.5 28.5t-31.5 11.5q-45 0 -65 -55l-94 24q15 60 58 93.5t103 33.5t99 -33.5t39 -97.5q0 -43 -17.5 -74t-51.5 -63l-79 -76h152v-95h-299z" />
    <glyph glyph-name="uni2083" unicode="&#x2083;" horiz-adv-x="353" 
d="M174 -122q-54 0 -100 31t-59 81l93 37q18 -52 69 -52q24 0 39 13t15 36t-17.5 37.5t-45.5 14.5h-58v81l70 66h-141v95h264v-83l-85 -81q53 -9 81.5 -44.5t28.5 -87.5q0 -65 -42.5 -104.5t-111.5 -39.5z" />
    <glyph glyph-name="uni2084" unicode="&#x2084;" horiz-adv-x="395" 
d="M223 -114v90h-208v79l218 263h88v-253h55v-89h-55v-90h-98zM133 65h90v108z" />
    <glyph glyph-name="uni2085" unicode="&#x2085;" horiz-adv-x="359" 
d="M182 -121q-55 0 -100.5 31.5t-59.5 80.5l92 36q18 -52 71 -52q24 0 39.5 16t15.5 39t-16 39t-39 16q-37 0 -52 -32h-90v265h264v-95h-167v-67q26 17 65 17q60 0 96 -41.5t36 -107.5q0 -69 -41.5 -107t-113.5 -38z" />
    <glyph glyph-name="uni2086" unicode="&#x2086;" horiz-adv-x="339" 
d="M168 -121q-69 0 -111 42t-42 102q0 35 10.5 58t40.5 67l115 170h119l-102 -151q47 -4 84.5 -40.5t37.5 -96.5q0 -65 -41 -108t-111 -43zM168 -27q23 0 38.5 16.5t15.5 39.5t-15.5 39.5t-38.5 16.5q-26 0 -41 -16t-15 -40t15 -40t41 -16z" />
    <glyph glyph-name="uni2087" unicode="&#x2087;" horiz-adv-x="346" 
d="M138 -114h-111l192 337h-193v95h309v-85z" />
    <glyph glyph-name="uni2088" unicode="&#x2088;" horiz-adv-x="363" 
d="M182 -121q-67 0 -112 39.5t-45 99.5q0 64 52 100q-34 34 -34 89q0 48 38.5 83t100.5 35t99.5 -34.5t37.5 -83.5q0 -54 -35 -88q55 -36 55 -101q0 -59 -45.5 -99t-111.5 -40zM182 -32q25 0 40.5 16.5t15.5 38.5q0 21 -15.5 37t-40.5 16q-26 0 -41.5 -15.5t-15.5 -37.5
t15.5 -38.5t41.5 -16.5zM182 152q19 0 33 12t14 32q0 18 -14 31t-33 13q-20 0 -33.5 -12.5t-13.5 -31.5q0 -20 13 -32t34 -12z" />
    <glyph glyph-name="uni2089" unicode="&#x2089;" horiz-adv-x="339" 
d="M39 -114l102 151q-48 4 -85 40.5t-37 96.5q0 66 41.5 108.5t111.5 42.5q69 0 110.5 -42t41.5 -102q0 -35 -10.5 -58t-40.5 -67l-115 -170h-119zM172 119q24 0 39.5 16t15.5 40t-15.5 40t-39.5 16t-39.5 -16t-15.5 -40t15.5 -40t39.5 -16z" />
    <glyph glyph-name="Euro" unicode="&#x20ac;" horiz-adv-x="774" 
d="M107 392h-79l21 57h69q30 119 129 196t225 77q82 0 151.5 -30.5t115.5 -83.5l-91 -99q-71 78 -176 78q-72 0 -127.5 -38t-82.5 -100h355l-19 -57h-352q-3 -18 -3 -37q0 -18 3 -36h325l-19 -56h-291q27 -63 82.5 -101.5t128.5 -38.5q105 0 176 78l91 -99
q-46 -53 -115.5 -83.5t-151.5 -30.5q-127 0 -226 77.5t-129 197.5h-89l21 56h58q-1 12 -1 36q0 25 1 37z" />
    <glyph glyph-name="uni20B4" unicode="&#x20b4;" horiz-adv-x="628" 
d="M40 277v57h544v-57h-344q-35 -24 -35 -75q0 -37 28.5 -61t80.5 -24q100 0 158 83l104 -85q-40 -60 -107.5 -93.5t-151.5 -33.5q-109 0 -179 57.5t-70 143.5q0 56 29 88h-57zM40 389v57h342q31 22 31 63q0 38 -28.5 61t-74.5 23q-84 0 -135 -63l-90 94q88 98 232 98
q100 0 166 -54t66 -138q0 -52 -23 -84h58v-57h-544z" />
    <glyph glyph-name="uni20B8" unicode="&#x20b8;" horiz-adv-x="588" 
d="M225 0v463h-194v135h526v-135h-195v-463h-137zM31 653v57h526v-57h-526z" />
    <glyph glyph-name="uni20BD" unicode="&#x20bd;" horiz-adv-x="619" 
d="M49 255v132h85v323h214q106 0 174 -63.5t68 -164.5q0 -103 -68 -165t-174 -62h-77v-69h162v-58h-162v-128h-137v128h-85v58h85v69h-85zM271 387h75q48 0 75.5 24.5t27.5 70.5q0 47 -27.5 71t-75.5 24h-75v-190z" />
    <glyph glyph-name="uni2116" unicode="&#x2116;" horiz-adv-x="1101" 
d="M713 0h-125l-364 463v-463h-145v710h125l364 -463v463h145v-710zM910 405q-63 0 -108.5 46t-45.5 109t45.5 109t108.5 46t109 -46t46 -109t-46 -109t-109 -46zM761 269v90h299v-90h-299zM911 495q26 0 45 19t19 46t-19 46t-45 19q-27 0 -46 -19t-19 -46t19 -46t46 -19z
" />
    <glyph glyph-name="uni2117" unicode="&#x2117;" horiz-adv-x="807" 
d="M403 -12q-151 0 -258.5 108t-107.5 259t107.5 259t258.5 108t259 -108t108 -259t-108 -259t-259 -108zM403 72q117 0 200 83t83 200t-83 200t-200 83q-116 0 -199 -83t-83 -200t83 -200t199 -83zM559 413q0 -54 -37 -90.5t-93 -36.5h-43v-117h-84v371h127q56 0 93 -36.5
t37 -90.5zM479 413q0 21 -14.5 35t-36.5 14h-42v-97h42q22 0 36.5 14t14.5 34z" />
    <glyph glyph-name="trademark" unicode="&#x2122;" horiz-adv-x="811" 
d="M389 348v362h97l80 -152l80 152h97v-362h-101v188l-50 -84h-51l-52 86v-190h-100zM129 348v258h-97v104h300v-104h-97v-258h-106z" />
    <glyph glyph-name="uni2150" unicode="&#x2150;" horiz-adv-x="845" 
d="M98 278v337h-83v95h179v-432h-96zM179 0h-118l500 710h118zM637 1h-111l192 337h-193v95h309v-85z" />
    <glyph glyph-name="uni2151" unicode="&#x2151;" horiz-adv-x="797" 
d="M98 278v337h-83v95h179v-432h-96zM179 0h-118l500 710h118zM497 1l102 151q-48 4 -85 40.5t-37 96.5q0 66 41.5 108.5t111.5 42.5q69 0 110.5 -42t41.5 -102q0 -35 -10.5 -58t-40.5 -67l-115 -170h-119zM630 234q24 0 39.5 16t15.5 40t-15.5 40t-39.5 16t-39.5 -16
t-15.5 -40t15.5 -40t39.5 -16z" />
    <glyph glyph-name="uni2152" unicode="&#x2152;" horiz-adv-x="1143" 
d="M98 278v337h-83v95h179v-432h-96zM179 0h-118l500 710h118zM609 1v337h-83v95h179v-432h-96zM948 -6q-74 0 -119.5 49t-45.5 125v98q0 76 45.5 125t119.5 49q72 0 118 -49t46 -125v-98q0 -76 -46 -125t-118 -49zM948 90q30 0 48.5 21t18.5 57v98q0 36 -18.5 57t-48.5 21
t-49 -21t-19 -57v-98q0 -36 19 -57t49 -21z" />
    <glyph glyph-name="onethird" unicode="&#x2153;" horiz-adv-x="840" 
d="M98 278v337h-83v95h179v-432h-96zM179 0h-118l500 710h118zM661 -7q-54 0 -100 31t-59 81l93 37q18 -52 69 -52q24 0 39 13t15 36t-17.5 37.5t-45.5 14.5h-58v81l70 66h-141v95h264v-83l-85 -81q53 -9 81.5 -44.5t28.5 -87.5q0 -65 -42.5 -104.5t-111.5 -39.5z" />
    <glyph glyph-name="twothirds" unicode="&#x2154;" horiz-adv-x="940" 
d="M27 278v86l169 164q29 27 29 53q0 17 -11.5 28.5t-31.5 11.5q-45 0 -65 -55l-94 24q15 60 58 93.5t103 33.5t99 -33.5t39 -97.5q0 -43 -17.5 -74t-51.5 -63l-79 -76h152v-95h-299zM279 0h-118l500 710h118zM762 -7q-54 0 -100 31t-59 81l93 37q18 -52 69 -52q24 0 39 13
t15 36t-17.5 37.5t-45.5 14.5h-58v81l70 66h-141v95h264v-83l-85 -81q53 -9 81.5 -44.5t28.5 -87.5q0 -65 -42.5 -104.5t-111.5 -39.5z" />
    <glyph glyph-name="uni2155" unicode="&#x2155;" horiz-adv-x="843" 
d="M98 278v337h-83v95h179v-432h-96zM179 0h-118l500 710h118zM667 -6q-55 0 -100.5 31.5t-59.5 80.5l92 36q18 -52 71 -52q24 0 39.5 16t15.5 39t-16 39t-39 16q-37 0 -52 -32h-90v265h264v-95h-167v-67q26 17 65 17q60 0 96 -41.5t36 -107.5q0 -69 -41.5 -107t-113.5 -38z
" />
    <glyph glyph-name="uni2156" unicode="&#x2156;" horiz-adv-x="944" 
d="M27 278v86l169 164q29 27 29 53q0 17 -11.5 28.5t-31.5 11.5q-45 0 -65 -55l-94 24q15 60 58 93.5t103 33.5t99 -33.5t39 -97.5q0 -43 -17.5 -74t-51.5 -63l-79 -76h152v-95h-299zM279 0h-118l500 710h118zM767 -6q-55 0 -100.5 31.5t-59.5 80.5l92 36q18 -52 71 -52
q24 0 39.5 16t15.5 39t-16 39t-39 16q-37 0 -52 -32h-90v265h264v-95h-167v-67q26 17 65 17q60 0 96 -41.5t36 -107.5q0 -69 -41.5 -107t-113.5 -38z" />
    <glyph glyph-name="uni2157" unicode="&#x2157;" horiz-adv-x="918" 
d="M174 270q-54 0 -100 31t-59 81l93 37q18 -52 69 -52q24 0 39 13t15 36t-17.5 37.5t-45.5 14.5h-58v81l70 66h-141v95h264v-83l-85 -81q53 -9 81.5 -44.5t28.5 -87.5q0 -65 -42.5 -104.5t-111.5 -39.5zM254 0h-118l500 710h118zM742 -6q-55 0 -100.5 31.5t-59.5 80.5
l92 36q18 -52 71 -52q24 0 39.5 16t15.5 39t-16 39t-39 16q-37 0 -52 -32h-90v265h264v-95h-167v-67q26 17 65 17q60 0 96 -41.5t36 -107.5q0 -69 -41.5 -107t-113.5 -38z" />
    <glyph glyph-name="uni2158" unicode="&#x2158;" horiz-adv-x="961" 
d="M223 278v90h-208v79l218 263h88v-253h55v-89h-55v-90h-98zM133 457h90v108zM296 0h-118l500 710h118zM784 -6q-55 0 -100.5 31.5t-59.5 80.5l92 36q18 -52 71 -52q24 0 39.5 16t15.5 39t-16 39t-39 16q-37 0 -52 -32h-90v265h264v-95h-167v-67q26 17 65 17q60 0 96 -41.5
t36 -107.5q0 -69 -41.5 -107t-113.5 -38z" />
    <glyph glyph-name="uni2159" unicode="&#x2159;" horiz-adv-x="764" 
d="M98 278v337h-83v95h179v-432h-96zM179 0h-118l500 710h118zM593 -6q-69 0 -111 42t-42 102q0 35 10.5 58t40.5 67l115 170h119l-102 -151q47 -4 84.5 -40.5t37.5 -96.5q0 -65 -41 -108t-111 -43zM593 88q23 0 38.5 16.5t15.5 39.5t-15.5 39.5t-38.5 16.5q-26 0 -41 -16
t-15 -40t15 -40t41 -16z" />
    <glyph glyph-name="uni215A" unicode="&#x215a;" horiz-adv-x="846" 
d="M182 271q-55 0 -100.5 31.5t-59.5 80.5l92 36q18 -52 71 -52q24 0 39.5 16t15.5 39t-16 39t-39 16q-37 0 -52 -32h-90v265h264v-95h-167v-67q26 17 65 17q60 0 96 -41.5t36 -107.5q0 -69 -41.5 -107t-113.5 -38zM260 0h-118l500 710h118zM675 -6q-69 0 -111 42t-42 102
q0 35 10.5 58t40.5 67l115 170h119l-102 -151q47 -4 84.5 -40.5t37.5 -96.5q0 -65 -41 -108t-111 -43zM675 88q23 0 38.5 16.5t15.5 39.5t-15.5 39.5t-38.5 16.5q-26 0 -41 -16t-15 -40t15 -40t41 -16z" />
    <glyph glyph-name="oneeighth" unicode="&#x215b;" horiz-adv-x="821" 
d="M98 278v337h-83v95h179v-432h-96zM179 0h-118l500 710h118zM640 -6q-67 0 -112 39.5t-45 99.5q0 64 52 100q-34 34 -34 89q0 48 38.5 83t100.5 35t99.5 -34.5t37.5 -83.5q0 -54 -35 -88q55 -36 55 -101q0 -59 -45.5 -99t-111.5 -40zM640 83q25 0 40.5 16.5t15.5 38.5
q0 21 -15.5 37t-40.5 16q-26 0 -41.5 -15.5t-15.5 -37.5t15.5 -38.5t41.5 -16.5zM640 267q19 0 33 12t14 32q0 18 -14 31t-33 13q-20 0 -33.5 -12.5t-13.5 -31.5q0 -20 13 -32t34 -12z" />
    <glyph glyph-name="threeeighths" unicode="&#x215c;" horiz-adv-x="896" 
d="M174 270q-54 0 -100 31t-59 81l93 37q18 -52 69 -52q24 0 39 13t15 36t-17.5 37.5t-45.5 14.5h-58v81l70 66h-141v95h264v-83l-85 -81q53 -9 81.5 -44.5t28.5 -87.5q0 -65 -42.5 -104.5t-111.5 -39.5zM254 0h-118l500 710h118zM715 -6q-67 0 -112 39.5t-45 99.5
q0 64 52 100q-34 34 -34 89q0 48 38.5 83t100.5 35t99.5 -34.5t37.5 -83.5q0 -54 -35 -88q55 -36 55 -101q0 -59 -45.5 -99t-111.5 -40zM715 83q25 0 40.5 16.5t15.5 38.5q0 21 -15.5 37t-40.5 16q-26 0 -41.5 -15.5t-15.5 -37.5t15.5 -38.5t41.5 -16.5zM715 267q19 0 33 12
t14 32q0 18 -14 31t-33 13q-20 0 -33.5 -12.5t-13.5 -31.5q0 -20 13 -32t34 -12z" />
    <glyph glyph-name="fiveeighths" unicode="&#x215d;" horiz-adv-x="902" 
d="M182 271q-55 0 -100.5 31.5t-59.5 80.5l92 36q18 -52 71 -52q24 0 39.5 16t15.5 39t-16 39t-39 16q-37 0 -52 -32h-90v265h264v-95h-167v-67q26 17 65 17q60 0 96 -41.5t36 -107.5q0 -69 -41.5 -107t-113.5 -38zM260 0h-118l500 710h118zM721 -6q-67 0 -112 39.5
t-45 99.5q0 64 52 100q-34 34 -34 89q0 48 38.5 83t100.5 35t99.5 -34.5t37.5 -83.5q0 -54 -35 -88q55 -36 55 -101q0 -59 -45.5 -99t-111.5 -40zM721 83q25 0 40.5 16.5t15.5 38.5q0 21 -15.5 37t-40.5 16q-26 0 -41.5 -15.5t-15.5 -37.5t15.5 -38.5t41.5 -16.5zM721 267
q19 0 33 12t14 32q0 18 -14 31t-33 13q-20 0 -33.5 -12.5t-13.5 -31.5q0 -20 13 -32t34 -12z" />
    <glyph glyph-name="seveneighths" unicode="&#x215e;" horiz-adv-x="830" 
d="M138 278h-111l192 337h-193v95h309v-85zM187 0h-118l500 710h118zM648 -6q-67 0 -112 39.5t-45 99.5q0 64 52 100q-34 34 -34 89q0 48 38.5 83t100.5 35t99.5 -34.5t37.5 -83.5q0 -54 -35 -88q55 -36 55 -101q0 -59 -45.5 -99t-111.5 -40zM648 83q25 0 40.5 16.5
t15.5 38.5q0 21 -15.5 37t-40.5 16q-26 0 -41.5 -15.5t-15.5 -37.5t15.5 -38.5t41.5 -16.5zM648 267q19 0 33 12t14 32q0 18 -14 31t-33 13q-20 0 -33.5 -12.5t-13.5 -31.5q0 -20 13 -32t34 -12z" />
    <glyph glyph-name="uni215F" unicode="&#x215f;" horiz-adv-x="458" 
d="M98 278v337h-83v95h179v-432h-96zM179 0h-118l500 710h118z" />
    <glyph glyph-name="arrowleft" unicode="&#x2190;" horiz-adv-x="817" 
d="M346 -57l-306 306l306 306l75 -78l-172 -173h511v-110h-511l172 -173z" />
    <glyph glyph-name="arrowup" unicode="&#x2191;" horiz-adv-x="696" 
d="M293 0v513l-173 -173l-78 76l306 306l306 -306l-78 -76l-173 173v-513h-110z" />
    <glyph glyph-name="arrowright" unicode="&#x2192;" horiz-adv-x="817" 
d="M471 -57l-75 78l172 173h-511v110h511l-172 173l75 78l306 -306z" />
    <glyph glyph-name="arrowdown" unicode="&#x2193;" horiz-adv-x="692" 
d="M652 294l-306 -306l-306 306l78 76l173 -173v513h110v-513l173 173z" />
    <glyph glyph-name="uni2196" unicode="&#x2196;" horiz-adv-x="722" 
d="M678 65l-76 -77l-399 398v-247h-110v433h433v-110h-246z" />
    <glyph glyph-name="uni2197" unicode="&#x2197;" horiz-adv-x="722" 
d="M120 -12l-76 77l398 397h-247v110h433v-433h-109v247z" />
    <glyph glyph-name="uni2198" unicode="&#x2198;" horiz-adv-x="717" 
d="M197 0v110h246l-398 397l77 77l399 -398v247h109v-433h-433z" />
    <glyph glyph-name="uni2199" unicode="&#x2199;" horiz-adv-x="717" 
d="M196 186l399 398l77 -77l-398 -397h246v-110h-433v433h109v-247z" />
    <glyph glyph-name="uni21B0" unicode="&#x21b0;" horiz-adv-x="839" 
d="M760 -194h-110v388h-401l172 -173l-75 -78l-306 306l306 306l75 -78l-172 -173h511v-498z" />
    <glyph glyph-name="uni21B1" unicode="&#x21b1;" horiz-adv-x="839" 
d="M79 -194v498h511l-173 173l76 78l306 -306l-306 -306l-76 78l173 173h-401v-388h-110z" />
    <glyph glyph-name="uni21B2" unicode="&#x21b2;" horiz-adv-x="849" 
d="M346 -57l-306 306l306 306l76 -78l-173 -173h401v406h110v-516h-511l173 -173z" />
    <glyph glyph-name="uni21B3" unicode="&#x21b3;" horiz-adv-x="849" 
d="M809 249l-306 -306l-75 78l172 173h-511v516h110v-406h401l-172 173l75 78z" />
    <glyph glyph-name="minus" unicode="&#x2212;" horiz-adv-x="541" 
d="M60 230v119h421v-119h-421z" />
    <glyph glyph-name="uniF6D1" unicode="&#xf6d1;" 
d="M0 750q-74 0 -124 48.5t-50 126.5h90q0 -43 23 -68.5t61 -25.5t61 25.5t23 68.5h90q0 -78 -50 -126.5t-124 -48.5z" />
    <glyph glyph-name="uniF6D4" unicode="&#xf6d4;" 
d="M0 548q-74 0 -124 48.5t-50 125.5v8h90v-8q0 -42 23 -67.5t61 -25.5t61 25.5t23 67.5v8h90v-8q0 -77 -50 -125.5t-124 -48.5z" />
    <glyph glyph-name="f_f" unicode="&#xfb00;" horiz-adv-x="847" 
d="M137 0v380h-121v120h121v38q0 85 50.5 141.5t143.5 56.5q72 0 128 -29l-50 -112q-32 17 -61 17q-35 0 -54.5 -20.5t-19.5 -54.5v-37h130v-120h-130v-380h-137zM529 0v380h-76v120h76v38q0 85 50 141.5t144 56.5q71 0 127 -29l-50 -112q-32 17 -61 17q-34 0 -53.5 -20.5
t-19.5 -54.5v-37h167v-120h-167v-380h-137z" />
    <glyph glyph-name="fi" unicode="&#xfb01;" horiz-adv-x="723" 
d="M135 0v380h-119v120h119v38q0 85 50.5 141.5t143.5 56.5q72 0 128 -29l-50 -112q-32 17 -61 17q-34 0 -54 -20.5t-20 -54.5v-37h168v-120h-168v-380h-137zM588 562q-35 0 -61 25.5t-26 61.5t26 61.5t61 25.5q37 0 62.5 -25.5t25.5 -61.5t-25.5 -61.5t-62.5 -25.5zM520 0
v500h137v-500h-137z" />
    <glyph glyph-name="fl" unicode="&#xfb02;" horiz-adv-x="723" 
d="M135 0v380h-119v120h119v38q0 85 50.5 141.5t143.5 56.5q72 0 128 -29l-50 -112q-32 17 -61 17q-34 0 -54 -20.5t-20 -54.5v-37h168v-120h-168v-380h-137zM520 0v730h137v-730h-137z" />
    <glyph glyph-name="f_f_i" unicode="&#xfb03;" horiz-adv-x="1116" 
d="M981 562q-35 0 -61 25.5t-26 61.5t26 61.5t61 25.5q37 0 62.5 -25.5t25.5 -61.5t-25.5 -61.5t-62.5 -25.5zM913 0v500h137v-500h-137zM137 0v380h-121v120h121v38q0 85 50.5 141.5t143.5 56.5q72 0 128 -29l-50 -112q-32 17 -61 17q-35 0 -54.5 -20.5t-19.5 -54.5v-37
h130v-120h-130v-380h-137zM529 0v380h-76v120h76v38q0 85 50 141.5t144 56.5q71 0 127 -29l-50 -112q-32 17 -61 17q-34 0 -53.5 -20.5t-19.5 -54.5v-37h167v-120h-167v-380h-137z" />
    <glyph glyph-name="f_f_l" unicode="&#xfb04;" horiz-adv-x="1116" 
d="M913 0v730h137v-730h-137zM137 0v380h-121v120h121v38q0 85 50.5 141.5t143.5 56.5q72 0 128 -29l-50 -112q-32 17 -61 17q-35 0 -54.5 -20.5t-19.5 -54.5v-37h130v-120h-130v-380h-137zM529 0v380h-76v120h76v38q0 85 50 141.5t144 56.5q71 0 127 -29l-50 -112
q-32 17 -61 17q-34 0 -53.5 -20.5t-19.5 -54.5v-37h167v-120h-167v-380h-137z" />
    <glyph glyph-name="uniFEFF" unicode="&#xfeff;" 
 />
    <glyph glyph-name="NULL" 
 />
    <glyph glyph-name="CR" horiz-adv-x="228" 
 />
    <glyph glyph-name="L_periodcentered" horiz-adv-x="558" 
d="M79 0v710h145v-572h304v-138h-449zM423 349q-32 0 -54 22t-22 53q0 32 22 54t54 22q31 0 53 -22t22 -54q0 -31 -22 -53t-53 -22z" />
    <glyph glyph-name="l_periodcentered" horiz-adv-x="404" 
d="M66 0v730h137v-730h-137zM337 298q-32 0 -54 22t-22 53q0 32 22 54t54 22q31 0 53 -22t22 -54q0 -31 -22 -53t-53 -22z" />
    <glyph glyph-name="_470" 
d="M64 500h-123v123h123v-123z" />
    <glyph glyph-name="_471" 
d="M161 197h-322v90h322v-90z" />
    <glyph glyph-name="_472" 
d="M-190 208v87h380v-87h-380z" />
    <glyph glyph-name="_473" 
d="M-196 -90v90h393v-90h-393z" />
    <glyph glyph-name="_474" 
d="M-45 -123v123h-24v120h146v-243h-122z" />
    <glyph glyph-name="_476" 
d="M70 710h-131v148h131v-148z" />
    <glyph glyph-name="_477" 
d="M98 401q75 0 129 39v-127q-53 -38 -129 -38q-37 0 -101 19t-95 19q-74 0 -129 -38v126q54 39 129 39q46 0 105.5 -19.5t90.5 -19.5z" />
    <glyph glyph-name="_478" 
d="M-198 292v128h397v-128h-397z" />
    <glyph glyph-name="_479" 
d="M-298 288v128h596v-128h-596z" />
    <glyph glyph-name="_480" 
d="M219 299v-129h-438v129h438z" />
    <glyph glyph-name="_481" 
d="M-30 -148v148h-24v138h155v-286h-131z" />
    <glyph glyph-name="_505" horiz-adv-x="535" 
d="M234 675l129 48l-131 -252l233 10l-415 -492l242 402l-205 -12zM455 465q5 0 5 -5q0 4 4 5q-4 0 -4 5t5 5t5 -5t-4 -5q3 -1 4 -4q0 4 5 4t5 -5t-4 -5q4 -1 4 -5q0 -5 -4 -5q3 -1 4 -4q0 4 5 4t5 -5t-4 -5q4 -1 4 -5q0 -5 -5 -5t-5 4q-1 -4 -4 -4q4 -1 4 -5q0 -5 -5 -5
t-5 4q-1 -4 -4 -4q4 -1 4 -5q0 -5 -5 -5t-5 4q-1 -4 -4 -4q4 -1 4 -5q0 -5 -5 -5t-5 4q-1 -4 -4 -4q4 -1 4 -5q0 -5 -5 -5t-5 4q-1 -4 -4 -4q4 -1 4 -5q0 -5 -5 -5t-5 4q-1 -4 -4 -4q4 -1 4 -5q0 -5 -5 -5t-5 4q-1 -4 -4 -4q4 -1 4 -5q0 -5 -4 -5q4 -1 4 -5q0 -5 -5 -5t-5 4
q-1 -4 -4 -4q4 -1 4 -5q0 -5 -5 -5t-5 4q-1 -4 -4 -4q4 -1 4 -5q0 -5 -5 -5t-5 4q-1 -4 -4 -4q4 -1 4 -5q0 -5 -5 -5t-5 4q-1 -4 -4 -4q4 -1 4 -5q0 -5 -5 -5t-5 4q-1 -4 -4 -4q4 -1 4 -5q0 -5 -5 -5t-5 4q-1 -4 -4 -4q4 -1 4 -5q0 -5 -5 -5t-5 4q-1 -4 -4 -4q4 -1 4 -5
q0 -5 -5 -5t-5 4q-1 -4 -4 -4q4 -1 4 -5q0 -5 -5 -5t-5 4q-1 -4 -4 -4q4 -1 4 -5q0 -5 -5 -5t-5 4q-1 -4 -4 -4q4 -1 4 -5q0 -5 -5 -5t-5 4q-1 -4 -4 -4q4 -1 4 -5q0 -5 -5 -5t-5 4q-1 -4 -4 -4q4 -1 4 -5q0 -5 -5 -5t-5 4q-1 -4 -4 -4q4 -1 4 -5q0 -5 -4 -5q4 -1 4 -5
q0 -5 -5 -5t-5 4q-1 -4 -4 -4q4 -1 4 -5q0 -5 -5 -5t-5 4q-1 -4 -4 -4q4 -1 4 -5q0 -5 -5 -5t-5 4q-1 -4 -4 -4q4 -1 4 -5q0 -5 -5 -5t-5 4q-1 -4 -4 -4q4 -1 4 -5q0 -5 -5 -5t-5 4q-1 -4 -4 -4q4 -1 4 -5q0 -5 -5 -5t-5 4q-1 -4 -4 -4q4 -1 4 -5q0 -5 -5 -5t-5 4
q-1 -4 -4 -4q4 -1 4 -5q0 -5 -5 -5t-5 4q-1 -4 -4 -4q4 -1 4 -5q0 -5 -5 -5t-5 4q-1 -4 -4 -4q4 -1 4 -5q0 -5 -5 -5t-5 4q-1 -4 -4 -4q4 -1 4 -5q0 -5 -5 -5t-5 4q-1 -4 -4 -4q4 -1 4 -5q0 -5 -4 -5q4 -1 4 -5q0 -5 -5 -5t-5 4q-1 -4 -4 -4q4 -1 4 -5q0 -5 -5 -5t-5 4
q-1 -4 -4 -4q4 -1 4 -5q0 -5 -5 -5t-5 4q-1 -4 -4 -4q4 -1 4 -5q0 -5 -5 -5t-5 4q-1 -4 -4 -4q4 -1 4 -5q0 -5 -5 -5t-5 4q-1 -4 -4 -4q4 -1 4 -5q0 -5 -5 -5t-5 4q-1 -4 -4 -4q4 -1 4 -5q0 -5 -5 -5t-5 4q-1 -4 -4 -4q4 -1 4 -5q0 -5 -5 -5t-5 4q-1 -4 -4 -4q4 -1 4 -5
q0 -5 -5 -5t-5 4q-1 -4 -4 -4q4 -1 4 -5q0 -5 -5 -5t-5 4q-1 -3 -4 -4q4 0 4 -5t-5 -5t-5 4q-1 -3 -4 -4q4 0 4 -5t-5 -5t-5 5t4 5q-4 1 -4 5q0 5 5 5t5 -5q0 5 4 5q-4 1 -4 5t4 5q-4 0 -4 5t5 5t5 -5q0 4 4 5q-4 0 -4 5t5 5q4 0 5 -4q0 3 4 4q-4 0 -4 5t5 5q4 0 5 -4
q0 3 4 4q-4 0 -4 5t5 5q4 0 5 -4q0 3 4 4q-4 0 -4 5t5 5t5 -5q0 4 4 5q-4 0 -4 5t5 5t5 -5q0 4 4 5q-4 0 -4 5q0 4 4 5q-4 0 -4 5t5 5t5 -5q0 4 4 5q-4 0 -4 5t5 5q4 0 5 -4q0 3 4 4q-4 0 -4 5t5 5q4 0 5 -4q0 3 4 4q-4 0 -4 5t5 5t5 -5q0 4 4 5q-4 0 -4 5t5 5t5 -5q0 4 4 5
q-4 0 -4 5q0 4 4 5q-4 0 -4 5t5 5q4 0 5 -4q0 3 4 4q-4 0 -4 5t5 5t5 -5q0 4 4 5q-4 0 -4 5t5 5t5 -5q0 4 4 5q-4 0 -4 5t5 5t5 -5q0 4 4 5q-4 0 -4 5t5 5t5 -5q0 4 4 5q-4 0 -4 5q0 4 4 5q-4 0 -4 5t5 5t5 -5q0 4 4 5q-4 0 -4 5t5 5q4 0 5 -4q0 3 4 4q-4 0 -4 5t5 5t5 -5
q0 4 4 5q-4 0 -4 5t5 5t5 -5q0 4 4 5q-4 0 -4 5t5 5t5 -5q0 4 4 5q-4 0 -4 5t5 5t5 -5q0 4 4 5q-4 0 -4 5q0 4 4 5q-4 0 -4 5t5 5t5 -5q0 4 4 5q-4 0 -4 5t5 5q4 0 5 -4q0 3 4 4q-4 0 -4 5t5 5t5 -5q0 4 4 5q-4 0 -4 5t5 5q4 0 5 -4q0 3 4 4q-4 0 -4 5t5 5q4 0 5 -4q0 3 4 4
q-4 0 -4 5q0 4 4 5q-4 0 -4 5t5 5t5 -5q0 4 4 5q-4 0 -4 5t5 5t5 -5q0 4 4 5q-4 0 -4 5t5 5t5 -5q0 4 4 5q-4 0 -4 5t5 5t5 -5q0 4 4 5q-4 0 -4 5t5 5t5 -5q0 4 4 5q-4 0 -4 5q0 4 4 5q-4 0 -4 5t5 5t5 -5q0 4 4 5q-4 0 -4 5t5 5q4 0 5 -4q0 3 4 4q-4 0 -4 5t5 5q4 0 5 -4
q0 3 4 4q-4 0 -4 5t5 5q4 0 5 -4q0 3 4 4q-4 0 -4 5t5 5t5 -5q0 4 4 5q-4 0 -4 5t5 5q4 0 5 -4q0 3 4 4q-4 0 -4 5q0 4 4 5q-4 0 -4 5t5 5zM355 695q4 0 5 -4q0 3 4 4q-4 0 -4 5q0 4 4 5q-4 0 -4 5t5 5t5 -5t-4 -5q3 -1 4 -4q0 4 5 4t5 -5t-4 -5q3 -1 4 -4q0 4 5 4t5 -5
t-4 -5q4 -1 4 -5q0 -5 -5 -5t-5 4q-1 -4 -4 -4q4 -1 4 -5q0 -5 -4 -5q4 -1 4 -5q0 -5 -5 -5t-5 4q-1 -4 -4 -4q4 -1 4 -5q0 -5 -5 -5t-5 4q-1 -4 -4 -4q4 -1 4 -5q0 -5 -4 -5q4 -1 4 -5q0 -5 -5 -5t-5 4q-1 -4 -4 -4q4 -1 4 -5q0 -5 -4 -5q4 -1 4 -5q0 -5 -5 -5t-5 4
q-1 -4 -4 -4q4 -1 4 -5q0 -5 -4 -5q4 -1 4 -5q0 -5 -5 -5t-5 4q-1 -4 -4 -4q4 -1 4 -5q0 -5 -5 -5t-5 4q-1 -4 -4 -4q4 -1 4 -5q0 -5 -4 -5q4 -1 4 -5q0 -5 -5 -5t-5 4q-1 -4 -4 -4q4 -1 4 -5q0 -5 -4 -5q4 -1 4 -5q0 -5 -5 -5t-5 4q-1 -4 -4 -4q4 -1 4 -5q0 -5 -4 -5
q4 -1 4 -5q0 -5 -5 -5t-5 4q-1 -4 -4 -4q4 -1 4 -5q0 -5 -4 -5q4 -1 4 -5q0 -5 -5 -5t-5 4q-1 -4 -4 -4q4 -1 4 -5q0 -5 -4 -5q4 -1 4 -5q0 -5 -5 -5t-5 4q-1 -4 -5 -4q-5 0 -5 4q-1 -4 -5 -4q-5 0 -5 4q-1 -4 -5 -4q-5 0 -5 5t5 5q4 0 5 -4q0 3 4 4q-4 0 -4 5q0 4 4 5
q-4 0 -4 5t5 5q4 0 5 -4q0 3 4 4q-4 0 -4 5q0 4 4 5q-4 0 -4 5t5 5t5 -5q0 4 4 5q-4 0 -4 5q0 4 4 5q-4 0 -4 5t5 5q4 0 5 -4q0 3 4 4q-4 0 -4 5q0 4 4 5q-4 0 -4 5t5 5t5 -5q0 4 4 5q-4 0 -4 5q0 4 4 5q-4 0 -4 5t5 5q4 0 5 -4q0 3 4 4q-4 0 -4 5q0 4 4 5q-4 0 -4 5t5 5
t5 -5q0 4 4 5q-4 0 -4 5t5 5q4 0 5 -4q0 3 4 4q-4 0 -4 5q0 4 4 5q-4 0 -4 5t5 5q4 0 5 -4q0 3 4 4q-4 0 -4 5q0 4 4 5q-4 0 -4 5t5 5q4 0 5 -4q0 3 4 4q-4 0 -4 5q0 4 4 5q-4 0 -4 5t5 5t5 -5q0 4 4 5q-4 0 -4 5q0 4 4 5q-4 0 -4 5t5 5zM275 385q5 0 5 -5t-5 -5t-5 4
q-1 -4 -4 -4q4 -1 4 -5q0 -5 -4 -5q4 -1 4 -5q0 -5 -5 -5t-5 4q-1 -4 -5 -4q-5 0 -5 4q-1 -4 -5 -4q-5 0 -5 4q-1 -4 -5 -4q-5 0 -5 4q-1 -4 -5 -4q-5 0 -5 4q-1 -4 -5 -4q-5 0 -5 4q-1 -4 -5 -4q-5 0 -5 4q-1 -4 -5 -4q-5 0 -5 4q-1 -4 -4 -4q4 -1 4 -5q0 -5 -5 -5t-5 4
q-1 -4 -5 -4q-5 0 -5 4q-1 -4 -5 -4q-5 0 -5 4q-1 -4 -5 -4q-5 0 -5 4q-1 -4 -5 -4q-5 0 -5 4q-1 -4 -5 -4q-5 0 -5 4q-1 -4 -5 -4q-5 0 -5 4q-1 -4 -5 -4q-5 0 -5 4q-1 -4 -5 -4q-5 0 -5 5q0 4 4 5q-4 0 -4 4q-1 -4 -5 -4q-5 0 -5 5q0 4 4 5q-4 0 -4 5t5 5t5 -5q0 5 5 5
t5 -5q0 5 5 5q4 0 5 -4q0 4 5 4t5 -5q0 5 5 5q4 0 5 -4q0 4 5 4t5 -5q0 5 5 5t5 -5q0 5 5 5t5 -5q0 5 5 5t5 -5q0 5 5 5t5 -5q0 4 4 5q-4 0 -4 5t5 5q4 0 5 -4q0 4 5 4t5 -5q0 5 5 5q4 0 5 -4q0 4 5 4t5 -5q0 5 5 5t5 -5q0 5 5 5q4 0 5 -4q0 4 5 4q4 0 5 -4q0 4 5 4
q4 0 5 -4q0 4 5 4zM110 39q-1 -4 -4 -4q4 -1 4 -5q0 4 4 5q-4 0 -4 4zM120 49q-1 -4 -4 -4q4 -1 4 -5q0 4 4 5q-4 0 -4 4zM130 59q-1 -4 -4 -4q4 -1 4 -5q0 4 4 5q-4 0 -4 4zM140 69q-1 -4 -4 -4q3 -1 4 -4q0 3 4 4q-4 0 -4 4zM140 79q-1 -4 -4 -4q3 -1 4 -4q0 3 4 4
q-4 0 -4 4zM154 75q-4 0 -4 4q-1 -4 -4 -4q3 -1 4 -4q0 3 4 4zM160 89q-1 -4 -4 -4q3 -1 4 -4q0 3 4 4q-4 0 -4 4zM154 85q-4 0 -4 4q-1 -4 -4 -4q3 -1 4 -4q0 3 4 4zM170 99q-1 -4 -4 -4q4 -1 4 -5q0 4 4 5q-4 0 -4 4zM160 99q-1 -4 -4 -4q3 -1 4 -4q0 3 4 4q-4 0 -4 4z
M170 109q-1 -4 -4 -4q4 -1 4 -5q0 4 4 5q-4 0 -4 4zM180 119q-1 -4 -4 -4q4 -1 4 -5q0 4 4 5q-4 0 -4 4zM190 129q-1 -4 -4 -4q3 -1 4 -4q0 3 4 4q-4 0 -4 4zM260 369q-1 -4 -4 -4q3 -1 4 -4q0 3 4 4q-4 0 -4 4zM250 369q-1 -4 -4 -4q4 -1 4 -5q0 4 4 5q-4 0 -4 4zM240 369
q-1 -4 -4 -4q4 -1 4 -5q0 4 4 5q-4 0 -4 4zM230 369q-1 -4 -4 -4q4 -1 4 -5q0 4 4 5q-4 0 -4 4zM220 369q-1 -4 -4 -4q4 -1 4 -5q0 4 4 5q-4 0 -4 4zM260 379q-1 -4 -4 -4q3 -1 4 -4q0 3 4 4q-4 0 -4 4zM250 379q-1 -4 -4 -4q3 -1 4 -4q0 3 4 4q-4 0 -4 4zM240 379
q-1 -4 -4 -4q4 -1 4 -5q0 4 4 5q-4 0 -4 4zM230 379q-1 -4 -4 -4q3 -1 4 -4q0 3 4 4q-4 0 -4 4zM220 379q-1 -4 -4 -4q3 -1 4 -4q0 3 4 4q-4 0 -4 4zM180 359q-1 -4 -4 -4q3 -1 4 -4q0 3 4 4q-4 0 -4 4zM170 359q-1 -4 -4 -4q4 -1 4 -5q0 4 4 5q-4 0 -4 4zM160 359
q-1 -4 -4 -4q4 -1 4 -5q0 4 4 5q-4 0 -4 4zM210 369q-1 -4 -4 -4q4 -1 4 -5q0 4 4 5q-4 0 -4 4zM200 369q-1 -4 -4 -4q3 -1 4 -4q0 3 4 4q-4 0 -4 4zM190 369q-1 -4 -4 -4q4 -1 4 -5q0 4 4 5q-4 0 -4 4zM180 369q-1 -4 -4 -4q4 -1 4 -5q0 4 4 5q-4 0 -4 4zM170 369
q-1 -4 -4 -4q4 -1 4 -5q0 4 4 5q-4 0 -4 4zM160 369q-1 -4 -4 -4q4 -1 4 -5q0 4 4 5q-4 0 -4 4zM210 379q-1 -4 -4 -4q4 -1 4 -5q0 4 4 5q-4 0 -4 4zM200 379q-1 -4 -4 -4q3 -1 4 -4q0 3 4 4q-4 0 -4 4zM150 359q-1 -4 -4 -4q4 -1 4 -5q0 4 4 5q-4 0 -4 4zM140 359
q-1 -4 -4 -4q4 -1 4 -5q0 4 4 5q-4 0 -4 4zM130 359q-1 -4 -4 -4q4 -1 4 -5q0 4 4 5q-4 0 -4 4zM120 359q-1 -4 -4 -4q4 -1 4 -5q0 4 4 5q-4 0 -4 4zM110 359q-1 -4 -4 -4q4 -1 4 -5q0 4 4 5q-4 0 -4 4zM150 369q-1 -4 -4 -4q4 -1 4 -5q0 4 4 5q-4 0 -4 4zM140 369
q-1 -4 -4 -4q4 -1 4 -5q0 4 4 5q-4 0 -4 4zM130 369q-1 -4 -4 -4q4 -1 4 -5q0 4 4 5q-4 0 -4 4zM120 369q-1 -4 -4 -4q4 -1 4 -5q0 4 4 5q-4 0 -4 4zM110 369q-1 -4 -4 -4q4 -1 4 -5q0 4 4 5q-4 0 -4 4zM100 369q-1 -4 -4 -4q4 -1 4 -5q0 4 4 5q-4 0 -4 4zM410 369
q-1 -4 -4 -4q4 -1 4 -5q0 4 4 5q-4 0 -4 4zM200 139q-1 -4 -4 -4q4 -1 4 -5q0 4 4 5q-4 0 -4 4zM194 135q-4 0 -4 4q-1 -4 -4 -4q4 -1 4 -5q0 4 4 5zM210 149q-1 -4 -4 -4q4 -1 4 -5q0 4 4 5q-4 0 -4 4zM200 149q-1 -4 -4 -4q3 -1 4 -4q0 3 4 4q-4 0 -4 4zM220 159
q-1 -4 -4 -4q4 -1 4 -5q0 4 4 5q-4 0 -4 4zM210 159q-1 -4 -4 -4q4 -1 4 -5q0 4 4 5q-4 0 -4 4zM230 169q-1 -4 -4 -4q4 -1 4 -5q0 4 4 5q-4 0 -4 4zM220 169q-1 -4 -4 -4q4 -1 4 -5q0 4 4 5q-4 0 -4 4zM240 179q-1 -4 -4 -4q4 -1 4 -5q0 4 4 5q-4 0 -4 4zM230 179
q-1 -4 -4 -4q4 -1 4 -5q0 4 4 5q-4 0 -4 4zM240 189q-1 -4 -4 -4q4 -1 4 -5q0 4 4 5q-4 0 -4 4zM240 199q-1 -4 -4 -4q4 -1 4 -5q0 4 4 5q-4 0 -4 4zM254 185q-4 0 -4 4q-1 -4 -4 -4q3 -1 4 -4q0 3 4 4zM260 199q-1 -4 -4 -4q4 -1 4 -5q0 4 4 5q-4 0 -4 4zM254 195
q-4 0 -4 4q-1 -4 -4 -4q4 -1 4 -5q0 4 4 5zM270 209q-1 -4 -4 -4q4 -1 4 -5q0 4 4 5q-4 0 -4 4zM260 209q-1 -4 -4 -4q4 -1 4 -5q0 4 4 5q-4 0 -4 4zM254 205q-4 0 -4 4q-1 -4 -4 -4q4 -1 4 -5q0 4 4 5zM280 219q-1 -4 -4 -4q3 -1 4 -4q0 3 4 4q-4 0 -4 4zM270 219
q-1 -4 -4 -4q4 -1 4 -5q0 4 4 5q-4 0 -4 4zM260 219q-1 -4 -4 -4q3 -1 4 -4q0 3 4 4q-4 0 -4 4zM280 229q-1 -4 -4 -4q4 -1 4 -5q0 4 4 5q-4 0 -4 4zM270 229q-1 -4 -4 -4q3 -1 4 -4q0 3 4 4q-4 0 -4 4zM290 239q-1 -4 -4 -4q3 -1 4 -4q0 3 4 4q-4 0 -4 4zM280 239
q-1 -4 -4 -4q4 -1 4 -5q0 4 4 5q-4 0 -4 4zM300 249q-1 -4 -4 -4q4 -1 4 -5q0 4 4 5q-4 0 -4 4zM290 249q-1 -4 -4 -4q4 -1 4 -5q0 4 4 5q-4 0 -4 4zM300 259q-1 -4 -4 -4q4 -1 4 -5q0 4 4 5q-4 0 -4 4zM300 269q-1 -4 -4 -4q3 -1 4 -4q0 3 4 4q-4 0 -4 4zM314 255
q-4 0 -4 4q-1 -4 -4 -4q4 -1 4 -5q0 4 4 5zM320 269q-1 -4 -4 -4q4 -1 4 -5q0 4 4 5q-4 0 -4 4zM314 265q-4 0 -4 4q-1 -4 -4 -4q4 -1 4 -5q0 4 4 5zM330 279q-1 -4 -4 -4q3 -1 4 -4q0 3 4 4q-4 0 -4 4zM320 279q-1 -4 -4 -4q3 -1 4 -4q0 3 4 4q-4 0 -4 4zM314 275
q-4 0 -4 4q-1 -4 -4 -4q3 -1 4 -4q0 3 4 4zM340 289q-1 -4 -4 -4q4 -1 4 -5q0 4 4 5q-4 0 -4 4zM330 289q-1 -4 -4 -4q4 -1 4 -5q0 4 4 5q-4 0 -4 4zM320 289q-1 -4 -4 -4q4 -1 4 -5q0 4 4 5q-4 0 -4 4zM350 299q-1 -4 -4 -4q4 -1 4 -5q0 4 4 5q-4 0 -4 4zM340 299
q-1 -4 -4 -4q3 -1 4 -4q0 3 4 4q-4 0 -4 4zM330 299q-1 -4 -4 -4q4 -1 4 -5q0 4 4 5q-4 0 -4 4zM360 309q-1 -4 -4 -4q4 -1 4 -5q0 4 4 5q-4 0 -4 4zM350 309q-1 -4 -4 -4q3 -1 4 -4q0 3 4 4q-4 0 -4 4zM340 309q-1 -4 -4 -4q4 -1 4 -5q0 4 4 5q-4 0 -4 4zM270 489
q-1 -4 -4 -4q3 -1 4 -4q0 3 4 4q-4 0 -4 4zM260 489q-1 -4 -4 -4q3 -1 4 -4q0 3 4 4q-4 0 -4 4zM270 499q-1 -4 -4 -4q4 -1 4 -5q0 4 4 5q-4 0 -4 4zM260 499q-1 -4 -4 -4q3 -1 4 -4q0 3 4 4q-4 0 -4 4zM280 509q-1 -4 -4 -4q3 -1 4 -4q0 3 4 4q-4 0 -4 4zM270 509
q-1 -4 -4 -4q4 -1 4 -5q0 4 4 5q-4 0 -4 4zM280 519q-1 -4 -4 -4q4 -1 4 -5q0 4 4 5q-4 0 -4 4zM270 519q-1 -4 -4 -4q4 -1 4 -5q0 4 4 5q-4 0 -4 4zM280 529q-1 -4 -4 -4q4 -1 4 -5q0 4 4 5q-4 0 -4 4zM280 539q-1 -4 -4 -4q4 -1 4 -5q0 4 4 5q-4 0 -4 4zM360 319
q-1 -4 -4 -4q4 -1 4 -5q0 4 4 5q-4 0 -4 4zM350 319q-1 -4 -4 -4q3 -1 4 -4q0 3 4 4q-4 0 -4 4zM360 329q-1 -4 -4 -4q4 -1 4 -5q0 4 4 5q-4 0 -4 4zM350 329q-1 -4 -4 -4q4 -1 4 -5q0 4 4 5q-4 0 -4 4zM360 339q-1 -4 -4 -4q3 -1 4 -4q0 3 4 4q-4 0 -4 4zM374 315
q-4 0 -4 4q-1 -4 -4 -4q3 -1 4 -4q0 3 4 4zM380 329q-1 -4 -4 -4q3 -1 4 -4q0 3 4 4q-4 0 -4 4zM374 325q-4 0 -4 4q-1 -4 -4 -4q4 -1 4 -5q0 4 4 5zM390 339q-1 -4 -4 -4q4 -1 4 -5q0 4 4 5q-4 0 -4 4zM380 339q-1 -4 -4 -4q4 -1 4 -5q0 4 4 5q-4 0 -4 4zM374 335
q-4 0 -4 4q-1 -4 -4 -4q3 -1 4 -4q0 3 4 4zM400 349q-1 -4 -4 -4q4 -1 4 -5q0 4 4 5q-4 0 -4 4zM390 349q-1 -4 -4 -4q3 -1 4 -4q0 3 4 4q-4 0 -4 4zM380 349q-1 -4 -4 -4q4 -1 4 -5q0 4 4 5q-4 0 -4 4zM374 345q-4 0 -4 4q-1 -4 -4 -4q4 -1 4 -5q0 4 4 5zM410 359
q-1 -4 -4 -4q4 -1 4 -5q0 4 4 5q-4 0 -4 4zM400 359q-1 -4 -4 -4q3 -1 4 -4q0 3 4 4q-4 0 -4 4zM390 359q-1 -4 -4 -4q3 -1 4 -4q0 3 4 4q-4 0 -4 4zM380 359q-1 -4 -4 -4q3 -1 4 -4q0 3 4 4q-4 0 -4 4zM300 549q-1 -4 -4 -4q3 -1 4 -4q0 3 4 4q-4 0 -4 4zM400 369
q-1 -4 -4 -4q4 -1 4 -5q0 4 4 5q-4 0 -4 4zM390 369q-1 -4 -4 -4q3 -1 4 -4q0 3 4 4q-4 0 -4 4zM420 379q-1 -4 -4 -4q3 -1 4 -4q0 3 4 4q-4 0 -4 4zM410 379q-1 -4 -4 -4q3 -1 4 -4q0 3 4 4q-4 0 -4 4zM400 379q-1 -4 -4 -4q4 -1 4 -5q0 4 4 5q-4 0 -4 4zM420 389
q-1 -4 -4 -4q4 -1 4 -5q0 4 4 5q-4 0 -4 4zM410 389q-1 -4 -4 -4q4 -1 4 -5q0 4 4 5q-4 0 -4 4zM400 389q-1 -4 -4 -4q3 -1 4 -4q0 3 4 4q-4 0 -4 4zM420 399q-1 -4 -4 -4q4 -1 4 -5q0 4 4 5q-4 0 -4 4zM410 399q-1 -4 -4 -4q4 -1 4 -5q0 4 4 5q-4 0 -4 4zM420 409
q-1 -4 -4 -4q4 -1 4 -5q0 4 4 5q-4 0 -4 4zM434 385q-4 0 -4 4q-1 -4 -4 -4q4 -1 4 -5q0 4 4 5zM440 399q-1 -4 -4 -4q4 -1 4 -5q0 4 4 5q-4 0 -4 4zM434 395q-4 0 -4 4q-1 -4 -4 -4q3 -1 4 -4q0 3 4 4zM450 409q-1 -4 -4 -4q4 -1 4 -5q0 4 4 5q-4 0 -4 4zM440 409
q-1 -4 -4 -4q3 -1 4 -4q0 3 4 4q-4 0 -4 4zM434 405q-4 0 -4 4q-1 -4 -4 -4q4 -1 4 -5q0 4 4 5zM460 419q-1 -4 -4 -4q4 -1 4 -5q0 4 4 5q-4 0 -4 4zM450 419q-1 -4 -4 -4q3 -1 4 -4q0 3 4 4q-4 0 -4 4zM440 419q-1 -4 -4 -4q4 -1 4 -5q0 4 4 5q-4 0 -4 4zM434 415
q-4 0 -4 4q-1 -4 -4 -4q3 -1 4 -4q0 3 4 4zM470 429q-1 -4 -4 -4q3 -1 4 -4q0 3 4 4q-4 0 -4 4zM460 429q-1 -4 -4 -4q4 -1 4 -5q0 4 4 5q-4 0 -4 4zM450 429q-1 -4 -4 -4q3 -1 4 -4q0 3 4 4q-4 0 -4 4zM440 429q-1 -4 -4 -4q3 -1 4 -4q0 3 4 4q-4 0 -4 4zM480 439
q-1 -4 -4 -4q3 -1 4 -4q0 3 4 4q-4 0 -4 4zM470 439q-1 -4 -4 -4q3 -1 4 -4q0 3 4 4q-4 0 -4 4zM460 439q-1 -4 -4 -4q4 -1 4 -5q0 4 4 5q-4 0 -4 4zM450 439q-1 -4 -4 -4q3 -1 4 -4q0 3 4 4q-4 0 -4 4zM470 449q-1 -4 -4 -4q3 -1 4 -4q0 3 4 4q-4 0 -4 4zM460 449
q-1 -4 -4 -4q3 -1 4 -4q0 3 4 4q-4 0 -4 4zM470 459q-1 -4 -4 -4q4 -1 4 -5q0 4 4 5q-4 0 -4 4zM460 459q-1 -4 -4 -4q4 -1 4 -5q0 4 4 5q-4 0 -4 4zM340 629q-1 -4 -4 -4q3 -1 4 -4q0 3 4 4q-4 0 -4 4zM294 525q-4 0 -4 4q-1 -4 -4 -4q4 -1 4 -5q0 4 4 5zM294 535
q-4 0 -4 4q-1 -4 -4 -4q4 -1 4 -5q0 4 4 5zM330 629q-1 -4 -4 -4q3 -1 4 -4q0 3 4 4q-4 0 -4 4zM294 545q-4 0 -4 4q-1 -4 -4 -4q4 -1 4 -5q0 4 4 5zM300 559q-1 -4 -4 -4q3 -1 4 -4q0 3 4 4q-4 0 -4 4zM294 555q-4 0 -4 4q-1 -4 -4 -4q4 -1 4 -5q0 4 4 5zM310 569
q-1 -4 -4 -4q4 -1 4 -5q0 4 4 5q-4 0 -4 4zM300 569q-1 -4 -4 -4q4 -1 4 -5q0 4 4 5q-4 0 -4 4zM310 579q-1 -4 -4 -4q4 -1 4 -5q0 4 4 5q-4 0 -4 4zM300 579q-1 -4 -4 -4q3 -1 4 -4q0 3 4 4q-4 0 -4 4zM320 589q-1 -4 -4 -4q4 -1 4 -5q0 4 4 5q-4 0 -4 4zM310 589
q-1 -4 -4 -4q4 -1 4 -5q0 4 4 5q-4 0 -4 4zM330 599q-1 -4 -4 -4q3 -1 4 -4q0 3 4 4q-4 0 -4 4zM320 599q-1 -4 -4 -4q4 -1 4 -5q0 4 4 5q-4 0 -4 4zM310 599q-1 -4 -4 -4q4 -1 4 -5q0 4 4 5q-4 0 -4 4zM330 609q-1 -4 -4 -4q3 -1 4 -4q0 3 4 4q-4 0 -4 4zM320 609
q-1 -4 -4 -4q4 -1 4 -5q0 4 4 5q-4 0 -4 4zM340 619q-1 -4 -4 -4q4 -1 4 -5q0 4 4 5q-4 0 -4 4zM330 619q-1 -4 -4 -4q4 -1 4 -5q0 4 4 5q-4 0 -4 4zM354 665q-4 0 -4 4q-1 -4 -4 -4q4 -1 4 -5q0 4 4 5zM360 689q-1 -4 -4 -4q4 -1 4 -5q0 4 4 5q-4 0 -4 4zM340 639
q-1 -4 -4 -4q3 -1 4 -4q0 3 4 4q-4 0 -4 4zM340 649q-1 -4 -4 -4q4 -1 4 -5q0 4 4 5q-4 0 -4 4zM354 635q-4 0 -4 4q-1 -4 -4 -4q3 -1 4 -4q0 3 4 4zM354 645q-4 0 -4 4q-1 -4 -4 -4q4 -1 4 -5q0 4 4 5zM360 659q-1 -4 -4 -4q3 -1 4 -4q0 3 4 4q-4 0 -4 4zM354 655
q-4 0 -4 4q-1 -4 -4 -4q4 -1 4 -5q0 4 4 5zM370 669q-1 -4 -4 -4q3 -1 4 -4q0 3 4 4q-4 0 -4 4zM360 669q-1 -4 -4 -4q4 -1 4 -5q0 4 4 5q-4 0 -4 4zM80 9q-1 -4 -4 -4q4 -1 4 -5q0 4 4 5q-4 0 -4 4zM370 679q-1 -4 -4 -4q4 -1 4 -5q0 4 4 5q-4 0 -4 4zM360 679q-1 -4 -4 -4
q4 -1 4 -5q0 4 4 5q-4 0 -4 4zM380 689q-1 -4 -4 -4q4 -1 4 -5q0 4 4 5q-4 0 -4 4zM370 689q-1 -4 -4 -4q3 -1 4 -4q0 3 4 4q-4 0 -4 4zM94 15q-4 0 -4 4q-1 -4 -4 -4q4 -1 4 -5q0 4 4 5zM370 699q-1 -4 -4 -4q4 -1 4 -5q0 4 4 5q-4 0 -4 4zM100 29q-1 -4 -4 -4q4 -1 4 -5
q0 4 4 5q-4 0 -4 4z" />
    <glyph glyph-name="_526" horiz-adv-x="265" 
d="M132 562q-35 0 -61 25.5t-26 61.5t26 61.5t61 25.5q37 0 62.5 -25.5t25.5 -61.5t-25.5 -61.5t-62.5 -25.5z" />
    <glyph glyph-name="_531" 
d="M0 -75q-32 0 -54 22t-22 53q0 32 22 54t54 22q31 0 53 -22t22 -54q0 -31 -22 -53t-53 -22z" />
    <glyph glyph-name="_532" 
d="M0 -220q-32 0 -54 22t-22 53q0 32 22 54t54 22q31 0 53 -22t22 -54q0 -31 -22 -53t-53 -22z" />
    <glyph glyph-name="_534" 
d="M20 -322h-63l32 112h-55v132h133v-132z" />
    <glyph glyph-name="_538" 
d="M-79 549l21 161h137l-65 -161h-93z" />
    <glyph glyph-name="_539" 
d="M-19 822h63l-32 -112h55v-132h-133v132z" />
    <glyph glyph-name="_540" 
d="M-95 577q-32 0 -54 22t-22 53q0 32 22 54t54 22q31 0 53 -22t22 -54q0 -31 -22 -53t-53 -22zM94 577q-31 0 -53 22t-22 53q0 32 22 54t53 22q32 0 54 -22t22 -54q0 -31 -22 -53t-54 -22z" />
    <glyph glyph-name="_541" 
d="M260 464l-474 -475l-46 47l474 475z" />
    <glyph glyph-name="_542" 
d="M170 567h-339v90h339v-90z" />
    <glyph glyph-name="_543" 
d="M170 567h-339v90h339v-90z" />
    <glyph glyph-name="_544" 
d="M143 403l-285 -167v107l285 168v-108z" />
    <glyph glyph-name="_545" 
d="M-205 220v90h409v-90h-409z" />
    <glyph glyph-name="zero.zero" horiz-adv-x="631" 
d="M316 -11q-117 0 -191 79t-74 202v172q0 122 74 201t191 79q116 0 190 -79t74 -201v-172q0 -123 -74 -202t-190 -79zM316 124q58 0 92.5 39t34.5 107v102l-251 -146q11 -49 43.5 -75.5t80.5 -26.5zM188 442v-103l250 147q-11 48 -43 74.5t-79 26.5q-58 0 -93 -38.5
t-35 -106.5z" />
    <glyph glyph-name="one.onum" horiz-adv-x="343" 
d="M137 0v440h-116v120h253v-560h-137z" />
    <glyph glyph-name="two.onum" horiz-adv-x="500" 
d="M45 0v108l222 205q45 43 45 80q0 25 -15 40.5t-43 15.5q-30 0 -51.5 -20t-31.5 -52l-132 28q21 80 79 122.5t142 42.5q79 0 133 -44t54 -126q0 -56 -23.5 -94.5t-70.5 -83.5l-107 -102h207v-120h-408z" />
    <glyph glyph-name="three.onum" horiz-adv-x="513" 
d="M250 -79q-84 0 -147.5 44t-81.5 116l131 46q26 -85 98 -85q41 0 65.5 27t24.5 69t-24.5 68.5t-65.5 26.5h-71v93l101 115h-230v119h394v-96l-115 -135q65 -13 106.5 -63.5t41.5 -127.5q0 -93 -63.5 -155t-163.5 -62z" />
    <glyph glyph-name="four.onum" horiz-adv-x="559" 
d="M312 -68v143h-296v99l309 386h124v-373h77v-112h-77v-143h-137zM180 187h132v175z" />
    <glyph glyph-name="five.onum" horiz-adv-x="513" 
d="M260 -78q-78 0 -143.5 44.5t-84.5 116.5l131 45q26 -85 99 -85q40 0 60 26.5t20 69.5q0 40 -22 68t-56 28q-54 0 -74 -49h-128v374h375v-119h-238v-121q39 26 94 26q86 0 136 -57t50 -151q0 -98 -59.5 -157t-159.5 -59z" />
    <glyph glyph-name="six.onum" horiz-adv-x="527" 
d="M262 -11q-98 0 -162 60.5t-64 144.5q0 51 16 86t57 93l179 254h166l-153 -217q74 -6 131 -62t57 -142q0 -94 -63 -155.5t-164 -61.5zM174 204q0 -42 24.5 -69.5t63.5 -27.5q41 0 65 27t24 70t-24 70t-65 27q-40 0 -64 -27t-24 -70z" />
    <glyph glyph-name="seven.onum" horiz-adv-x="484" 
d="M183 -68h-155l277 509h-275v119h436v-106z" />
    <glyph glyph-name="eight.onum" horiz-adv-x="549" 
d="M275 -11q-96 0 -165.5 58t-69.5 145q0 98 85 148q-59 48 -59 127q0 74 58.5 122t150.5 48q90 0 148.5 -48t58.5 -122q0 -78 -60 -126q87 -51 87 -149q0 -87 -69.5 -145t-164.5 -58zM275 102q41 0 66.5 26.5t25.5 65.5q0 40 -25.5 66.5t-66.5 26.5q-42 0 -68 -26.5
t-26 -66.5q0 -39 26 -65.5t68 -26.5zM275 384q33 0 53.5 21t20.5 51q0 31 -21 52t-53 21q-35 0 -55.5 -20.5t-20.5 -52.5q0 -31 21 -51.5t55 -20.5z" />
    <glyph glyph-name="nine.onum" horiz-adv-x="526" 
d="M264 570q99 0 163 -60t64 -145q0 -51 -16 -86t-57 -93l-180 -254h-165l152 216q-74 6 -130.5 62.5t-56.5 142.5q0 93 63 155t163 62zM353 355q0 43 -24 70t-65 27q-39 0 -63.5 -27.5t-24.5 -69.5q0 -43 24 -70t64 -27q41 0 65 27t24 70z" />
    <glyph glyph-name="zero.onum" horiz-adv-x="547" 
d="M273 -9q-99 0 -161.5 63.5t-62.5 161.5v129q0 98 62.5 161.5t161.5 63.5t162 -63.5t63 -161.5v-129q0 -98 -63 -161.5t-162 -63.5zM273 111q40 0 64 27.5t24 77.5v129q0 48 -24 76t-64 28q-39 0 -63 -28t-24 -76v-129q0 -49 23.5 -77t63.5 -28z" />
    <glyph glyph-name="zero.onum_zero" horiz-adv-x="547" 
d="M273 -9q-99 0 -161.5 63.5t-62.5 161.5v129q0 98 62.5 161.5t161.5 63.5t162 -63.5t63 -161.5v-129q0 -98 -63 -161.5t-162 -63.5zM273 111q40 0 64 27.5t24 77.5v58l-170 -99q8 -30 30 -47t52 -17zM186 345v-59l169 100q-19 63 -82 63q-39 0 -63 -28t-24 -76z" />
    <glyph glyph-name="one.tnum" horiz-adv-x="590" 
d="M370 128h174v-128h-485v128h174v447h-125v135h262v-582z" />
    <glyph glyph-name="two.tnum" horiz-adv-x="590" 
d="M50 1v120l277 267q62 62 62 113q0 37 -25 62t-68 25q-41 0 -72 -28t-43 -72l-133 32q19 94 89 148.5t166 54.5q95 0 159 -57t64 -158q0 -69 -29 -119.5t-88 -107.5l-150 -145h274v-135h-483z" />
    <glyph glyph-name="three.tnum" horiz-adv-x="590" 
d="M287 -12q-88 0 -163 50.5t-96 130.5l133 51q15 -44 48.5 -70.5t80.5 -26.5q52 0 81 27t29 71q0 48 -33 76.5t-87 28.5h-92v112l134 139h-243v133h425v-108l-154 -160q90 -12 138.5 -72.5t48.5 -148.5q0 -105 -69 -169t-181 -64z" />
    <glyph glyph-name="four.tnum" horiz-adv-x="590" 
d="M357 0v162h-353v111l368 437h122v-422h93v-126h-93v-162h-137zM172 288h185v219z" />
    <glyph glyph-name="five.tnum" horiz-adv-x="590" 
d="M300 -11q-89 0 -164 50.5t-96 130.5l132 51q13 -43 47 -70t81 -27q52 0 81.5 31t29.5 79q0 45 -31 77.5t-78 32.5q-33 0 -59.5 -15t-38.5 -40h-130v421h426v-133h-289v-141q47 32 112 32q104 0 164.5 -67.5t60.5 -177.5q0 -106 -68.5 -170t-179.5 -64z" />
    <glyph glyph-name="six.tnum" horiz-adv-x="590" 
d="M292 -11q-111 0 -179 69.5t-68 175.5q0 50 18 87.5t64 101.5l212 287h169l-183 -249q84 -4 149.5 -66t65.5 -161q0 -106 -68 -175.5t-180 -69.5zM292 121q48 0 79 32t31 79q0 46 -31.5 79t-78.5 33t-78 -32.5t-31 -79.5t31 -79t78 -32z" />
    <glyph glyph-name="seven.tnum" horiz-adv-x="590" 
d="M220 0h-155l321 577h-332v133h495v-118z" />
    <glyph glyph-name="eight.tnum" horiz-adv-x="590" 
d="M295 -11q-108 0 -180 65t-72 164q0 116 91 170q-61 55 -61 142q0 83 61.5 137.5t160.5 54.5t160.5 -54.5t61.5 -137.5q0 -86 -61 -141q91 -56 91 -171q0 -99 -72 -164t-180 -65zM295 116q50 0 80.5 30.5t30.5 74.5t-30.5 74.5t-80.5 30.5q-51 0 -81 -30.5t-30 -74.5
t30 -74.5t81 -30.5zM295 436q38 0 63.5 23.5t25.5 58.5t-25.5 58.5t-63.5 23.5t-63.5 -23.5t-25.5 -58.5t25.5 -58.5t63.5 -23.5z" />
    <glyph glyph-name="nine.tnum" horiz-adv-x="590" 
d="M80 0l183 250q-83 2 -148.5 65t-65.5 162q0 106 68.5 175.5t179.5 69.5t179.5 -69.5t68.5 -175.5q0 -49 -18 -86.5t-65 -102.5l-212 -288h-170zM297 367q47 0 78.5 33t31.5 79q0 47 -31 79t-79 32t-79 -31.5t-31 -79.5q0 -46 31.5 -79t78.5 -33z" />
    <glyph glyph-name="zero.tnum" horiz-adv-x="590" 
d="M296 -11q-117 0 -191 79t-74 202v172q0 122 74 201t191 79q116 0 190 -79t74 -201v-172q0 -123 -74 -202t-190 -79zM296 124q58 0 92.5 39t34.5 107v172q0 68 -34.5 106.5t-92.5 38.5t-93 -38.5t-35 -106.5v-172q0 -68 35 -107t93 -39z" />
    <glyph glyph-name="zero.tnum_zero" horiz-adv-x="590" 
d="M295 -11q-117 0 -191 79t-74 202v172q0 122 74 201t191 79q116 0 190 -79t74 -201v-172q0 -123 -74 -202t-190 -79zM295 124q58 0 92.5 39t34.5 107v102l-251 -146q11 -49 43.5 -75.5t80.5 -26.5zM167 442v-103l250 147q-11 48 -43 74.5t-79 26.5q-58 0 -93 -38.5
t-35 -106.5z" />
    <glyph glyph-name="uni2070.zero" horiz-adv-x="389" 
d="M195 403q-74 0 -119.5 49t-45.5 125v98q0 76 45.5 125t119.5 49q72 0 118 -49t46 -125v-98q0 -76 -46 -125t-118 -49zM195 499q30 0 48.5 21t18.5 57v48l-132 -74q13 -52 65 -52zM127 675v-47l132 74q-14 51 -64 51q-30 0 -49 -21t-19 -57z" />
    <glyph glyph-name="uni2080.zero" horiz-adv-x="389" 
d="M195 -122q-74 0 -119.5 49t-45.5 125v98q0 76 45.5 125t119.5 49q72 0 118 -49t46 -125v-98q0 -76 -46 -125t-118 -49zM195 -26q30 0 48.5 21t18.5 57v48l-132 -74q13 -52 65 -52zM127 150v-47l132 74q-14 51 -64 51q-30 0 -49 -21t-19 -57z" />
    <glyph glyph-name="one.numr" horiz-adv-x="241" 
d="M98 278v337h-83v95h179v-432h-96z" />
    <glyph glyph-name="two.numr" horiz-adv-x="355" 
d="M27 278v86l169 164q29 27 29 53q0 17 -11.5 28.5t-31.5 11.5q-45 0 -65 -55l-94 24q15 60 58 93.5t103 33.5t99 -33.5t39 -97.5q0 -43 -17.5 -74t-51.5 -63l-79 -76h152v-95h-299z" />
    <glyph glyph-name="three.numr" horiz-adv-x="353" 
d="M174 270q-54 0 -100 31t-59 81l93 37q18 -52 69 -52q24 0 39 13t15 36t-17.5 37.5t-45.5 14.5h-58v81l70 66h-141v95h264v-83l-85 -81q53 -9 81.5 -44.5t28.5 -87.5q0 -65 -42.5 -104.5t-111.5 -39.5z" />
    <glyph glyph-name="four.numr" horiz-adv-x="395" 
d="M223 278v90h-208v79l218 263h88v-253h55v-89h-55v-90h-98zM133 457h90v108z" />
    <glyph glyph-name="five.numr" horiz-adv-x="359" 
d="M182 271q-55 0 -100.5 31.5t-59.5 80.5l92 36q18 -52 71 -52q24 0 39.5 16t15.5 39t-16 39t-39 16q-37 0 -52 -32h-90v265h264v-95h-167v-67q26 17 65 17q60 0 96 -41.5t36 -107.5q0 -69 -41.5 -107t-113.5 -38z" />
    <glyph glyph-name="six.numr" horiz-adv-x="339" 
d="M168 271q-69 0 -111 42t-42 102q0 35 10.5 58t40.5 67l115 170h119l-102 -151q47 -4 84.5 -40.5t37.5 -96.5q0 -65 -41 -108t-111 -43zM168 365q23 0 38.5 16.5t15.5 39.5t-15.5 39.5t-38.5 16.5q-26 0 -41 -16t-15 -40t15 -40t41 -16z" />
    <glyph glyph-name="seven.numr" horiz-adv-x="346" 
d="M138 278h-111l192 337h-193v95h309v-85z" />
    <glyph glyph-name="eight.numr" horiz-adv-x="363" 
d="M182 271q-67 0 -112 39.5t-45 99.5q0 64 52 100q-34 34 -34 89q0 48 38.5 83t100.5 35t99.5 -34.5t37.5 -83.5q0 -54 -35 -88q55 -36 55 -101q0 -59 -45.5 -99t-111.5 -40zM182 360q25 0 40.5 16.5t15.5 38.5q0 21 -15.5 37t-40.5 16q-26 0 -41.5 -15.5t-15.5 -37.5
t15.5 -38.5t41.5 -16.5zM182 544q19 0 33 12t14 32q0 18 -14 31t-33 13q-20 0 -33.5 -12.5t-13.5 -31.5q0 -20 13 -32t34 -12z" />
    <glyph glyph-name="nine.numr" horiz-adv-x="339" 
d="M39 278l102 151q-48 4 -85 40.5t-37 96.5q0 66 41.5 108.5t111.5 42.5q69 0 110.5 -42t41.5 -102q0 -35 -10.5 -58t-40.5 -67l-115 -170h-119zM172 511q24 0 39.5 16t15.5 40t-15.5 40t-39.5 16t-39.5 -16t-15.5 -40t15.5 -40t39.5 -16z" />
    <glyph glyph-name="zero.numr" horiz-adv-x="389" 
d="M195 271q-74 0 -119.5 49t-45.5 125v98q0 76 45.5 125t119.5 49q72 0 118 -49t46 -125v-98q0 -76 -46 -125t-118 -49zM195 367q30 0 48.5 21t18.5 57v98q0 36 -18.5 57t-48.5 21t-49 -21t-19 -57v-98q0 -36 19 -57t49 -21z" />
    <glyph glyph-name="zero.numr_zero" horiz-adv-x="389" 
d="M195 271q-74 0 -119.5 49t-45.5 125v98q0 76 45.5 125t119.5 49q72 0 118 -49t46 -125v-98q0 -76 -46 -125t-118 -49zM195 367q30 0 48.5 21t18.5 57v48l-132 -74q13 -52 65 -52zM127 543v-47l132 74q-14 51 -64 51q-30 0 -49 -21t-19 -57z" />
    <glyph glyph-name="one.dnom" horiz-adv-x="241" 
d="M98 1v337h-83v95h179v-432h-96z" />
    <glyph glyph-name="two.dnom" horiz-adv-x="355" 
d="M27 1v86l169 164q29 27 29 53q0 17 -11.5 28.5t-31.5 11.5q-45 0 -65 -55l-94 24q15 60 58 93.5t103 33.5t99 -33.5t39 -97.5q0 -43 -17.5 -74t-51.5 -63l-79 -76h152v-95h-299z" />
    <glyph glyph-name="three.dnom" horiz-adv-x="353" 
d="M174 -7q-54 0 -100 31t-59 81l93 37q18 -52 69 -52q24 0 39 13t15 36t-17.5 37.5t-45.5 14.5h-58v81l70 66h-141v95h264v-83l-85 -81q53 -9 81.5 -44.5t28.5 -87.5q0 -65 -42.5 -104.5t-111.5 -39.5z" />
    <glyph glyph-name="four.dnom" horiz-adv-x="395" 
d="M223 1v90h-208v79l218 263h88v-253h55v-89h-55v-90h-98zM133 180h90v108z" />
    <glyph glyph-name="five.dnom" horiz-adv-x="359" 
d="M182 -6q-55 0 -100.5 31.5t-59.5 80.5l92 36q18 -52 71 -52q24 0 39.5 16t15.5 39t-16 39t-39 16q-37 0 -52 -32h-90v265h264v-95h-167v-67q26 17 65 17q60 0 96 -41.5t36 -107.5q0 -69 -41.5 -107t-113.5 -38z" />
    <glyph glyph-name="six.dnom" horiz-adv-x="339" 
d="M168 -6q-69 0 -111 42t-42 102q0 35 10.5 58t40.5 67l115 170h119l-102 -151q47 -4 84.5 -40.5t37.5 -96.5q0 -65 -41 -108t-111 -43zM168 88q23 0 38.5 16.5t15.5 39.5t-15.5 39.5t-38.5 16.5q-26 0 -41 -16t-15 -40t15 -40t41 -16z" />
    <glyph glyph-name="seven.dnom" horiz-adv-x="346" 
d="M138 1h-111l192 337h-193v95h309v-85z" />
    <glyph glyph-name="eight.dnom" horiz-adv-x="363" 
d="M182 -6q-67 0 -112 39.5t-45 99.5q0 64 52 100q-34 34 -34 89q0 48 38.5 83t100.5 35t99.5 -34.5t37.5 -83.5q0 -54 -35 -88q55 -36 55 -101q0 -59 -45.5 -99t-111.5 -40zM182 83q25 0 40.5 16.5t15.5 38.5q0 21 -15.5 37t-40.5 16q-26 0 -41.5 -15.5t-15.5 -37.5
t15.5 -38.5t41.5 -16.5zM182 267q19 0 33 12t14 32q0 18 -14 31t-33 13q-20 0 -33.5 -12.5t-13.5 -31.5q0 -20 13 -32t34 -12z" />
    <glyph glyph-name="nine.dnom" horiz-adv-x="339" 
d="M39 1l102 151q-48 4 -85 40.5t-37 96.5q0 66 41.5 108.5t111.5 42.5q69 0 110.5 -42t41.5 -102q0 -35 -10.5 -58t-40.5 -67l-115 -170h-119zM172 234q24 0 39.5 16t15.5 40t-15.5 40t-39.5 16t-39.5 -16t-15.5 -40t15.5 -40t39.5 -16z" />
    <glyph glyph-name="zero.dnom" horiz-adv-x="389" 
d="M195 -6q-74 0 -119.5 49t-45.5 125v98q0 76 45.5 125t119.5 49q72 0 118 -49t46 -125v-98q0 -76 -46 -125t-118 -49zM195 90q30 0 48.5 21t18.5 57v98q0 36 -18.5 57t-48.5 21t-49 -21t-19 -57v-98q0 -36 19 -57t49 -21z" />
    <glyph glyph-name="zero.dnom_zero" horiz-adv-x="389" 
d="M195 -7q-74 0 -119.5 49t-45.5 125v98q0 76 45.5 125t119.5 49q72 0 118 -49t46 -125v-98q0 -76 -46 -125t-118 -49zM195 89q30 0 48.5 21t18.5 57v48l-132 -74q13 -52 65 -52zM127 265v-47l132 74q-14 51 -64 51q-30 0 -49 -21t-19 -57z" />
    <glyph glyph-name="hyphen.case" horiz-adv-x="406" 
d="M60 289v132h286v-132h-286z" />
    <glyph glyph-name="uni00AD.case" horiz-adv-x="406" 
d="M60 289v132h286v-132h-286z" />
    <glyph glyph-name="endash.case" horiz-adv-x="593" 
d="M60 289v132h473v-132h-473z" />
    <glyph glyph-name="emdash.case" horiz-adv-x="887" 
d="M60 289v132h767v-132h-767z" />
    <glyph glyph-name="questiondown.case" horiz-adv-x="543" 
d="M361 453v-19q0 -42 -21.5 -73t-64.5 -61q-6 -4 -26 -17.5t-26 -18.5t-17.5 -16.5t-15.5 -23t-4 -25.5q0 -34 25.5 -55t62.5 -21q85 0 136 77l109 -73q-32 -58 -98.5 -98.5t-149.5 -40.5q-95 0 -158.5 60.5t-63.5 142.5q0 57 21 98t69 77q7 5 20.5 14.5t19 13.5t15 11.5
t13.5 12t9 10.5t6.5 11t1.5 11v3h137zM211 710h167v-167h-167v167z" />
    <glyph glyph-name="exclamdown.case" horiz-adv-x="298" 
d="M191 453l27 -185v-268h-138v268l26 185h85zM232 530h-167v167h167v-167z" />
    <glyph glyph-name="guilsinglleft.case" horiz-adv-x="330" 
d="M184 355l95 -178l-87 -56l-152 234l152 234l87 -56z" />
    <glyph glyph-name="guilsinglright.case" horiz-adv-x="330" 
d="M51 177l95 178l-95 178l87 56l152 -234l-152 -234z" />
    <glyph glyph-name="guillemotleft.case" horiz-adv-x="533" 
d="M387 355l95 -178l-87 -56l-152 234l152 234l87 -56zM184 355l95 -178l-87 -56l-152 234l152 234l87 -56z" />
    <glyph glyph-name="guillemotright.case" horiz-adv-x="533" 
d="M-152 177l95 178l-95 178l87 56l152 -234l-152 -234zM51 177l95 178l-95 178l87 56l152 -234l-152 -234z" />
    <glyph glyph-name="parenleft.case" horiz-adv-x="287" 
d="M158 355q0 -228 100 -436l-88 -44q-128 233 -128 480t128 480l88 -44q-100 -208 -100 -436z" />
    <glyph glyph-name="parenright.case" horiz-adv-x="287" 
d="M129 355q0 228 -100 436l88 44q128 -233 128 -480t-128 -480l-88 44q100 208 100 436z" />
    <glyph glyph-name="bracketleft.case" horiz-adv-x="334" 
d="M79 -125v960h221v-100h-105v-760h105v-100h-221z" />
    <glyph glyph-name="bracketright.case" horiz-adv-x="334" 
d="M255 835v-960h-221v100h105v760h-105v100h221z" />
    <glyph glyph-name="braceleft.case" horiz-adv-x="348" 
d="M315 -125h-82q-66 0 -103 38t-37 104v229q0 59 -54 59h-9v100h9q54 0 54 57v231q0 66 37 104t103 38h82v-100h-48q-32 0 -44.5 -14t-12.5 -47v-218q0 -83 -61 -101q61 -18 61 -103v-216q0 -33 12.5 -47t44.5 -14h48v-100z" />
    <glyph glyph-name="braceright.case" horiz-adv-x="348" 
d="M115 -125h-82v100h48q32 0 44.5 14t12.5 47v216q0 85 61 103q-61 18 -61 101v218q0 33 -12.5 47t-44.5 14h-48v100h82q66 0 103 -38t37 -104v-231q0 -57 54 -57h9v-100h-9q-54 0 -54 -59v-229q0 -66 -37 -104t-103 -38z" />
    <glyph glyph-name="bar.case" horiz-adv-x="274" 
d="M79 -55v820h116v-820h-116z" />
    <glyph glyph-name="brokenbar.case" horiz-adv-x="274" 
d="M79 -55v347h116v-347h-116zM79 418v347h116v-347h-116z" />
    <glyph glyph-name="periodcentered.case" horiz-adv-x="288" 
d="M226 263h-167v167h167v-167z" />
    <glyph glyph-name="plus.case" horiz-adv-x="498" 
d="M39 295v119h151v151h119v-151h150v-119h-150v-151h-119v151h-151z" />
    <glyph glyph-name="minus.case" horiz-adv-x="543" 
d="M61 295v119h421v-119h-421z" />
    <glyph glyph-name="multiply.case" horiz-adv-x="517" 
d="M131 144l-84 84l127 127l-127 127l84 84l127 -126l128 126l83 -84l-126 -127l126 -127l-83 -84l-128 126z" />
    <glyph glyph-name="equal.case" horiz-adv-x="541" 
d="M60 190v118h421v-118h-421zM60 400v119h421v-119h-421z" />
    <glyph glyph-name="less.case" horiz-adv-x="468" 
d="M417 54l-375 234v133l375 234v-140l-259 -161l259 -160v-140z" />
    <glyph glyph-name="greater.case" horiz-adv-x="468" 
d="M427 288l-375 -234v140l259 160l-259 161v140l375 -234v-133z" />
    <glyph glyph-name="acute.case" 
d="M-113 768l72 137h153l-123 -137h-102z" />
    <glyph glyph-name="breve.case" 
d="M0 750q-74 0 -124 48.5t-50 126.5h80q0 -46 26.5 -70.5t67.5 -24.5t67.5 24.5t26.5 70.5h80q0 -78 -50 -126.5t-124 -48.5z" />
    <glyph glyph-name="caron.case" 
d="M-64 768l-117 137h125l56 -56l56 56h125l-117 -137h-128z" />
    <glyph glyph-name="cedilla.case" 
d="M-116 -188l14 61q31 -16 68 -16q51 0 51 28q0 25 -34 25q-24 0 -43 -12l-35 20l51 85h62l-29 -48q14 11 45 11q34 0 57.5 -21t23.5 -54q0 -43 -39.5 -69t-94.5 -26q-59 0 -97 16z" />
    <glyph glyph-name="circumflex.case" 
d="M-181 768l117 137h128l117 -137h-125l-56 56l-56 -56h-125z" />
    <glyph glyph-name="dieresis.case" 
d="M-117 772q-32 0 -54 22t-22 53q0 32 22 54t54 22q31 0 53 -22t22 -54q0 -31 -22 -53t-53 -22zM118 772q-32 0 -54 22t-22 53q0 32 22 54t54 22q31 0 53 -22t22 -54q0 -31 -22 -53t-53 -22z" />
    <glyph glyph-name="dotaccent.case" 
d="M0 772q-32 0 -54 22t-22 53q0 32 22 54t54 22q31 0 53 -22t22 -54q0 -31 -22 -53t-53 -22z" />
    <glyph glyph-name="_671" 
d="M0 -75q-32 0 -54 22t-22 53q0 32 22 54t54 22q31 0 53 -22t22 -54q0 -31 -22 -53t-53 -22z" />
    <glyph glyph-name="_672" 
d="M0 -219q-32 0 -54 22t-22 53q0 32 22 54t54 22q31 0 53 -22t22 -54q0 -31 -22 -53t-53 -22z" />
    <glyph glyph-name="_673" 
d="M20 -322h-63l32 112h-55v132h133v-132z" />
    <glyph glyph-name="grave.case" 
d="M112 768h-102l-123 137h153z" />
    <glyph glyph-name="hungarumlaut.case" 
d="M-192 768l52 137h147l-109 -137h-90zM-7 768l52 137h147l-109 -137h-90z" />
    <glyph glyph-name="macron.case" 
d="M-171 791v96h342v-96h-342z" />
    <glyph glyph-name="ogonek.case" 
d="M0 -204q-46 0 -78 25t-32 67q0 52 60 112h145q-80 -41 -80 -78q0 -25 26 -25q13 0 28 9l40 -79q-44 -31 -109 -31z" />
    <glyph glyph-name="ring.case" 
d="M1 753q-50 0 -86 35.5t-36 84.5t36 84.5t86 35.5t86 -35.5t36 -84.5t-36 -84.5t-86 -35.5zM1 815q25 0 42 17t17 41t-17 41t-42 17t-42 -17t-17 -41t17 -41t42 -17z" />
    <glyph glyph-name="tilde.case" 
d="M-189 778l4 26q8 52 41.5 82t76.5 30q34 0 77 -23t55 -23q19 0 28.5 11t15.5 36h79l-4 -26q-8 -52 -41.5 -82t-76.5 -30q-34 0 -77 23t-55 23q-19 0 -28.5 -11t-15.5 -36h-79z" />
    <glyph glyph-name="_680" 
d="M-172 295v126h345v-126h-345z" />
    <glyph glyph-name="_681" 
d="M365 647l-650 -665l-81 81l649 665z" />
    <glyph glyph-name="_682" 
d="M176 419l-352 -206v115l352 207v-116z" />
    <glyph glyph-name="_683" 
d="M-212 295v126h425v-126h-425z" />
    <glyph glyph-name="_684" 
d="M-371 519v100h742v-100h-742z" />
    <glyph glyph-name="uni0449.locl" horiz-adv-x="937" 
d="M567 -11q-88 0 -141 65q-60 -65 -163 -65q-101 0 -152.5 62t-51.5 161v288h137v-264q0 -121 86 -121q60 0 95 56q-3 20 -3 41v288h137v-264q0 -121 86 -121q57 0 92 51v334h137v-341q0 -21 8.5 -30t29.5 -9h44v-243h-122v123h-6q-29 0 -50.5 13t-27.5 38
q-58 -62 -135 -62z" />
    <glyph glyph-name="uni0437.locl" horiz-adv-x="489" 
d="M-12 -93l100 84q49 -74 132 -74q45 0 72 26.5t27 68.5q0 98 -113 98h-64v113h62q46 0 69.5 23.5t23.5 63.5q0 36 -23 58t-62 22q-66 0 -114 -55l-82 82q77 94 210 94q92 0 147 -55t55 -130q0 -105 -75 -153q50 -22 77 -67t27 -105q0 -92 -64 -148.5t-171 -56.5
q-79 0 -140.5 31t-93.5 80z" />
    <glyph glyph-name="uni0446.locl" horiz-adv-x="633" 
d="M386 500h137v-341q0 -21 8.5 -30t30.5 -9h44v-243h-123v123h-6q-29 0 -51 14t-28 40q-52 -65 -136 -65q-95 0 -149 60t-54 161v290h137v-267q0 -56 24 -87.5t71 -31.5q55 0 95 55v331z" />
    <glyph glyph-name="uni043F.locl" horiz-adv-x="599" 
d="M66 0v500h137v-42q48 53 136 53q93 0 146.5 -60.5t53.5 -160.5v-290h-137v267q0 56 -23.5 87.5t-69.5 31.5q-70 0 -106 -57v-329h-137z" />
    <glyph glyph-name="uni044C.locl" horiz-adv-x="501" 
d="M286 -11h-36q-92 0 -140.5 55t-48.5 126v330h137v-149h88q92 0 141 -55t49 -126t-49 -126t-141 -55zM272 106q74 0 74 64t-74 64h-74v-64q0 -64 74 -64z" />
    <glyph glyph-name="uni0432.locl" horiz-adv-x="562" 
d="M294 -11h-16q-103 0 -161 62t-58 163v302q0 104 55 164.5t162 60.5q101 0 156 -56t55 -145q0 -46 -16.5 -86.5t-45.5 -63.5q49 -23 75.5 -70t26.5 -108q0 -101 -63 -162t-170 -61zM289 110h9q92 0 92 111q0 50 -25 79.5t-72 29.5h-97v-113q0 -107 93 -107zM196 533v-90
h78q83 0 83 88q0 89 -81 89q-38 0 -59 -22.5t-21 -64.5z" />
    <glyph glyph-name="uni041B.locl" horiz-adv-x="743" 
d="M1 0l306 710h129l307 -710h-152l-220 510l-220 -510h-150z" />
    <glyph glyph-name="uni0448.locl" horiz-adv-x="892" 
d="M567 -11q-88 0 -141 65q-60 -65 -163 -65q-101 0 -152.5 62t-51.5 161v288h137v-264q0 -121 86 -121q60 0 95 56q-3 20 -3 41v288h137v-264q0 -121 86 -121q29 0 54 14.5t38 38.5v332h137v-500h-137v39q-44 -50 -122 -50z" />
    <glyph glyph-name="uni0442.locl" horiz-adv-x="893" 
d="M325 511q87 0 141 -66q61 66 163 66q101 0 152.5 -62t51.5 -161v-288h-137v264q0 121 -86 121q-59 0 -95 -56q3 -21 3 -41v-288h-137v264q0 121 -86 121q-29 0 -54 -14.5t-38 -38.5v-332h-137v500h137v-39q44 50 122 50z" />
    <glyph glyph-name="uni0434.locl" horiz-adv-x="616" 
d="M288 -204q-139 0 -221 70l75 102q62 -52 144 -52q50 0 88.5 28.5t38.5 82.5v31q-48 -48 -129 -48q-108 0 -179 72t-71 178t71.5 178.5t178.5 72.5q80 0 129 -47v36h137v-472q0 -63 -22.5 -110t-61.5 -72.5t-83.5 -37.5t-94.5 -12zM305 134q68 0 108 56v142
q-40 54 -108 54q-57 0 -93 -35t-36 -91q0 -55 36.5 -90.5t92.5 -35.5z" />
    <glyph glyph-name="uni0433.locl" horiz-adv-x="457" 
d="M224 -11q-82 0 -136 46t-54 117q0 62 36.5 99t107.5 56l48 14q49 13 49 43q0 16 -15.5 25t-34.5 9q-50 0 -85 -44l-90 73q59 84 173 84q81 0 133.5 -41.5t54.5 -109.5q1 -59 -34.5 -100.5t-103.5 -59.5l-37 -9q-40 -11 -53.5 -21.5t-13.5 -26.5q0 -18 16 -27t39 -9
q76 0 112 58l94 -80q-64 -96 -206 -96z" />
    <glyph glyph-name="uni0438.locl" horiz-adv-x="588" 
d="M521 500v-500h-137v40q-48 -51 -123 -51q-95 0 -148.5 60.5t-53.5 160.5v290h137v-267q0 -56 23.5 -87.5t70.5 -31.5q57 0 94 57v329h137z" />
    <glyph glyph-name="uni0414.locl" horiz-adv-x="754" 
d="M20 -148v286h72l220 572h130l220 -572h73v-286h-132v148h-452v-148h-131zM377 498l-135 -360h270z" />
    <glyph glyph-name="uni043A.locl" horiz-adv-x="551" 
d="M393 0l-190 202v-202h-137v730h137v-434l169 204h163l-208 -246l242 -254h-176z" />
    <glyph glyph-name="uni0439.locl" horiz-adv-x="588" 
d="M521 500v-500h-137v40q-48 -51 -123 -51q-95 0 -148.5 60.5t-53.5 160.5v290h137v-267q0 -56 23.5 -87.5t70.5 -31.5q57 0 94 57v329h137zM290 548q-74 0 -124 48.5t-50 125.5v8h90v-8q0 -42 23 -67.5t61 -25.5t61 25.5t23 67.5v8h90v-8q0 -77 -50 -125.5t-124 -48.5z
" />
    <glyph glyph-name="uni0436.locl" horiz-adv-x="824" 
d="M665 0l-184 200v-200h-137v202l-185 -202h-170l232 254l-199 246h159l163 -204v434h137v-431l161 201h159l-200 -246l234 -254h-170z" />
    <glyph glyph-name="uni0431.locl" horiz-adv-x="592" 
d="M68 564q0 78 58.5 122t172.5 44h166l22 -120h-195q-90 0 -90 -61q0 -62 90 -62h20q102 0 173.5 -69.5t71.5 -167.5q0 -110 -75 -185.5t-186 -75.5t-186 75.5t-75 185.5q0 126 94 193q-59 41 -61 121zM295 117q55 0 89.5 34.5t34.5 95.5q0 50 -35.5 85.5t-90.5 35.5
q-58 0 -89.5 -35t-31.5 -86q0 -61 34 -95.5t89 -34.5z" />
    <glyph glyph-name="uni044E.locl" horiz-adv-x="821" 
d="M531 -11q-92 0 -159.5 56.5t-88.5 145.5h-80v-191h-137v730h137v-420h80q18 88 86.5 144.5t161.5 56.5q110 0 182.5 -76t72.5 -185t-72.5 -185t-182.5 -76zM531 117q53 0 85 37.5t32 95.5t-32 95.5t-85 37.5t-84.5 -37t-31.5 -95q0 -59 32 -96.5t84 -37.5z" />
    <glyph glyph-name="uni043B.locl" horiz-adv-x="570" 
d="M1 0l221 500h125l222 -500h-153l-132 320l-132 -320h-151z" />
    <glyph glyph-name="uni044A.locl" horiz-adv-x="583" 
d="M368 -11h-36q-92 0 -140.5 55t-48.5 126v210h-125v120h262v-149h88q92 0 141 -55t49 -126t-49 -126t-141 -55zM428 170q0 64 -74 64h-74v-64q0 -64 74 -64t74 64z" />
    </font>
</defs>
</svg>
