<svg width="23" height="20" viewBox="0 0 23 20" fill="none" xmlns="http://www.w3.org/2000/svg">
<path opacity="1" d="M17.7778 8.88889C17.7778 7.82333 17.0222 6.93222 16.0211 6.71778C16.4211 6.05 16.6667 5.27778 16.6667 4.44444C16.6667 1.99333 14.6733 0 12.2222 0C10.5367 0 9.08778 0.952222 8.33333 2.33778C7.57889 0.952222 6.13 0 4.44444 0C1.99333 0 0 1.99333 0 4.44444C0 5.44667 0.346667 6.36333 0.907778 7.10667C0.62732 7.31175 0.399026 7.57992 0.241334 7.88951C0.0836412 8.19911 0.000971064 8.54145 0 8.88889V17.7778C0 19.0033 0.996667 20 2.22222 20H15.5556C16.7811 20 17.7778 19.0033 17.7778 17.7778V14.8467L22.2222 17.0689V9.29111L17.7778 11.5133V8.88889ZM12.2222 2.22222C13.4478 2.22222 14.4444 3.21889 14.4444 4.44444C14.4444 5.67 13.4478 6.66667 12.2222 6.66667C10.9967 6.66667 10 5.67 10 4.44444C10 3.21889 10.9967 2.22222 12.2222 2.22222ZM4.44444 2.22222C5.67 2.22222 6.66667 3.21889 6.66667 4.44444C6.66667 5.67 5.67 6.66667 4.44444 6.66667C3.21889 6.66667 2.22222 5.67 2.22222 4.44444C2.22222 3.21889 3.21889 2.22222 4.44444 2.22222ZM2.22222 17.7778V8.88889H15.5556L15.5578 17.7778H2.22222Z" fill="currentColor"/>
</svg>
