<svg width="181" height="107" viewBox="0 0 181 107" fill="none" xmlns="http://www.w3.org/2000/svg">
<g clip-path="url(#clip0_169_1120)">
<path d="M115.525 15.1026C110.086 15.8115 92.9518 32.4758 95.2815 37.2622C97.6322 42.0292 112.827 24.2447 117.025 24.9229C126.242 26.4102 144.026 58.2337 144.026 58.2337L177.649 58.5359C177.649 58.5359 126.69 13.6347 115.525 15.1026Z" fill="#514C4E"/>
<path d="M67.655 3.36354C59.9188 6.10694 1.96737 56.2235 1.96737 56.2235L37.6244 56.701C37.6244 56.701 65.8148 15.5635 71.5495 14.5224C77.3036 13.5022 93.3545 32.5107 96.3072 26.3439C99.2398 20.1763 75.7805 0.472966 67.655 3.36354Z" fill="#514C4E"/>
<path d="M89.8505 57.6032L1.96727 56.2235L1.59072 85.2841C1.59072 85.2841 1.7785 93.402 9.89415 97.9562C18.0098 102.51 66.7452 101.651 73.1303 99.9473C79.5155 98.244 77.54 85.985 80.5874 83.857C82.5569 82.4763 86.7865 82.2679 89.5331 82.2877C92.2782 82.3478 96.4886 82.6633 98.4364 84.0864C101.426 86.2941 99.1413 98.498 105.477 100.364C111.812 102.23 160.497 104.395 168.736 100.056C176.955 95.7161 177.373 87.6003 177.373 87.6003L177.75 58.5396L89.8505 57.6032Z" fill="#373737"/>
<path d="M65.3452 91.3295L15.2515 90.6667C11.9804 90.6277 9.37151 87.9497 9.41025 84.6825L9.60037 70.1018C9.63912 66.8346 12.3201 64.2291 15.5912 64.2681L65.685 64.9308C68.9561 64.9698 71.565 67.6479 71.5262 70.915L71.3361 85.4957C71.2973 88.7629 68.6163 91.3685 65.3452 91.3295Z" fill="#40C1D6"/>
<path d="M10.7425 86.3656L10.9327 71.7849C10.9714 68.5177 13.6524 65.9121 16.9235 65.9511L67.0173 66.6139C68.4914 66.6275 69.8246 67.1807 70.842 68.0855C69.8593 66.2336 67.9258 64.9725 65.685 64.9308L15.5913 64.2681C12.3202 64.2291 9.63915 66.8346 9.6004 70.1018L9.41028 84.6825C9.38501 86.4773 10.1741 88.1001 11.4268 89.1951C10.9729 88.3513 10.7251 87.3939 10.7425 86.3656Z" fill="#38A7B2"/>
<path d="M163.131 92.6075L113.037 91.9447C109.766 91.9057 107.157 89.2277 107.196 85.9605L107.386 71.3798C107.425 68.1126 110.106 65.507 113.377 65.546L163.47 66.2088C166.741 66.2478 169.35 68.9258 169.312 72.193L169.122 86.7737C169.083 90.0409 166.402 92.6464 163.131 92.6075Z" fill="#E92823"/>
<path d="M108.528 87.6435L108.718 73.0628C108.757 69.7956 111.438 67.1901 114.709 67.2291L164.803 67.8918C166.277 67.9054 167.61 68.4586 168.627 69.3634C167.645 67.5116 165.711 66.2504 163.47 66.2088L113.377 65.546C110.106 65.507 107.425 68.1126 107.386 71.3798L107.196 85.9605C107.17 87.7552 107.959 89.3781 109.212 90.4731C108.778 89.6501 108.531 88.6726 108.528 87.6435Z" fill="#B21F1F"/>
<path opacity="0.49" d="M13.4368 74.0152C13.5342 73.0099 13.6525 71.9853 14.1295 71.0948C14.6931 70.046 15.7111 69.2762 16.8182 68.8325C17.9252 68.3888 19.1423 68.2517 20.3362 68.1945C22.4409 68.0899 24.5368 68.2272 26.6036 68.6054C27.4667 68.7581 28.4643 69.0972 28.6963 69.933C28.8572 70.5038 28.5923 71.1196 28.1539 71.5071C27.7155 71.8946 27.162 72.1164 26.5912 72.2569C25.3063 72.5933 23.9495 72.6849 22.6451 73.0003C21.3407 73.3158 20.0461 73.9141 19.2786 75.0159C18.7664 75.7638 18.5315 76.6632 18.2577 77.5207C17.778 79.0366 16.1795 81.3186 14.3483 80.0208C12.6741 78.8498 13.2546 75.6832 13.4368 74.0152Z" fill="white"/>
<path opacity="0.49" d="M112.655 75.3254C112.752 74.3202 112.871 73.2955 113.348 72.405C113.911 71.3563 114.929 70.5865 116.036 70.1427C117.143 69.699 118.361 69.562 119.554 69.5048C121.659 69.4002 123.755 69.5374 125.822 69.9157C126.685 70.0683 127.683 70.4075 127.915 71.2432C128.075 71.814 127.811 72.4298 127.372 72.8173C126.934 73.2048 126.38 73.4267 125.809 73.5672C124.525 73.9035 123.168 73.9951 121.863 74.3106C120.559 74.626 119.264 75.2243 118.497 76.3261C117.985 77.0741 117.75 77.9734 117.476 78.831C116.996 80.3468 115.398 82.6288 113.567 81.3311C111.892 80.1601 112.473 76.9934 112.655 75.3254Z" fill="white"/>
</g>
<defs>
<clipPath id="clip0_169_1120">
<rect width="176.396" height="99.2829" fill="white" transform="translate(4 0.671143) rotate(2.0956)"/>
</clipPath>
</defs>
</svg>
