<svg width="55" height="55" viewBox="0 0 255 255" fill="none" xmlns="http://www.w3.org/2000/svg">
<path d="M233.75 127.5C233.75 186.181 186.181 233.75 127.5 233.75C68.8202 233.75 21.2505 186.181 21.2505 127.5C21.2505 68.8202 68.8202 21.2505 127.5 21.2505C186.181 21.2505 233.75 68.8202 233.75 127.5ZM58.438 127.5C58.438 165.643 89.3583 196.563 127.5 196.563C165.643 196.563 196.563 165.643 196.563 127.5C196.563 89.3583 165.643 58.438 127.5 58.438C89.3583 58.438 58.438 89.3583 58.438 127.5Z" fill="#D7CECD"/>
<path d="M127.5 21.25C141.453 21.25 155.27 23.9983 168.161 29.3378C181.051 34.6774 192.764 42.5037 202.631 52.3699C212.497 62.2361 220.323 73.9491 225.663 86.8399C231.002 99.7307 233.75 113.547 233.75 127.5L196.563 127.5C196.563 118.431 194.777 109.45 191.306 101.071C187.835 92.6919 182.748 85.0785 176.335 78.6655C169.922 72.2524 162.309 67.1653 153.93 63.6946C145.55 60.2239 136.57 58.4375 127.5 58.4375L127.5 21.25Z" fill="#FED800"/>
</svg>
