<svg width="375" height="667" viewBox="0 0 375 667" fill="none" xmlns="http://www.w3.org/2000/svg">
<rect width="375" height="667" fill="#370906"/>
<rect opacity="0.4" x="121" y="650" width="134" height="5" rx="2.5" fill="#78746D"/>
<path d="M293.75 333.5C293.75 392.18 246.181 439.75 187.5 439.75C128.82 439.75 81.2505 392.18 81.2505 333.5C81.2505 274.82 128.82 227.25 187.5 227.25C246.181 227.25 293.75 274.82 293.75 333.5ZM118.438 333.5C118.438 371.642 149.358 402.562 187.5 402.562C225.643 402.562 256.563 371.642 256.563 333.5C256.563 295.358 225.643 264.438 187.5 264.438C149.358 264.438 118.438 295.358 118.438 333.5Z" fill="#D7CECD"/>
<path d="M187.5 227.25C201.453 227.25 215.27 229.998 228.161 235.338C241.051 240.677 252.764 248.504 262.631 258.37C272.497 268.236 280.323 279.949 285.663 292.84C291.002 305.731 293.75 319.547 293.75 333.5L256.563 333.5C256.563 324.431 254.777 315.45 251.306 307.071C247.835 298.692 242.748 291.079 236.335 284.665C229.922 278.252 222.309 273.165 213.93 269.695C205.55 266.224 196.57 264.438 187.5 264.438L187.5 227.25Z" fill="#FED800"/>
</svg>
