<svg width="27" height="27" viewBox="0 0 25 25" fill="none" xmlns="http://www.w3.org/2000/svg">
<path d="M6.25008 2.08337H15.6251C16.1776 2.08337 16.7075 2.30287 17.0982 2.69357C17.4889 3.08427 17.7084 3.61417 17.7084 4.16671V6.25004H15.6251V4.16671H6.25008V20.8334H15.6251V18.75H17.7084V20.8334C17.7084 21.3859 17.4889 21.9158 17.0982 22.3065C16.7075 22.6972 16.1776 22.9167 15.6251 22.9167H6.25008C5.69755 22.9167 5.16764 22.6972 4.77694 22.3065C4.38624 21.9158 4.16675 21.3859 4.16675 20.8334V4.16671C4.16675 3.61417 4.38624 3.08427 4.77694 2.69357C5.16764 2.30287 5.69755 2.08337 6.25008 2.08337Z" fill="#FED800"/>
<path d="M16.7604 16.2395L18.2292 17.7083L23.4375 12.5L18.2292 7.29163L16.7604 8.76038L19.4479 11.4583H9.375V13.5416H19.4479L16.7604 16.2395Z" fill="#FED800"/>
</svg>
