<svg width="19" height="20" viewBox="0 0 19 20" fill="none" xmlns="http://www.w3.org/2000/svg">
<path opacity="1" fill-rule="evenodd" clip-rule="evenodd" d="M9.5 0C4.25341 0 0 4.47727 0 10C0 15.5227 4.25341 20 9.5 20C14.7466 20 19 15.5227 19 10C19 4.47727 14.7466 0 9.5 0ZM10.3636 13.6364C10.3636 13.8775 10.2726 14.1087 10.1107 14.2792C9.94872 14.4497 9.72905 14.5455 9.5 14.5455C9.27095 14.5455 9.05128 14.4497 8.88932 14.2792C8.72735 14.1087 8.63636 13.8775 8.63636 13.6364V10.9091H6.04545C5.8164 10.9091 5.59674 10.8133 5.43477 10.6428C5.27281 10.4723 5.18182 10.2411 5.18182 10C5.18182 9.75889 5.27281 9.52766 5.43477 9.35718C5.59674 9.18669 5.8164 9.09091 6.04545 9.09091H8.63636V6.36364C8.63636 6.12253 8.72735 5.8913 8.88932 5.72081C9.05128 5.55032 9.27095 5.45455 9.5 5.45455C9.72905 5.45455 9.94872 5.55032 10.1107 5.72081C10.2726 5.8913 10.3636 6.12253 10.3636 6.36364V9.09091H12.9545C13.1836 9.09091 13.4033 9.18669 13.5652 9.35718C13.7272 9.52766 13.8182 9.75889 13.8182 10C13.8182 10.2411 13.7272 10.4723 13.5652 10.6428C13.4033 10.8133 13.1836 10.9091 12.9545 10.9091H10.3636V13.6364Z" fill="currentColor"/>
</svg>
