<svg xmlns="http://www.w3.org/2000/svg" viewBox="0 0 136.9 221.22"><defs><style>.cls-1{fill:#faedd3;}.cls-2{fill:#eec36b;}.cls-3{fill:#812124;}.cls-4{fill:#65191a;}.cls-5{fill:#fffce3;}.cls-6{fill:#b5252b;}</style></defs><g id="Capa_2" data-name="Capa 2"><g id="Object"><path class="cls-1" d="M94.6,50a7.54,7.54,0,0,0,4.19-.73A7.05,7.05,0,0,0,102,39.65,7.48,7.48,0,0,0,93.33,36a8.68,8.68,0,0,0-1-3.37,9.09,9.09,0,0,0-12-3.81A8.55,8.55,0,0,0,76.4,40.51a8.77,8.77,0,0,0,2.83,3.17,8.2,8.2,0,0,0-1,9.07,8.82,8.82,0,0,0,11.67,3.7A8.43,8.43,0,0,0,94.6,50Z"/><path class="cls-2" d="M89.92,56.45A8.43,8.43,0,0,0,94.6,50a7.54,7.54,0,0,0,4.19-.73,7.16,7.16,0,0,0,3.94-5.22,9.81,9.81,0,0,1-3.13,2.42,10.19,10.19,0,0,1-8.33.3,9.68,9.68,0,0,1-5.17,6.34,10.22,10.22,0,0,1-7.2.68A8.85,8.85,0,0,0,89.92,56.45Z"/><path class="cls-1" d="M69.59,43a8.71,8.71,0,0,0,2.08-.19,8,8,0,0,0,6.25-9.57,8.22,8.22,0,0,0-9-6.17A6.2,6.2,0,0,0,68.79,25,6.79,6.79,0,0,0,60.66,20a6.57,6.57,0,0,0-5.14,7.83,5,5,0,0,0-3.2,5.76,5.14,5.14,0,0,0,5.5,3.86,6.41,6.41,0,0,0-1.56,5.82,6.79,6.79,0,0,0,8.12,5A6.71,6.71,0,0,0,69.59,43Zm-8-7.56h0l0,0Z"/><path class="cls-2" d="M64.38,48.25A6.71,6.71,0,0,0,69.59,43a8.71,8.71,0,0,0,2.08-.19,8,8,0,0,0,6.25-9.57,7.75,7.75,0,0,0-1.12-2.58,3.74,3.74,0,0,1,.12.45,7.28,7.28,0,0,1-5.69,8.71,7.75,7.75,0,0,1-4.64-.41,6.74,6.74,0,0,1-5.28,7.94,8,8,0,0,1-1.27.16l-.4.15A7,7,0,0,0,64.38,48.25Z"/><path class="cls-3" d="M134.91,70.57a6.9,6.9,0,0,0-13.6-1.38,6.89,6.89,0,0,0-13.68.92v.21h0c0-.13,0-.2,0-.21a6.59,6.59,0,0,0-6.76-6.47,6.68,6.68,0,0,0-6.78,6.55v.11h0v-.21a6.88,6.88,0,0,0-13.75,0c0,.07,0,.14,0,.21h0v-.11a6.77,6.77,0,0,0-13.53,0v.1h0c0-.06,0-.13,0-.2a6.88,6.88,0,0,0-13.75,0v.2h0a.34.34,0,0,0,0-.1,6.77,6.77,0,0,0-13.54,0,.58.58,0,0,0,0,.1h0V70a6.88,6.88,0,0,0-13.75,0c0,.07,0,.14,0,.21h0v-.1A6.65,6.65,0,0,0,19,63.52a6.66,6.66,0,0,0-6.78,6.55c0,.48,7.41,113.79,9,138.42h0l.24,3.51c.05.77.07,1.17.07,1.17l11.61,0v0l11.61,0v0l11.38,0v0l11.6,0v0H79.36v0l11.6,0v0l11.6,0v0l11.6,0v0h11.39v0h0v-.07h.06L131.16,128h0C133.15,97.64,134.91,70.82,134.91,70.57Z"/><polygon class="cls-4" points="126.08 213.23 117.26 221.13 126.52 78.47 134.91 71.4 126.08 213.23"/><path class="cls-1" d="M98.2,56.79a8.14,8.14,0,0,0-2.1-4.35A8.78,8.78,0,0,0,84,51.8a8.15,8.15,0,0,0-1.58,10.58,10.23,10.23,0,0,0-3.62,2.05A9.88,9.88,0,0,0,78,78.69a10.63,10.63,0,0,0,14.71.78,10,10,0,0,0,2.83-4,10.34,10.34,0,0,0,10.81-1.67A9.58,9.58,0,0,0,107.09,60,10.25,10.25,0,0,0,98.2,56.79Z"/><path class="cls-2" d="M107.09,60a10.25,10.25,0,0,0-8.89-3.17,8.14,8.14,0,0,0-2.1-4.35,8.73,8.73,0,0,0-7.24-2.73A11.49,11.49,0,0,1,92.6,52.4a11,11,0,0,1,2.86,9,11.75,11.75,0,0,1,8.9,3.73,11,11,0,0,1,3,7.64A9.56,9.56,0,0,0,107.09,60Z"/><path class="cls-1" d="M62.49,87.62a8.7,8.7,0,0,0,4.95-.07A8.28,8.28,0,0,0,73,77.1a8.62,8.62,0,0,0-9.3-5.75,9.75,9.75,0,0,0-.44-4,10.49,10.49,0,0,0-13.08-6.58,10,10,0,0,0-4.16,16.83,9.58,9.58,0,0,0-2.88,10.24,10.16,10.16,0,0,0,12.67,6.38A9.94,9.94,0,0,0,62.49,87.62Z"/><path class="cls-2" d="M55.85,94.17a9.94,9.94,0,0,0,6.64-6.55,8.7,8.7,0,0,0,4.95-.07A8.45,8.45,0,0,0,73,82.28a11.73,11.73,0,0,1-4.08,2.2,11.89,11.89,0,0,1-9.62-1.17,11.46,11.46,0,0,1-7.17,6.33,11.91,11.91,0,0,1-8.4-.53A10.21,10.21,0,0,0,55.85,94.17Z"/><path class="cls-1" d="M33,60.86a9.93,9.93,0,0,0,.35-2.63A10.69,10.69,0,0,0,22.48,47.69a10.74,10.74,0,0,0-10.8,9.36,9.25,9.25,0,0,0-2.75-.42,8.64,8.64,0,1,0-.07,17.28,6.8,6.8,0,0,0,13.41-.06,9,9,0,0,0,7.25,3.64,8.79,8.79,0,0,0,8.93-8.63A8.65,8.65,0,0,0,33,60.86ZM20.63,68.58v0l-.06-.07Z"/><path class="cls-2" d="M38.45,68.86a8.65,8.65,0,0,0-5.49-8,9.93,9.93,0,0,0,.35-2.63A10.69,10.69,0,0,0,22.48,47.69a11.31,11.31,0,0,0-3.75.64l.63,0a9.74,9.74,0,0,1,9.87,9.6,9.31,9.31,0,0,1-1.9,5.62,9,9,0,0,1,9,8.87A8.53,8.53,0,0,1,36.14,74l.09.54A8.44,8.44,0,0,0,38.45,68.86Z"/><path class="cls-1" d="M78.94,58.85a9.93,9.93,0,0,0,.35-2.63A10.87,10.87,0,0,0,57.66,55a9.25,9.25,0,0,0-2.75-.42,8.64,8.64,0,1,0-.07,17.28,6.8,6.8,0,0,0,13.41-.06,9,9,0,0,0,7.25,3.64,8.8,8.8,0,0,0,8.93-8.63A8.64,8.64,0,0,0,78.94,58.85ZM66.61,66.56v.06l-.06-.07Z"/><path class="cls-2" d="M84.43,66.85a8.64,8.64,0,0,0-5.49-8,9.93,9.93,0,0,0,.35-2.63A10.69,10.69,0,0,0,68.46,45.68a11.31,11.31,0,0,0-3.75.64l.63,0a9.73,9.73,0,0,1,9.87,9.6,9.31,9.31,0,0,1-1.9,5.62,9,9,0,0,1,9,8.86A9.46,9.46,0,0,1,82.12,72c0,.18.06.36.08.54A8.4,8.4,0,0,0,84.43,66.85Z"/><path class="cls-1" d="M53,41.26a9.27,9.27,0,0,0,.91-2.2A9.38,9.38,0,0,0,47,27.58a9.77,9.77,0,0,0-11.51,5.73,8.27,8.27,0,0,0-2.28-1,8,8,0,0,0-9.73,5.51,7.71,7.71,0,0,0,5.65,9.42,5.87,5.87,0,0,0,4.48,6.33,6.1,6.1,0,0,0,7.13-3.45,7.86,7.86,0,0,0,5.42,4.72,8,8,0,0,0,9.73-5.51A7.59,7.59,0,0,0,53,41.26Zm-12.47,4v.05l0-.07Z"/><path class="cls-2" d="M55.89,49.37A7.59,7.59,0,0,0,53,41.26a9.27,9.27,0,0,0,.91-2.2A9.38,9.38,0,0,0,47,27.58a10,10,0,0,0-3.39-.27l.55.12a8.47,8.47,0,0,1,3.36,14.91A7.88,7.88,0,0,1,53.21,52a7.62,7.62,0,0,1-.51,1.36c0,.17,0,.33-.06.49A7.68,7.68,0,0,0,55.89,49.37Z"/><path class="cls-1" d="M124.31,61.06a7.2,7.2,0,0,0-3.48-4.35,7.53,7.53,0,0,0-10.11,2.68,7,7,0,0,0,0,7.09,10.31,10.31,0,0,0-4.27,4,10,10,0,0,0,3.88,13.78,10.61,10.61,0,0,0,14.22-3.77,10.06,10.06,0,0,0,1.19-3.16,9,9,0,0,0,10-4.08,8.5,8.5,0,0,0-3.33-11.79A9.13,9.13,0,0,0,124.31,61.06Z"/><path class="cls-2" d="M124.31,61.06a7.2,7.2,0,0,0-3.48-4.35,7.58,7.58,0,0,0-7.94.37,7.92,7.92,0,0,1,5.67.77,7.41,7.41,0,0,1,3.84,7.42,8,8,0,0,1,8-.17,7.37,7.37,0,0,1,2.88,10.23,7.45,7.45,0,0,1-.77,1.07,8.76,8.76,0,0,0,3.25-3.18,8.5,8.5,0,0,0-3.33-11.79A9.13,9.13,0,0,0,124.31,61.06Z"/><path class="cls-1" d="M48.1,80.73a8.91,8.91,0,0,0,5-.07A8.28,8.28,0,0,0,58.65,70.2a8.6,8.6,0,0,0-9.29-5.75,9.87,9.87,0,0,0-.44-4,10.48,10.48,0,0,0-13.08-6.58,10,10,0,0,0-4.16,16.83A9.58,9.58,0,0,0,28.8,80.9a10.15,10.15,0,0,0,12.67,6.37A9.9,9.9,0,0,0,48.1,80.73Z"/><path class="cls-2" d="M41.47,87.27a9.9,9.9,0,0,0,6.63-6.54,8.91,8.91,0,0,0,5-.07,8.45,8.45,0,0,0,5.54-5.28,11.44,11.44,0,0,1-4.07,2.2,11.86,11.86,0,0,1-9.62-1.17,11.43,11.43,0,0,1-7.17,6.33,11.86,11.86,0,0,1-8.4-.53A10.21,10.21,0,0,0,41.47,87.27Z"/><path class="cls-5" d="M113,78.24c0-.07,0-.14,0-.21a6.88,6.88,0,0,0-13.75,0v.21l-13.55,0a1.48,1.48,0,0,0,0-.21A6.88,6.88,0,0,0,72,78a1.48,1.48,0,0,0,0,.21l-13.55,0c0-.07,0-.14,0-.21a6.88,6.88,0,0,0-13.75,0v.21l-13.54,0v-.21a6.88,6.88,0,0,0-13.75,0,1.34,1.34,0,0,0,0,.2L4,78.07,13.4,221l103.8.16,9.16-142.94Z"/><path class="cls-6" d="M17.38,78.2V78a6.66,6.66,0,0,0-6.76-6.57A6.66,6.66,0,0,0,3.85,78c0,.54,9.32,143.11,9.32,143.11h11.6Z"/><path class="cls-6" d="M44.66,78.24c0-.07,0-.14,0-.21a6.77,6.77,0,0,0-13.54,0c0,.47,5.25,143.1,5.25,143.1l11.38,0Z"/><path class="cls-6" d="M65.19,71.5a6.67,6.67,0,0,0-6.77,6.55v.21l.94,142.89,11.6,0s1-142.69,1-143.1A6.67,6.67,0,0,0,65.19,71.5Z"/><path class="cls-6" d="M92.48,71.54a6.68,6.68,0,0,0-6.78,6.55,1.48,1.48,0,0,0,0,.21L82.57,221.18l11.6,0S99.23,78.48,99.24,78A6.59,6.59,0,0,0,92.48,71.54Z"/><path class="cls-6" d="M126.52,78.47a6.88,6.88,0,0,0-13.75-.13l-7,142.88,11.49-.09S126.52,79.05,126.52,78.47Z"/><path class="cls-1" d="M108.75,58.07a7.11,7.11,0,0,0,2.06,3.63,7.58,7.58,0,0,0,10.48-.12,7,7,0,0,0,.73-9.19,8.88,8.88,0,0,0,3-2,8.51,8.51,0,0,0-.15-12.31,9.18,9.18,0,0,0-12.7.14A8.6,8.6,0,0,0,110,41.87a8.92,8.92,0,0,0-9.21,2,8.26,8.26,0,0,0,.15,11.94A8.87,8.87,0,0,0,108.75,58.07Z"/><path class="cls-2" d="M100.92,55.84a8.87,8.87,0,0,0,7.83,2.23,7.11,7.11,0,0,0,2.06,3.63,7.54,7.54,0,0,0,6.39,1.94,10,10,0,0,1-3.38-2.11,9.52,9.52,0,0,1-3-7.57A10.16,10.16,0,0,1,103,51.24a9.48,9.48,0,0,1-3-6.4A8.24,8.24,0,0,0,100.92,55.84Z"/><path class="cls-1" d="M96.32,25.35a6.31,6.31,0,0,0,2.05,3,6.65,6.65,0,0,0,9.17-.75,6.18,6.18,0,0,0,0-8.1,7.73,7.73,0,0,0,2.49-1.9,7.49,7.49,0,0,0-1-10.78A8.06,8.06,0,0,0,98,7.78a7.62,7.62,0,0,0-1.68,3.31,7.79,7.79,0,0,0-7.92,2.35,7.25,7.25,0,0,0,.92,10.44A7.81,7.81,0,0,0,96.32,25.35Z"/><path class="cls-2" d="M89.32,23.88a7.81,7.81,0,0,0,7,1.47,6.31,6.31,0,0,0,2.05,3,6.65,6.65,0,0,0,5.72,1.31A8.8,8.8,0,0,1,101,28.06a8.37,8.37,0,0,1-3.12-6.44,8.93,8.93,0,0,1-7.08-1.89,8.41,8.41,0,0,1-3-5.42A7.26,7.26,0,0,0,89.32,23.88Z"/><path class="cls-1" d="M27.8,23.1a8.24,8.24,0,0,0,2.08-.2,8,8,0,0,0,6.25-9.56,8.23,8.23,0,0,0-9-6.17,6.49,6.49,0,0,0-.14-2,6.79,6.79,0,0,0-8.12-5A6.59,6.59,0,0,0,13.72,8a5,5,0,0,0-3.19,5.75A5.13,5.13,0,0,0,16,17.62a6.41,6.41,0,0,0-1.57,5.82,6.81,6.81,0,0,0,8.13,5A6.71,6.71,0,0,0,27.8,23.1Zm-8-7.56h-.05l.05-.06Z"/><path class="cls-2" d="M22.59,28.4a6.71,6.71,0,0,0,5.21-5.3,8.24,8.24,0,0,0,2.08-.2,8,8,0,0,0,6.25-9.56A7.87,7.87,0,0,0,35,10.76l.12.45a7.3,7.3,0,0,1-5.7,8.71,7.8,7.8,0,0,1-4.63-.41,6.75,6.75,0,0,1-5.29,7.94,7.76,7.76,0,0,1-1.26.16l-.41.15A7,7,0,0,0,22.59,28.4Z"/></g></g></svg>