<svg width="124" height="201" viewBox="0 0 124 201" fill="none" xmlns="http://www.w3.org/2000/svg">
<path d="M85.711 45.2968C86.9638 45.4471 88.2916 45.2467 89.5193 44.6454C92.8265 43.0168 94.1293 39.1334 92.4507 35.9264C90.9725 33.0702 87.6152 31.7674 84.5585 32.6443C84.4834 31.6171 84.2078 30.5648 83.7067 29.5877C81.6773 25.7043 76.7917 24.1759 72.808 26.1302C68.8244 28.0844 67.2209 32.8197 69.2503 36.7031C69.8767 37.8807 70.7536 38.8578 71.8059 39.5593C69.9268 41.8142 69.4758 45.0212 70.929 47.7771C72.8832 51.5353 77.6185 53.0386 81.5019 51.1344C83.8821 49.9569 85.3853 47.727 85.711 45.2968Z" fill="#FAEDD3"/>
<path d="M81.4519 51.1344C83.8572 49.9569 85.3855 47.7271 85.6861 45.2968C86.9388 45.4471 88.2667 45.2467 89.4944 44.6454C91.4737 43.6683 92.7264 41.8894 93.0772 39.9101C92.3255 40.787 91.3735 41.5386 90.246 42.0898C87.7907 43.2924 85.0598 43.3175 82.7047 42.3654C82.1033 44.7706 80.4748 46.9003 78.0195 48.1029C75.9149 49.1301 73.6099 49.3055 71.5054 48.7292C73.6851 51.7859 77.9193 52.8632 81.4519 51.1344Z" fill="#EEC36B"/>
<path d="M63.0366 38.9079C63.663 38.9329 64.2893 38.8578 64.9157 38.7325C68.9494 37.8556 71.4799 33.9722 70.578 30.0637C69.7261 26.4308 66.1684 24.0506 62.4353 24.4766C62.4854 23.8753 62.4604 23.2489 62.31 22.6225C61.5584 19.4156 58.2763 17.4112 54.9441 18.1378C51.6369 18.8644 49.5574 22.0463 50.284 25.2282C48.1543 26.0299 46.8766 28.2347 47.3777 30.4395C47.9038 32.6693 50.0585 34.1475 52.3635 33.9471C51.0857 35.3251 50.4844 37.2793 50.9354 39.2336C51.687 42.4405 54.9691 44.4449 58.3013 43.7183C60.8318 43.1671 62.6357 41.2129 63.0366 38.9079ZM55.7959 32.068C55.7709 32.068 55.7709 32.068 55.7458 32.068C55.7709 32.043 55.7709 32.043 55.7959 32.0179C55.7959 32.043 55.7959 32.043 55.7959 32.068Z" fill="#FAEDD3"/>
<path d="M58.3262 43.7183C60.8317 43.1671 62.6356 41.2129 63.0365 38.9329C63.6628 38.958 64.2892 38.8828 64.9155 38.7575C68.9493 37.8806 71.4798 33.9972 70.5778 30.0887C70.3774 29.2369 70.0266 28.4351 69.5506 27.7587C69.6007 27.8839 69.6258 28.0343 69.6508 28.1595C70.4776 31.7173 68.1726 35.2499 64.4896 36.0517C63.0365 36.3774 61.5583 36.202 60.2805 35.6758C60.982 38.9329 58.8524 42.1399 55.4951 42.8664C55.1193 42.9416 54.7184 42.9917 54.3426 43.0168C54.2173 43.0669 54.0921 43.117 53.9668 43.1671C55.2947 43.7935 56.7979 44.044 58.3262 43.7183Z" fill="#EEC36B"/>
<path d="M122.215 63.9371C122.215 60.6049 119.434 57.899 116.002 57.899C112.995 57.899 110.49 59.9535 109.888 62.7095C109.462 59.7781 106.882 57.5232 103.725 57.5232C100.292 57.5232 97.4864 60.2291 97.4864 63.5613C97.4864 63.6365 97.4864 63.6866 97.4864 63.7618C97.4864 63.6365 97.4864 63.5864 97.4864 63.5613C97.4864 60.2792 94.7554 57.6986 91.3731 57.6986C87.9908 57.6986 85.2348 60.3544 85.2348 63.6365C85.2348 63.6615 85.2348 63.7116 85.2348 63.7367C85.2348 63.6615 85.2348 63.6114 85.2348 63.5363C85.2348 60.204 82.4538 57.4982 79.0213 57.4982C75.5889 57.4982 72.7828 60.204 72.7828 63.5363C72.7828 63.6114 72.7828 63.6615 72.7828 63.7367C72.7828 63.6866 72.7828 63.6365 72.7828 63.6365C72.7828 60.3544 70.0519 57.6986 66.6695 57.6736C63.2872 57.6736 60.5312 60.3293 60.5312 63.6114C60.5312 63.6365 60.5312 63.6866 60.5312 63.7116C60.5312 63.6365 60.5312 63.5864 60.5312 63.5112C60.5312 60.179 57.7502 57.4731 54.3177 57.4731C50.8853 57.4731 48.0792 60.179 48.0792 63.5112C48.0792 63.5864 48.0792 63.6365 48.0792 63.7116C48.0792 63.6866 48.0792 63.6365 48.0792 63.6114C48.0792 60.3293 45.3483 57.6736 41.9659 57.6485C38.5836 57.6485 35.8276 60.3043 35.8276 63.5864C35.8276 63.5864 35.8276 63.6365 35.8276 63.6866C35.8276 63.6114 35.8276 63.5613 35.8276 63.4862C35.8276 60.1539 33.0466 57.4481 29.6141 57.4481C26.1817 57.4481 23.3756 60.1539 23.3756 63.4862C23.3756 63.5613 23.3756 63.6114 23.3756 63.6866C23.3756 63.6615 23.3756 63.6365 23.3756 63.5864C23.3756 60.3043 20.6447 57.6485 17.2623 57.6234C13.88 57.6234 11.124 60.2792 11.124 63.5613C11.124 64.0123 17.8386 166.66 19.2917 188.958L19.5172 192.14C19.5673 192.842 19.5924 193.193 19.5924 193.193L30.1152 193.218V193.193L40.6381 193.218C40.6381 193.243 40.6381 193.243 40.6381 193.243L50.9604 193.268V193.243L61.4833 193.268V193.293L72.0061 193.318C72.0061 193.318 72.0061 193.318 72.0061 193.293L82.5289 193.318V193.343L93.0518 193.368C93.0518 193.368 93.0518 193.368 93.0518 193.343L103.575 193.368V193.393L113.897 193.418C113.897 193.418 113.897 193.418 113.897 193.393H113.922V193.343H113.972L118.958 116.1C120.637 88.4654 122.215 64.1626 122.215 63.9371Z" fill="#812124"/>
<path d="M114.222 193.193L106.23 200.333L114.623 71.1027L122.215 64.6888L114.222 193.193Z" fill="#65191A"/>
<path d="M88.9681 51.4601C88.7427 50.032 88.1163 48.6791 87.064 47.5266C84.1828 44.4198 79.2721 44.1693 76.0652 46.9503C73.209 49.4307 72.6828 53.4895 74.6371 56.5461C73.4595 56.922 72.3321 57.5483 71.3549 58.4002C67.4715 61.7825 67.1458 67.5701 70.6284 71.3282C74.1109 75.0864 80.0738 75.4121 83.9573 72.0297C85.1348 71.0025 85.9867 69.7498 86.5128 68.3718C89.6947 69.7247 93.5531 69.2487 96.3091 66.8685C100.067 63.6115 100.393 57.9993 97.0106 54.3414C94.906 52.0364 91.8744 51.0592 88.9681 51.4601Z" fill="#FAEDD3"/>
<path d="M97.0108 54.3163C94.9063 52.0364 91.8747 51.0592 88.9684 51.435C88.7429 50.007 88.1165 48.654 87.0642 47.5015C85.3355 45.6475 82.8802 44.7957 80.5 45.0211C81.7527 45.5974 82.9052 46.3991 83.8823 47.4514C86.012 49.7564 86.8638 52.7379 86.4629 55.5941C89.4193 55.5189 92.4008 56.6714 94.5304 58.9764C96.3594 60.9557 97.2363 63.4361 97.2113 65.8914C100.093 62.5842 100.093 57.6485 97.0108 54.3163Z" fill="#EEC36B"/>
<path d="M56.5982 79.3706C58.0263 79.7715 59.5796 79.7715 61.0829 79.3205C65.1918 78.0678 67.4467 73.8086 66.1439 69.85C64.9914 66.3173 61.3836 64.1877 57.7256 64.6387C57.8509 63.4361 57.7256 62.1834 57.3247 60.9807C55.7463 56.1703 50.4348 53.4895 45.474 55.0178C40.5133 56.5461 37.7573 61.6823 39.3357 66.5178C39.8118 67.996 40.6385 69.2737 41.7159 70.2759C39.1353 72.5308 37.9828 76.1136 39.1102 79.546C40.6385 84.2061 45.7747 86.8118 50.5851 85.3336C53.5916 84.3815 55.7714 82.1016 56.5982 79.3706Z" fill="#FAEDD3"/>
<path d="M50.61 85.3085C53.6166 84.3815 55.7712 82.1016 56.6231 79.3706C58.0512 79.7715 59.6046 79.7715 61.1078 79.3205C63.5631 78.5689 65.367 76.7399 66.1437 74.5352C65.0915 75.4121 63.8638 76.0885 62.4607 76.5395C59.4041 77.4665 56.2723 76.9905 53.7418 75.4872C52.5893 78.1179 50.2843 80.2726 47.2528 81.2247C44.6471 82.0264 41.9412 81.7759 39.6362 80.7486C41.5404 84.6321 46.2005 86.6615 50.61 85.3085Z" fill="#EEC36B"/>
<path d="M29.8648 55.1431C30.0652 54.3915 30.1905 53.5897 30.1905 52.7629C30.1905 47.5015 25.806 43.2172 20.3692 43.2172C15.3082 43.2172 11.1241 46.9253 10.5729 51.6856C9.79625 51.435 8.9444 51.3098 8.09255 51.3098C3.63288 51.3098 0 54.7923 0 59.1267C0 63.4361 3.58277 66.9437 8.04245 66.9687C8.46837 69.85 11.0239 72.0798 14.1056 72.0798C17.2123 72.0798 19.7929 69.8249 20.1938 66.9186C21.647 68.8979 24.0522 70.2008 26.758 70.2008C31.2177 70.2008 34.8506 66.7182 34.8506 62.3838C34.8255 59.1267 32.7711 56.3207 29.8648 55.1431ZM18.6905 62.1333C18.6905 62.1583 18.6905 62.1583 18.6905 62.1834C18.6655 62.1583 18.6404 62.1333 18.6404 62.1082C18.6404 62.1082 18.6655 62.1333 18.6905 62.1333Z" fill="#FAEDD3"/>
<path d="M34.8255 62.3838C34.8255 59.1267 32.7711 56.3207 29.8648 55.1431C30.0652 54.3915 30.1905 53.5897 30.1905 52.7629C30.1905 47.5015 25.8059 43.2172 20.3692 43.2172C19.1665 43.2172 18.0391 43.4177 16.9868 43.7935C17.1873 43.7935 17.3626 43.7684 17.5631 43.7684C22.4988 43.7684 26.5075 47.6769 26.5075 52.4623C26.5075 54.3664 25.8561 56.1202 24.7787 57.5483C29.2885 57.6235 32.8963 61.1812 32.8963 65.5657C32.8963 66.0668 32.8462 66.5428 32.746 67.0189C32.7711 67.1942 32.7961 67.3446 32.8212 67.5199C34.0739 66.167 34.8255 64.3631 34.8255 62.3838Z" fill="#EEC36B"/>
<path d="M71.5054 53.3141C71.7058 52.5625 71.8311 51.7607 71.8311 50.9339C71.8311 45.6725 67.4466 41.3882 62.0098 41.3882C56.9488 41.3882 52.7648 45.0963 52.2136 49.8566C51.4369 49.6061 50.585 49.4808 49.7332 49.4808C45.2735 49.4808 41.6406 52.9634 41.6406 57.2978C41.6406 61.6071 45.2234 65.1147 49.6831 65.1398C50.109 68.021 52.6645 70.2509 55.7462 70.2509C58.853 70.2509 61.4336 67.996 61.8344 65.0897C63.2876 67.069 65.6928 68.3718 68.3987 68.3718C72.8583 68.3718 76.4912 64.8892 76.4912 60.5548C76.4912 57.2978 74.4368 54.4917 71.5054 53.3141ZM60.3312 60.3043C60.3312 60.3293 60.3312 60.3293 60.3312 60.3544C60.3061 60.3293 60.2811 60.3043 60.2811 60.2792C60.3061 60.3043 60.3061 60.3043 60.3312 60.3043Z" fill="#FAEDD3"/>
<path d="M76.491 60.5548C76.491 57.2978 74.4366 54.4917 71.5303 53.3141C71.7307 52.5625 71.856 51.7607 71.856 50.9339C71.856 45.6725 67.4715 41.3882 62.0347 41.3882C60.8321 41.3882 59.7046 41.5887 58.6523 41.9645C58.8528 41.9645 59.0282 41.9394 59.2286 41.9394C64.1643 41.9394 68.173 45.8479 68.173 50.6333C68.173 52.5374 67.5216 54.2912 66.4443 55.7193C70.954 55.7945 74.5619 59.3522 74.5619 63.7367C74.5619 64.2378 74.5118 64.7138 74.4115 65.1899C74.4366 65.3653 74.4616 65.5156 74.4867 65.691C75.7144 64.338 76.491 62.5341 76.491 60.5548Z" fill="#EEC36B"/>
<path d="M48.0291 37.3796C48.3799 36.7533 48.6555 36.1019 48.8559 35.3753C50.0836 30.8154 47.2775 26.1803 42.5923 24.9777C38.2078 23.8753 33.7481 26.1553 32.1697 30.164C31.5433 29.7881 30.8669 29.4875 30.1153 29.2871C26.2569 28.3099 22.3233 30.5398 21.2961 34.2729C20.2939 38.006 22.5739 41.8142 26.4072 42.8164C26.1066 45.397 27.7852 47.8774 30.466 48.5539C33.1468 49.2303 35.9028 47.8523 36.93 45.4221C37.7318 47.4515 39.5106 49.1051 41.8407 49.7064C45.6991 50.6835 49.6326 48.4536 50.6598 44.7205C51.3864 41.9145 50.259 39.0332 48.0291 37.3796ZM36.7296 40.9874C36.7296 41.0125 36.7296 41.0125 36.7045 41.0376C36.7045 41.0125 36.6795 40.9874 36.6795 40.9624C36.7045 40.9624 36.7045 40.9624 36.7296 40.9874Z" fill="#FAEDD3"/>
<path d="M50.6352 44.7205C51.3868 41.8894 50.2845 39.0332 48.0296 37.3796C48.3803 36.7532 48.6559 36.1018 48.8564 35.3752C50.084 30.8154 47.2779 26.1803 42.5928 24.9777C41.5655 24.7271 40.5383 24.652 39.5361 24.7271C39.7115 24.7522 39.8618 24.8023 40.0372 24.8274C44.3215 25.9047 46.8771 30.1639 45.7496 34.2979C45.2986 35.9515 44.3466 37.3295 43.0688 38.3317C46.9522 39.3839 49.2572 43.2674 48.23 47.0506C48.1047 47.4765 47.9544 47.9024 47.754 48.2782C47.7289 48.4286 47.7289 48.5789 47.7039 48.7292C49.0818 47.8273 50.1592 46.4493 50.6352 44.7205Z" fill="#EEC36B"/>
<path d="M112.619 55.3184C112.168 53.7149 111.091 52.2618 109.463 51.3849C106.231 49.606 102.147 50.6834 100.293 53.8152C99.0901 55.8696 99.1653 58.3249 100.268 60.2541C98.6892 61.0308 97.3363 62.2585 96.4093 63.8369C93.8287 68.2214 95.4071 73.8085 99.9169 76.314C104.452 78.8194 110.214 77.2911 112.795 72.9066C113.346 71.9796 113.697 71.0275 113.872 70.0504C117.33 70.9273 121.088 69.4992 122.917 66.3423C125.122 62.5842 123.769 57.7988 119.91 55.6692C117.605 54.3664 114.899 54.3162 112.619 55.3184Z" fill="#FAEDD3"/>
<path d="M112.619 55.3184C112.168 53.715 111.091 52.2618 109.462 51.3849C107.132 50.0821 104.326 50.3076 102.271 51.7106C103.95 51.3097 105.779 51.5102 107.408 52.4121C109.938 53.8152 111.216 56.496 110.89 59.1518C113.02 57.8489 115.776 57.6986 118.106 59.0014C121.463 60.8555 122.641 65.0145 120.711 68.2715C120.511 68.6223 120.286 68.948 120.01 69.2487C121.188 68.5722 122.215 67.6201 122.941 66.3674C125.146 62.6093 123.793 57.8239 119.935 55.6943C117.605 54.3664 114.899 54.3163 112.619 55.3184Z" fill="#EEC36B"/>
<path d="M43.5694 73.1321C44.9975 73.533 46.5508 73.533 48.0541 73.082C52.163 71.8293 54.4179 67.57 53.1151 63.6115C51.9626 60.0788 48.3547 57.9492 44.6968 58.4002C44.8221 57.1975 44.6968 55.9448 44.2959 54.7422C42.7175 49.9318 37.406 47.251 32.4452 48.7793C27.4845 50.3076 24.7285 55.4437 26.3069 60.2792C26.7829 61.7574 27.6097 63.0352 28.6871 64.0374C26.1065 66.2923 24.954 69.9001 26.0814 73.3075C27.6097 77.9676 32.7459 80.5733 37.5563 79.0951C40.5628 78.143 42.7426 75.863 43.5694 73.1321Z" fill="#FAEDD3"/>
<path d="M37.5563 79.07C40.5628 78.143 42.7175 75.863 43.5694 73.1321C44.9975 73.533 46.5508 73.533 48.0541 73.082C50.5094 72.3304 52.3133 70.5014 53.09 68.2966C52.0377 69.1735 50.8101 69.85 49.407 70.301C46.3504 71.228 43.2186 70.752 40.6881 69.2487C39.5356 71.8794 37.2306 74.0341 34.199 74.9861C31.5934 75.7879 28.8875 75.5373 26.5825 74.5101C28.5117 78.3935 33.1718 80.4229 37.5563 79.07Z" fill="#EEC36B"/>
<g opacity="0.1">
<path opacity="0.1" d="M115.977 68.9982C115.977 65.6659 113.196 62.9601 109.763 62.9601C106.757 62.9601 104.251 65.0145 103.65 67.7705C103.224 64.8391 100.643 62.5843 97.4866 62.5843C94.0542 62.5843 91.2481 65.2901 91.2481 68.6224C91.2481 68.6975 91.2481 68.7476 91.2481 68.8228C91.2481 68.6975 91.2481 68.6474 91.2481 68.6224C91.2481 65.3402 88.5172 62.7596 85.1348 62.7596C81.7525 62.7596 78.9965 65.4154 78.9965 68.6975C78.9965 68.7226 78.9965 68.7727 78.9965 68.7977C78.9965 68.7226 78.9965 68.6725 78.9965 68.5973C78.9965 65.2651 76.2155 62.5592 72.783 62.5592C69.3506 62.5592 66.5445 65.2651 66.5445 68.5973C66.5445 68.6725 66.5445 68.7226 66.5445 68.7977C66.5445 68.7476 66.5445 68.6975 66.5445 68.6975C66.5445 65.4154 63.8136 62.7596 60.4312 62.7346C57.0489 62.7346 54.2929 65.3903 54.2929 68.6725C54.2929 68.6975 54.2929 68.7476 54.2929 68.7727C54.2929 68.6975 54.2929 68.6474 54.2929 68.5723C54.2929 65.24 51.5119 62.5342 48.0794 62.5342C44.647 62.5342 41.8409 65.24 41.8409 68.5723C41.8409 68.6474 41.8409 68.6975 41.8409 68.7727C41.8409 68.7476 41.8409 68.6975 41.8409 68.6725C41.8409 65.3903 39.11 62.7346 35.7276 62.7095C32.3453 62.7095 29.5893 65.3653 29.5893 68.6474C29.5893 68.6474 29.5893 68.6975 29.5893 68.7476C29.5893 68.6725 29.5893 68.6224 29.5893 68.5472C29.5893 65.215 26.8083 62.5091 23.3758 62.5091C19.9434 62.5091 17.1373 65.215 17.1373 68.5472C17.1373 68.6224 17.1373 68.6725 17.1373 68.7476C17.1373 68.7226 17.1373 68.6975 17.1373 68.6474C17.1373 65.3653 14.4064 62.7095 11.0241 62.6845C7.64172 62.6845 4.88574 65.3402 4.88574 68.6224C4.88574 69.0733 11.6003 171.721 13.0535 194.019L13.2789 197.201C13.3291 197.903 13.3541 198.254 13.3541 198.254L23.8769 198.279V198.254L34.3998 198.279C34.3998 198.304 34.3998 198.304 34.3998 198.304L44.7222 198.329V198.304L55.245 198.329V198.354L65.7678 198.379V198.354L76.2906 198.379V198.404L86.8135 198.429V198.404L97.3363 198.429V198.454L107.659 198.479V198.454H107.684V198.404H107.734L112.569 121.011C114.373 93.5264 115.977 69.2237 115.977 68.9982Z" fill="#000100"/>
</g>
<path d="M102.347 70.8772C102.347 70.8021 102.347 70.752 102.347 70.6768C102.347 67.3446 99.5661 64.6387 96.1336 64.6387C92.7012 64.6387 89.8951 67.3446 89.8951 70.6768C89.8951 70.752 89.8951 70.8021 89.8951 70.8772L77.6185 70.8522C77.6185 70.777 77.6185 70.7269 77.6185 70.6517C77.6185 67.3195 74.8374 64.6136 71.405 64.6136C67.9725 64.6136 65.1665 67.3195 65.1665 70.6517C65.1665 70.7269 65.1665 70.777 65.1665 70.8522L52.8898 70.8271C52.8898 70.752 52.8898 70.7018 52.8898 70.6267C52.8898 67.2945 50.1088 64.5886 46.6763 64.5886C43.2439 64.5886 40.4378 67.2945 40.4378 70.6267C40.4378 70.7018 40.4378 70.752 40.4378 70.8271L28.1612 70.8021C28.1612 70.752 28.1612 70.6768 28.1612 70.6016C28.1612 67.2694 25.3801 64.5635 21.9477 64.5635C18.5153 64.5635 15.7092 67.2694 15.7092 70.6016C15.7092 70.6768 15.7092 70.7269 15.7092 70.8021L3.60791 70.777L12.1013 200.308L106.13 200.458L114.473 70.9023L102.347 70.8772Z" fill="#FFFCE3"/>
<path d="M15.734 70.8521C15.734 70.777 15.734 70.7269 15.734 70.6517C15.734 67.3696 13.0031 64.7138 9.62074 64.6888C6.2384 64.6888 3.48242 67.3445 3.48242 70.6267C3.48242 71.1277 11.9257 200.283 11.9257 200.283L22.4486 200.308L15.734 70.8521Z" fill="#B5252B"/>
<path d="M40.4625 70.8772C40.4625 70.802 40.4625 70.7519 40.4625 70.6767C40.4625 67.3946 37.7316 64.7389 34.3493 64.7138C30.9669 64.7138 28.2109 67.3696 28.2109 70.6517C28.2109 71.0776 32.9713 200.308 32.9713 200.308L43.2937 200.333L40.4625 70.8772Z" fill="#B5252B"/>
<path d="M59.0529 64.789C55.6705 64.789 52.9146 67.4448 52.9146 70.7269C52.9146 70.802 52.9146 70.8522 52.9146 70.9273L53.7664 200.383L64.2892 200.408C64.2892 200.408 65.1912 71.1278 65.1912 70.777C65.1912 67.4448 62.4352 64.789 59.0529 64.789Z" fill="#B5252B"/>
<path d="M83.7816 64.814C80.3993 64.814 77.6433 67.4698 77.6433 70.7519C77.6433 70.8271 77.6433 70.8772 77.6433 70.9523L74.7871 200.383L85.3099 200.408C85.3099 200.408 89.8949 71.1027 89.8949 70.6767C89.8949 67.3946 87.164 64.814 83.7816 64.814Z" fill="#B5252B"/>
<path d="M114.623 71.1027C114.623 67.7704 111.842 65.0646 108.41 65.0646C105.002 65.0646 102.221 67.6953 102.171 71.0025L95.8325 200.433L106.155 200.458C106.13 200.433 114.623 71.6038 114.623 71.1027Z" fill="#B5252B"/>
<path d="M98.5131 52.6126C98.7887 53.8152 99.415 54.9677 100.392 55.8947C103.048 58.4001 107.282 58.35 109.888 55.7945C112.193 53.5145 112.418 49.9819 110.564 47.4764C111.566 47.0755 112.493 46.4993 113.27 45.6976C116.402 42.5908 116.352 37.5799 113.145 34.5484C109.938 31.4917 104.777 31.5669 101.645 34.6736C100.693 35.6257 100.016 36.7532 99.6656 37.9558C96.8344 36.9536 93.5523 37.5799 91.3225 39.7847C88.2659 42.8163 88.341 47.6518 91.4478 50.6082C93.3769 52.4372 96.0327 53.0886 98.5131 52.6126Z" fill="#FAEDD3"/>
<path d="M91.4231 50.5832C93.3773 52.4122 96.0331 53.0886 98.5135 52.6126C98.7891 53.8152 99.4154 54.9677 100.393 55.8947C101.971 57.398 104.151 57.9742 106.18 57.6485C105.078 57.2226 104.025 56.5962 103.123 55.7444C101.144 53.8904 100.242 51.3599 100.418 48.8795C97.8621 49.105 95.2564 48.2782 93.2771 46.4242C91.5985 44.8207 90.6715 42.7412 90.5712 40.6116C88.2913 43.6431 88.592 47.9024 91.4231 50.5832Z" fill="#EEC36B"/>
<path d="M87.2644 22.9733C87.5901 24.0256 88.1914 24.9777 89.1184 25.7293C91.5988 27.7587 95.3319 27.458 97.4114 25.0528C99.2905 22.8981 99.2404 19.8165 97.4364 17.7119C98.2883 17.311 99.0399 16.7348 99.6913 15.9831C102.247 13.0518 101.846 8.69232 98.8395 6.21194C95.833 3.75662 91.3232 4.10738 88.7676 7.03874C87.9909 7.94069 87.4899 8.96792 87.2393 10.0453C84.7088 9.34374 81.8777 10.0954 80.0487 12.1749C77.5934 15.006 77.9692 19.2402 80.8755 21.6454C82.7295 23.1236 85.1348 23.5496 87.2644 22.9733Z" fill="#FAEDD3"/>
<path d="M80.9257 21.6454C82.7546 23.1236 85.1348 23.5496 87.2644 22.9733C87.5901 24.0256 88.1914 24.9777 89.1184 25.7293C90.6217 26.957 92.5509 27.3328 94.3047 26.9068C93.3025 26.6062 92.3504 26.1302 91.4986 25.4286C89.6446 23.9254 88.6925 21.7707 88.6675 19.591C86.4627 19.9417 84.1076 19.3905 82.2535 17.8873C80.6751 16.5844 79.7481 14.8306 79.4976 12.9766C77.6936 15.7577 78.2448 19.4657 80.9257 21.6454Z" fill="#EEC36B"/>
<path d="M25.1797 20.9188C25.806 20.9439 26.4324 20.8687 27.0588 20.7435C31.0925 19.8666 33.623 15.9831 32.721 12.0747C31.8692 8.44178 28.3115 6.06162 24.5784 6.48754C24.6285 5.88624 24.6034 5.25988 24.4531 4.63352C23.7015 1.42657 20.4194 -0.577779 17.0871 0.148797C13.78 0.875373 11.7004 4.05727 12.427 7.23917C10.2974 8.04091 9.01963 10.2457 9.52072 12.4505C10.0469 14.6803 12.2015 16.1585 14.5065 15.9581C13.2288 17.3361 12.6275 19.2903 13.0784 21.2446C13.8301 24.4515 17.1122 26.4559 20.4444 25.7293C22.9749 25.1781 24.7538 23.2238 25.1797 20.9188ZM17.939 14.079C17.9139 14.079 17.9139 14.079 17.8889 14.079C17.9139 14.054 17.9139 14.054 17.939 14.0289C17.939 14.054 17.939 14.054 17.939 14.079Z" fill="#FAEDD3"/>
<path d="M20.4693 25.7293C22.9748 25.1781 24.7787 23.2238 25.1795 20.9439C25.8059 20.969 26.4323 20.8938 27.0586 20.7685C31.0924 19.8916 33.6229 16.0082 32.7209 12.0997C32.5205 11.2479 32.1697 10.4461 31.6937 9.76965C31.7438 9.89493 31.7688 10.0453 31.7939 10.1705C32.6207 13.7282 30.3157 17.2609 26.6327 18.0626C25.1795 18.3884 23.7013 18.213 22.4236 17.6868C23.1251 20.9439 20.9955 24.1508 17.6382 24.8774C17.2624 24.9526 16.8615 25.0027 16.4857 25.0278C16.3604 25.0779 16.2351 25.128 16.1099 25.1781C17.4377 25.8044 18.941 26.055 20.4693 25.7293Z" fill="#EEC36B"/>
</svg>
