<svg width="21" height="20" viewBox="0 0 21 20" fill="none" xmlns="http://www.w3.org/2000/svg">
<path d="M16.7835 13.9401C17.081 13.4267 17.7382 13.2513 18.2516 13.5488C18.765 13.8462 18.9404 14.5034 18.6429 15.0168C17.7627 16.5314 16.4942 17.7942 14.9718 18.6708C11.0685 20.9188 6.1102 20.2689 2.91408 17.0733C-0.97028 13.1889 -0.972065 6.8124 2.91296 2.92733C6.04905 -0.208762 10.9392 -0.910239 14.811 1.23701C15.8596 1.81863 16.7931 2.58525 17.5724 3.49527L19.3654 2.38475C19.6776 2.19111 20.077 2.42716 20.0587 2.79451L19.7911 7.99103C19.7757 8.30214 19.4634 8.50386 19.1729 8.39157L14.1795 6.45307C13.8294 6.31733 13.7853 5.84103 14.1045 5.64334L15.7192 4.6429C15.153 4.03435 14.4952 3.51691 13.7681 3.11301C10.7254 1.42605 6.89836 1.98813 4.43617 4.45036C1.38773 7.49827 1.38951 12.5016 4.43729 15.5506C6.93791 18.0506 10.846 18.5721 13.9039 16.8112C15.0952 16.1254 16.091 15.1329 16.7838 13.9398L16.7835 13.9401Z" fill="#333333"/>
</svg>
