<svg width="20" height="20" viewBox="0 0 20 20" fill="none" xmlns="http://www.w3.org/2000/svg">
<path fill-rule="evenodd" clip-rule="evenodd" d="M9.99992 0.833344C4.93742 0.833344 0.833252 4.93751 0.833252 10C0.833252 15.0625 4.93742 19.1667 9.99992 19.1667C15.0624 19.1667 19.1666 15.0625 19.1666 10C19.1666 4.93751 15.0624 0.833344 9.99992 0.833344ZM13.0891 8.08918C13.2409 7.93201 13.3249 7.72151 13.323 7.50301C13.3211 7.28451 13.2334 7.0755 13.0789 6.92099C12.9244 6.76649 12.7154 6.67885 12.4969 6.67695C12.2784 6.67505 12.0679 6.75904 11.9108 6.91084L9.99992 8.82168L8.08908 6.91084C8.01221 6.83125 7.92026 6.76777 7.81859 6.72409C7.71692 6.68042 7.60757 6.65743 7.49692 6.65647C7.38627 6.65551 7.27654 6.67659 7.17412 6.71849C7.07171 6.76039 6.97867 6.82227 6.90042 6.90051C6.82218 6.97876 6.7603 7.0718 6.7184 7.17421C6.6765 7.27663 6.65541 7.38636 6.65638 7.49701C6.65734 7.60766 6.68033 7.71701 6.724 7.81868C6.76767 7.92035 6.83116 8.0123 6.91075 8.08918L8.82158 10L6.91075 11.9108C6.83116 11.9877 6.76767 12.0797 6.724 12.1813C6.68033 12.283 6.65734 12.3924 6.65638 12.503C6.65541 12.6137 6.6765 12.7234 6.7184 12.8258C6.7603 12.9282 6.82218 13.0213 6.90042 13.0995C6.97867 13.1777 7.07171 13.2396 7.17412 13.2815C7.27654 13.3234 7.38627 13.3445 7.49692 13.3436C7.60757 13.3426 7.71692 13.3196 7.81859 13.2759C7.92026 13.2323 8.01221 13.1688 8.08908 13.0892L9.99992 11.1783L11.9108 13.0892C12.0679 13.241 12.2784 13.325 12.4969 13.3231C12.7154 13.3212 12.9244 13.2335 13.0789 13.079C13.2334 12.9245 13.3211 12.7155 13.323 12.497C13.3249 12.2785 13.2409 12.068 13.0891 11.9108L11.1783 10L13.0891 8.08918Z" fill="white"/>
</svg>
