<svg width="20" height="20" viewBox="0 0 20 20" fill="none" xmlns="http://www.w3.org/2000/svg">
<path fill-rule="evenodd" clip-rule="evenodd" d="M10.0002 0.833344C4.93766 0.833344 0.833496 4.93751 0.833496 10C0.833496 15.0625 4.93766 19.1667 10.0002 19.1667C15.0627 19.1667 19.1668 15.0625 19.1668 10C19.1668 4.93751 15.0627 0.833344 10.0002 0.833344ZM13.0893 8.08918C13.2411 7.93201 13.3251 7.72151 13.3232 7.50301C13.3213 7.28451 13.2337 7.0755 13.0792 6.92099C12.9247 6.76649 12.7157 6.67885 12.4972 6.67695C12.2787 6.67505 12.0682 6.75904 11.911 6.91084L10.0002 8.82168L8.08933 6.91084C8.01246 6.83125 7.9205 6.76777 7.81883 6.72409C7.71716 6.68042 7.60781 6.65743 7.49716 6.65647C7.38651 6.65551 7.27678 6.67659 7.17437 6.71849C7.07195 6.76039 6.97891 6.82227 6.90067 6.90051C6.82242 6.97876 6.76055 7.0718 6.71864 7.17421C6.67674 7.27663 6.65566 7.38636 6.65662 7.49701C6.65758 7.60766 6.68057 7.71701 6.72424 7.81868C6.76792 7.92035 6.8314 8.0123 6.911 8.08918L8.82183 10L6.911 11.9108C6.8314 11.9877 6.76792 12.0797 6.72424 12.1813C6.68057 12.283 6.65758 12.3924 6.65662 12.503C6.65566 12.6137 6.67674 12.7234 6.71864 12.8258C6.76055 12.9282 6.82242 13.0213 6.90067 13.0995C6.97891 13.1777 7.07195 13.2396 7.17437 13.2815C7.27678 13.3234 7.38651 13.3445 7.49716 13.3436C7.60781 13.3426 7.71716 13.3196 7.81883 13.2759C7.9205 13.2323 8.01246 13.1688 8.08933 13.0892L10.0002 11.1783L11.911 13.0892C12.0682 13.241 12.2787 13.325 12.4972 13.3231C12.7157 13.3212 12.9247 13.2335 13.0792 13.079C13.2337 12.9245 13.3213 12.7155 13.3232 12.497C13.3251 12.2785 13.2411 12.068 13.0893 11.9108L11.1785 10L13.0893 8.08918Z" fill="#FED800"/>
</svg>
