<svg width="21" height="21" viewBox="0 0 21 21" fill="none" xmlns="http://www.w3.org/2000/svg">
<path d="M20.4338 9.0897C20.6692 8.91429 20.8439 8.66959 20.9333 8.3899C21.0226 8.11022 21.0222 7.80958 20.9321 7.53014C20.842 7.2507 20.6667 7.00647 20.4307 6.83169C20.1948 6.65692 19.9101 6.56036 19.6165 6.55557L13.9147 6.34017C13.8867 6.33823 13.8598 6.32823 13.8373 6.31137C13.8149 6.29451 13.7977 6.27151 13.788 6.24514L11.8177 0.923469C11.7188 0.652723 11.539 0.418935 11.3027 0.25376C11.0664 0.0885845 10.7851 0 10.4968 0C10.2086 0 9.92724 0.0885845 9.69098 0.25376C9.45471 0.418935 9.27491 0.652723 9.17592 0.923469L7.21197 6.26414C7.20226 6.29051 7.18513 6.31352 7.16265 6.33038C7.14017 6.34724 7.1133 6.35724 7.08526 6.35917L1.38347 6.57458C1.0899 6.57937 0.805185 6.67592 0.569254 6.8507C0.333324 7.02547 0.158007 7.2697 0.0678874 7.54915C-0.0222326 7.82859 -0.0226369 8.12923 0.0667311 8.40891C0.156099 8.68859 0.330758 8.93329 0.566218 9.1087L5.03895 12.6248C5.06134 12.6424 5.07807 12.6662 5.08708 12.6932C5.09609 12.7203 5.09697 12.7493 5.08964 12.7769L3.55015 18.2316C3.47038 18.5093 3.47811 18.8049 3.57229 19.0781C3.66647 19.3514 3.84253 19.5889 4.07652 19.7586C4.31051 19.9282 4.59107 20.0216 4.88003 20.0261C5.169 20.0306 5.45233 19.946 5.69149 19.7837L10.4176 16.6161C10.4409 16.6 10.4685 16.5914 10.4968 16.5914C10.5251 16.5914 10.5527 16.6 10.576 16.6161L15.3022 19.7837C15.5381 19.9515 15.8204 20.0416 16.1099 20.0416C16.3994 20.0416 16.6818 19.9515 16.9177 19.7837C17.1517 19.6157 17.328 19.3793 17.4221 19.107C17.5163 18.8347 17.5238 18.5399 17.4435 18.2632L15.8914 12.7895C15.8831 12.762 15.8836 12.7327 15.8927 12.7055C15.9017 12.6783 15.919 12.6545 15.942 12.6375L20.4338 9.0897Z" fill="#FED800"/>
</svg>
