<svg width="21" height="20" viewBox="0 0 21 20" fill="none" xmlns="http://www.w3.org/2000/svg">
<path d="M16.0799 19.9999C15.7999 19.9997 15.5262 19.9159 15.2941 19.7594L10.5665 16.5946C10.5433 16.5786 10.5156 16.57 10.4873 16.57C10.459 16.57 10.4314 16.5786 10.4081 16.5946L5.68053 19.7594C5.44314 19.9177 5.16314 20.0002 4.87772 19.9958C4.5923 19.9914 4.31496 19.9004 4.08254 19.7349C3.85012 19.5694 3.6736 19.3372 3.57644 19.0691C3.47928 18.801 3.46606 18.5097 3.53855 18.234L5.09117 12.7652C5.09851 12.7377 5.09762 12.7087 5.08861 12.6817C5.0796 12.6547 5.06287 12.6309 5.04047 12.6133L0.566388 9.10043C0.330858 8.92518 0.156146 8.6807 0.0667512 8.40127C-0.0226437 8.12184 -0.0222393 7.82147 0.0679079 7.54228C0.158055 7.2631 0.333425 7.01909 0.569426 6.84447C0.805428 6.66986 1.09023 6.57339 1.38389 6.5686L7.0874 6.35339C7.11544 6.35146 7.14233 6.34147 7.16482 6.32463C7.1873 6.30778 7.20443 6.2848 7.21414 6.25845L9.17869 0.92263C9.27771 0.652129 9.45757 0.418554 9.6939 0.253529C9.93024 0.088504 10.2116 0 10.5 0C10.7884 0 11.0698 0.088504 11.3061 0.253529C11.5424 0.418554 11.7223 0.652129 11.8213 0.92263L13.7859 6.25845C13.7956 6.2848 13.8127 6.30778 13.8352 6.32463C13.8577 6.34147 13.8846 6.35146 13.9126 6.35339L19.6161 6.5686C19.9098 6.57339 20.1946 6.66986 20.4306 6.84447C20.6666 7.01909 20.8419 7.2631 20.9321 7.54228C21.0222 7.82147 21.0226 8.12184 20.9332 8.40127C20.8439 8.6807 20.6691 8.92518 20.4336 9.10043L15.9595 12.6133C15.9365 12.6304 15.9192 12.6541 15.9101 12.6813C15.9011 12.7085 15.9006 12.7378 15.9088 12.7652L17.4615 18.234C17.5159 18.4438 17.5214 18.6632 17.4772 18.8754C17.4331 19.0876 17.3407 19.2868 17.2071 19.4576C17.0735 19.6283 16.9024 19.7661 16.7069 19.8601C16.5114 19.9542 16.2969 20.002 16.0799 19.9999ZM10.4905 15.3034C10.7711 15.312 11.0427 15.4046 11.27 15.5692L15.9975 18.734C16.0215 18.7522 16.0507 18.7622 16.0808 18.7624C16.1109 18.7626 16.1403 18.7531 16.1645 18.7353C16.1887 18.7175 16.2066 18.6924 16.2153 18.6636C16.2241 18.6349 16.2233 18.604 16.213 18.5758L14.6604 13.107C14.584 12.8388 14.5896 12.5538 14.6766 12.2888C14.7635 12.0237 14.9278 11.7907 15.1484 11.6196L19.6224 8.10668C19.6469 8.08956 19.6651 8.06507 19.6746 8.03682C19.684 8.00856 19.6841 7.97802 19.6749 7.94969C19.6657 7.92136 19.6476 7.89673 19.6233 7.87942C19.5991 7.8621 19.5699 7.85302 19.5401 7.8535L13.8366 7.6383C13.5573 7.62742 13.2876 7.53372 13.0618 7.36913C12.8361 7.20454 12.6646 6.97653 12.5691 6.71418L10.6046 1.37836C10.5957 1.35003 10.578 1.32526 10.5541 1.30768C10.5301 1.2901 10.5012 1.28061 10.4715 1.28061C10.4418 1.28061 10.4128 1.2901 10.3889 1.30768C10.3649 1.32526 10.3473 1.35003 10.3384 1.37836L8.39287 6.70785C8.2974 6.97021 8.12586 7.19822 7.90013 7.3628C7.67439 7.52739 7.40469 7.62109 7.12542 7.63197L1.42191 7.84717C1.39209 7.84669 1.3629 7.85577 1.33863 7.87309C1.31436 7.8904 1.29629 7.91503 1.28707 7.94336C1.27785 7.97169 1.27797 8.00223 1.28742 8.03049C1.29686 8.05874 1.31512 8.08323 1.33953 8.10035L5.81995 11.6196C6.03982 11.7912 6.20361 12.0243 6.2905 12.2892C6.37739 12.554 6.38345 12.8387 6.30792 13.107L4.76164 18.5758C4.75241 18.6032 4.75236 18.6328 4.76151 18.6602C4.77066 18.6876 4.7885 18.7113 4.81233 18.7277C4.83529 18.7473 4.86451 18.7581 4.89472 18.7581C4.92493 18.7581 4.95414 18.7473 4.9771 18.7277L9.70468 15.5629C9.93572 15.4098 10.2069 15.3284 10.4842 15.3287L10.4905 15.3034Z" fill="#FED800"/>
</svg>
