<svg width="18" height="20" viewBox="0 0 18 20" fill="none" xmlns="http://www.w3.org/2000/svg">
<path d="M15.5556 1.11111V2.22222H13.3333V1.11111C13.3333 0.5 12.8333 0 12.2222 0H5.55556C4.94444 0 4.44444 0.5 4.44444 1.11111V2.22222H2.22222V1.11111C2.22222 0.5 1.72222 0 1.11111 0C0.5 0 0 0.5 0 1.11111V18.8889C0 19.5 0.5 20 1.11111 20C1.72222 20 2.22222 19.5 2.22222 18.8889V17.7778H4.44444V18.8889C4.44444 19.5 4.94444 20 5.55556 20H12.2222C12.8333 20 13.3333 19.5 13.3333 18.8889V17.7778H15.5556V18.8889C15.5556 19.5 16.0556 20 16.6667 20C17.2778 20 17.7778 19.5 17.7778 18.8889V1.11111C17.7778 0.5 17.2778 0 16.6667 0C16.0556 0 15.5556 0.5 15.5556 1.11111ZM4.44444 15.5556H2.22222V13.3333H4.44444V15.5556ZM4.44444 11.1111H2.22222V8.88889H4.44444V11.1111ZM4.44444 6.66667H2.22222V4.44444H4.44444V6.66667ZM15.5556 15.5556H13.3333V13.3333H15.5556V15.5556ZM15.5556 11.1111H13.3333V8.88889H15.5556V11.1111ZM15.5556 6.66667H13.3333V4.44444H15.5556V6.66667Z" fill="white" fill-opacity="0.8"/>
</svg>
