<svg width="16" height="18" viewBox="0 0 16 18" fill="none" xmlns="http://www.w3.org/2000/svg">
<path opacity="0.8" d="M14 1V2H12V1C12 0.45 11.55 0 11 0H5C4.45 0 4 0.45 4 1V2H2V1C2 0.45 1.55 0 1 0C0.45 0 0 0.45 0 1V17C0 17.55 0.45 18 1 18C1.55 18 2 17.55 2 17V16H4V17C4 17.55 4.45 18 5 18H11C11.55 18 12 17.55 12 17V16H14V17C14 17.55 14.45 18 15 18C15.55 18 16 17.55 16 17V1C16 0.45 15.55 0 15 0C14.45 0 14 0.45 14 1ZM4 14H2V12H4V14ZM4 10H2V8H4V10ZM4 6H2V4H4V6ZM14 14H12V12H14V14ZM14 10H12V8H14V10ZM14 6H12V4H14V6Z" fill="white"/>
</svg>
