<svg width="121" height="110" viewBox="0 0 121 110" fill="none" xmlns="http://www.w3.org/2000/svg">
<path d="M55.2605 89.7413C73.999 89.7413 89.1895 74.5994 89.1895 55.9209C89.1895 37.2424 73.999 22.1005 55.2605 22.1005C36.5221 22.1005 21.3315 37.2424 21.3315 55.9209C21.3315 74.5994 36.5221 89.7413 55.2605 89.7413Z" fill="#373737"/>
<path d="M55.2604 3.51599C26.7063 3.51599 3.69507 26.621 3.69507 54.9163C3.69507 83.379 26.8743 106.317 55.2604 106.317C83.8145 106.317 106.826 83.2116 106.826 54.9163C106.826 26.621 83.8145 3.51599 55.2604 3.51599ZM55.2604 10.7154C63.3227 10.7154 69.7054 17.2451 69.7054 25.1142C69.7054 33.1507 63.1548 39.513 55.2604 39.513C47.1981 39.513 40.8154 32.9833 40.8154 25.1142C40.6474 17.0776 47.1981 10.7154 55.2604 10.7154ZM62.9868 56.4232C63.9946 56.4232 64.8344 57.2603 64.8344 58.2649C64.8344 59.2694 63.9946 60.1066 62.9868 60.1066C61.979 60.1066 61.1392 59.2694 61.1392 58.2649C61.1392 57.0929 61.979 56.4232 62.9868 56.4232ZM60.1314 50.3958C59.1236 50.3958 58.2838 49.5586 58.2838 48.5541C58.2838 47.5495 59.1236 46.7123 60.1314 46.7123C61.1392 46.7123 61.979 47.5495 61.979 48.5541C61.979 49.5586 61.1392 50.3958 60.1314 50.3958ZM48.5418 48.5541C48.5418 47.5495 49.3816 46.7123 50.3894 46.7123C51.3972 46.7123 52.237 47.5495 52.237 48.5541C52.237 49.5586 51.3972 50.3958 50.3894 50.3958C49.2136 50.3958 48.5418 49.5586 48.5418 48.5541ZM49.2136 58.0974C49.2136 59.102 48.3738 59.9391 47.366 59.9391C46.3582 59.9391 45.5184 59.102 45.5184 58.0974C45.5184 57.0929 46.3582 56.2557 47.366 56.2557C48.3738 56.4231 49.2136 57.0929 49.2136 58.0974ZM11.5894 46.3775C11.5894 38.341 18.1401 31.9787 26.0344 31.9787C34.0968 31.9787 40.4795 38.5084 40.4795 46.3775C40.4795 54.414 33.9288 60.7763 26.0344 60.7763C18.1401 60.7763 11.5894 54.2466 11.5894 46.3775ZM36.4483 93.927C28.386 93.927 22.0033 87.3973 22.0033 79.5282C22.0033 71.4917 28.5539 65.1294 36.4483 65.1294C44.3426 65.1294 50.8933 71.6591 50.8933 79.5282C51.0613 87.5647 44.5106 93.927 36.4483 93.927ZM55.2604 64.962C54.2526 64.962 53.4128 64.1248 53.4128 63.1203C53.4128 62.1157 54.2526 61.2786 55.2604 61.2786C56.2682 61.2786 57.108 62.1157 57.108 63.1203C56.94 64.2923 56.2682 64.962 55.2604 64.962ZM55.2604 59.7717C52.5729 59.7717 50.3894 57.5951 50.3894 54.9163C50.3894 52.2375 52.5729 50.0609 55.2604 50.0609C57.9478 50.0609 60.1314 52.2375 60.1314 54.9163C59.9634 57.7626 57.9478 59.7717 55.2604 59.7717ZM73.9045 93.927C65.8422 93.927 59.4595 87.3973 59.4595 79.5282C59.4595 71.4917 66.0102 65.1294 73.9045 65.1294C81.9669 65.1294 88.3495 71.6591 88.3495 79.5282C88.5175 87.5647 81.9669 93.927 73.9045 93.927ZM84.3184 60.7763C76.256 60.7763 69.8734 54.2466 69.8734 46.3775C69.8734 38.341 76.424 31.9787 84.3184 31.9787C92.3807 31.9787 98.7634 38.5084 98.7634 46.3775C98.7634 54.2466 92.2127 60.7763 84.3184 60.7763Z" fill="#D0D0D0"/>
<path d="M106.826 81.035C103.131 88.067 97.5877 94.2618 90.7012 99.1172C83.3107 104.14 75.2484 107.154 66.8501 107.991C79.4475 109.833 92.5488 107.154 103.802 99.2846C111.025 94.2618 116.736 87.7321 120.431 80.3653L106.826 81.035Z" fill="#373737"/>
<path d="M61.1392 55.0837C61.1392 58.4323 58.4517 61.1111 55.0924 61.1111C51.7331 61.1111 49.0457 58.4323 49.0457 55.0837C49.0457 51.7352 51.7331 49.0563 55.0924 49.0563C58.4517 49.0563 61.1392 51.7352 61.1392 55.0837Z" fill="#FED800"/>
<path d="M55.2605 0C24.6909 0 0 24.6119 0 55.0837C0 85.3881 24.6909 110 55.2605 110C85.6622 110 110.353 85.3881 110.353 55.0837C110.353 24.6119 85.6622 0 55.2605 0ZM55.2605 106.484C26.7065 106.484 3.69523 83.379 3.69523 55.0837C3.69523 26.621 26.8744 3.68341 55.2605 3.68341C83.8146 3.68341 106.826 26.7884 106.826 55.0837C106.826 83.5464 83.8146 106.484 55.2605 106.484Z" fill="#797979"/>
</svg>
